{
.appVersion = "3260";
.formatVersion = 3;
DisplayStrings = (
"NONNONOONN
NANNAANN
NBNNBBNN
NCNNCCNN
NDNNDDNN
NENNEENN
NFNNFFNN
NGNGGNN
NHNHHNN
NINNIINN
NJNNJJNN
NKNKKNN
NLNNLLNN
NMNMMNN
NONNOONN
NPNNPPNN
NQNNQQNN
NRNNRRNN
NSNNSSNN
NTNNTTNN
NUNNUUNN
NVNNVVNN
NWNNWWNN
NXNNXXNN
NYNNYYNN
NZNNZZNN
N&NN&&NN
NnNNnnNN
NoNNooNN
nannaann
nbnnbbnn
bdbdbodob
ncnnccnn
ndnnddnn
nenneenn
nfnnffnn
ngnnggnn
nhnnhhnn
ninniinn
njnnjjnn
nknnkknn
nlnnllnn
nmnnmmnn
nonnoonn
npnnppnn
nqnnqqnn
nrnnrrnn
nsnnssnn
ntnnttnn
nunnuunn
nvnnvvnn
nwnnwwnn
nxnnxxnn
nynnyynn
nznnzznn
NHNNHHNN
H1HH11HH
H2HH22HH
H3HH33HH
H4HH44HH
H5HH55HH
H6HH66HH
H7HH77HH
H8HH88HH
H9HH99HH
H0HH00HH
NbNNbbNN
NdNNddNN
NfNNfNN
NhNNhhNN
NlNNllNN
IlIIllII
NkNNkkNN
NtNNttNN

Margherita Paola Dall'Aglio
Nacque a Parma il 27 febbraio 1758 nel quartiere della Parrocchia di Santa Cristina da Filippo del fu Giuseppe e da Paola Trombara. Faceva parte di una distinta famiglia della citt di Parma e poteva vantare parenti illustri. Il 19 marzo 1791 spos il tipografo e stampatore Giambattista Bodoni, nella chiesa di SantAndrea di Parma, assistendolo sul lavoro per ventidue anni e proseguendo lattivit della tipografia dopo la sua morte, avvenuta Parma il 30 novembre 1813. Port avanti anche lattivit di fonderia di caratteri, affidandone la gestione ad Antonio Comellini, in servizio fino al 1820, e continu la vendita diretta delle pubblicazioni stampate dal marito. Margherita e Giambattista Bodoni non ebbero eredi diretti. 

nnAbnnooAboo HHAbHHOOAbOO
"
);
axes = (
{
name = "Optical size";
tag = opsz;
}
);
customParameters = (
{
name = panose;
value = (
0,
0,
0,
0,
0,
0,
0,
0,
0,
0
);
},
{
name = fsType;
value = (
);
},
{
name = vendorID;
value = TBLD;
},
{
name = "Use Typo Metrics";
value = 1;
},
{
name = "Write lastChange";
value = 1;
},
{
name = "Use Line Breaks";
value = 1;
},
{
name = "Enforce Compatibility Check";
value = 1;
}
);
date = "2024-02-05 20:25:37 +0000";
familyName = "Dall-Aglio";
featurePrefixes = (
{
automatic = 1;

glyphs = (
{
glyphname = A;
lastChange = "2024-03-26 18:23:46 +0000";
layers = (
{
anchors = (
{
name = bottom;
pos = (323,0);
},
{
name = ogonek;
pos = (581,10);
},
{
name = top;
pos = (323,700);
}
);
layerId = m01;
shapes = (
{
closed = 1;
nodes = (
(661,0,l),
(661,10,l),
(628,10,ls),
(601,10,o),
(582,24,o),
(573,48,cs),
(353,652,l),
(337,700,l),
(301,700,l),
(267,607,l),
(473,48,ls),
(482,24,o),
(466,10,o),
(428,10,cs),
(385,10,l),
(385,0,l)
);
},
{
closed = 1;
nodes = (
(156,0,l),
(156,10,l),
(113,10,ls),
(72,10,o),
(65,24,o),
(74,48,cs),
(322,700,l),
(301,700,l),
(54,48,ls),
(45,24,o),
(27,10,o),
(3,10,cs),
(-40,10,l),
(-40,0,l)
);
},
{
closed = 1;
nodes = (
(442,230,l),
(442,245,l),
(137,245,l),
(137,230,l)
);
}
);
width = 645;
},
{
anchors = (
{
name = bottom;
pos = (323,0);
},
{
name = ogonek;
pos = (581,10);
},
{
name = top;
pos = (323,700);
}
);
layerId = m002;
shapes = (
{
closed = 1;
nodes = (
(661,0,l),
(661,30,l),
(628,30,ls),
(601,30,o),
(582,44,o),
(573,68,cs),
(353,652,l),
(337,700,l),
(291,700,l),
(261,624,l),
(473,68,ls),
(482,44,o),
(466,30,o),
(428,30,cs),
(385,30,l),
(385,0,l)
);
},
{
closed = 1;
nodes = (
(156,0,l),
(156,30,l),
(123,30,ls),
(82,30,o),
(75,44,o),
(84,68,cs),
(333,700,l),
(291,700,l),
(44,68,ls),
(35,44,o),
(17,30,o),
(-7,30,cs),
(-40,30,l),
(-40,0,l)
);
},
{
closed = 1;
nodes = (
(442,230,l),
(442,265,l),
(137,265,l),
(137,230,l)
);
}
);
width = 645;
}
);
unicode = 65;
},
{
color = 1;
glyphname = AE;
lastChange = "2024-03-28 13:14:12 +0000";
layers = (
{
layerId = m01;
shapes = (
{
closed = 1;
nodes = (
(522,0,l),
(522,700,l),
(422,700,l),
(422,690,l),
(422,48,ls),
(422,24,o),
(406,10,o),
(377,10,cs),
(334,10,l),
(334,0,l)
);
},
{
closed = 1;
nodes = (
(156,0,l),
(156,10,l),
(113,10,ls),
(72,10,o),
(61,24,o),
(74,48,cs),
(435,700,l),
(414,700,l),
(54,48,ls),
(41,24,o),
(27,10,o),
(3,10,cs),
(-40,10,l),
(-40,0,l)
);
},
{
closed = 1;
nodes = (
(491,230,l),
(491,245,l),
(166,245,l),
(166,230,l)
);
},
{
closed = 1;
nodes = (
(835,0,l),
(835,200,l),
(825,200,l),
(825,154,ls),
(825,93,o),
(768,10,o),
(707,10,cs),
(482,10,l),
(482,0,l)
);
},
{
closed = 1;
nodes = (
(734,188,l),
(734,518,l),
(724,518,l),
(724,472,ls),
(724,399,o),
(682,358,o),
(606,358,cs),
(441,358,l),
(441,348,l),
(606,348,ls),
(682,348,o),
(724,307,o),
(724,234,cs),
(724,188,l)
);
},
{
closed = 1;
nodes = (
(835,500,l),
(835,700,l),
(482,700,l),
(482,690,l),
(707,690,ls),
(768,690,o),
(825,607,o),
(825,546,cs),
(825,500,l)
);
}
);
width = 895;
},
{
layerId = m002;
shapes = (
{
closed = 1;
nodes = (
(542,0,l),
(542,700,l),
(442,700,l),
(442,690,l),
(442,68,ls),
(442,44,o),
(426,30,o),
(397,30,cs),
(354,30,l),
(354,0,l)
);
},
{
closed = 1;
nodes = (
(176,0,l),
(176,30,l),
(133,30,ls),
(92,30,o),
(80,44,o),
(94,68,cs),
(455,700,l),
(414,700,l),
(54,68,ls),
(40,44,o),
(27,30,o),
(3,30,cs),
(-40,30,l),
(-40,0,l)
);
},
{
closed = 1;
nodes = (
(501,230,l),
(501,255,l),
(176,255,l),
(176,230,l)
);
},
{
closed = 1;
nodes = (
(855,0,l),
(855,200,l),
(825,200,l),
(825,154,ls),
(825,93,o),
(788,30,o),
(727,30,cs),
(502,30,l),
(502,0,l)
);
},
{
closed = 1;
nodes = (
(754,188,l),
(754,518,l),
(724,518,l),
(724,472,ls),
(724,399,o),
(702,368,o),
(626,368,cs),
(461,368,l),
(461,338,l),
(626,338,ls),
(702,338,o),
(724,307,o),
(724,234,cs),
(724,188,l)
);
},
{
closed = 1;
nodes = (
(855,500,l),
(855,700,l),
(502,700,l),
(502,670,l),
(727,670,ls),
(788,670,o),
(825,607,o),
(825,546,cs),
(825,500,l)
);
}
);
width = 900;
}
);
metricLeft = A;
metricRight = E;
unicode = 198;
},
{
glyphname = B;
lastChange = "2024-03-24 19:32:03 +0000";
layers = (
{
layerId = m01;
shapes = (
{
closed = 1;
nodes = (
(113,48,ls),
(113,24,o),
(97,10,o),
(68,10,cs),
(25,10,l),
(25,0,l),
(213,0,l),
(213,700,l),
(25,700,l),
(25,690,l),
(68,690,ls),
(97,690,o),
(113,676,o),
(113,652,cs)
);
},
{
closed = 1;
nodes = (
(343,700,l),
(475,700,o),
(558,637,o),
(558,525,cs),
(558,411,o),
(475,348,o),
(343,348,cs),
(213,348,l),
(213,358,l),
(343,358,l),
(401,358,o),
(443,418,o),
(443,525,cs),
(443,631,o),
(401,690,o),
(343,690,cs),
(213,690,l),
(213,700,l)
);
},
{
closed = 1;
nodes = (
(353,358,l),
(498,358,o),
(588,297,o),
(588,187,cs),
(588,67,o),
(498,0,o),
(353,0,cs),
(213,0,l),
(213,10,l),
(353,10,l),
(424,10,o),
(473,73,o),
(473,187,cs),
(473,290,o),
(424,348,o),
(353,348,cs),
(213,348,l),
(213,358,l)
);
}
);
width = 640;
},
{
layerId = m002;
shapes = (
{
closed = 1;
nodes = (
(113,68,ls),
(113,44,o),
(97,30,o),
(68,30,cs),
(25,30,l),
(25,0,l),
(213,0,l),
(213,700,l),
(25,700,l),
(25,670,l),
(68,670,ls),
(97,670,o),
(113,656,o),
(113,632,cs)
);
},
{
closed = 1;
nodes = (
(343,700,l),
(475,700,o),
(558,637,o),
(558,525,cs),
(558,411,o),
(475,338,o),
(343,338,cs),
(213,338,l),
(213,368,l),
(343,368,l),
(401,368,o),
(443,418,o),
(443,525,cs),
(443,631,o),
(401,670,o),
(343,670,cs),
(213,670,l),
(213,700,l)
);
},
{
closed = 1;
nodes = (
(353,368,l),
(498,368,o),
(588,297,o),
(588,187,cs),
(588,67,o),
(498,0,o),
(353,0,cs),
(213,0,l),
(213,30,l),
(353,30,l),
(424,30,o),
(473,73,o),
(473,187,cs),
(473,290,o),
(424,338,o),
(353,338,cs),
(213,338,l),
(213,368,l)
);
}
);
width = 640;
}
);
metricLeft = H;
unicode = 66;
},
{
glyphname = C;
lastChange = "2024-03-26 18:24:05 +0000";
layers = (
{
anchors = (
{
name = bottom;
pos = (336,0);
},
{
name = top;
pos = (336,700);
}
);
layerId = m01;
shapes = (
{
closed = 1;
nodes = (
(439,-16,o),
(538,6,o),
(570,41,c),
(610,0,l),
(622,0,l),
(622,200,l),
(608,200,l),
(608,180,ls),
(608,68,o),
(535,-3,o),
(378,-3,cs),
(247,-3,o),
(165,135,o),
(165,354,cs),
(165,568,o),
(247,703,o),
(378,703,cs),
(535,703,o),
(608,632,o),
(608,520,cs),
(608,500,l),
(621,500,l),
(621,700,l),
(610,700,l),
(570,659,l),
(538,694,o),
(439,716,o),
(378,716,cs),
(173,716,o),
(45,576,o),
(45,354,cs),
(45,127,o),
(173,-16,o),
(378,-16,cs)
);
}
);
width = 672;
},
{
anchors = (
{
name = bottom;
pos = (342,0);
},
{
name = top;
pos = (342,700);
}
);
layerId = m002;
shapes = (
{
closed = 1;
nodes = (
(439,-16,o),
(538,6,o),
(570,41,c),
(610,0,l),
(633,0,l),
(633,200,l),
(608,200,l),
(608,180,ls),
(608,68,o),
(535,17,o),
(378,17,cs),
(247,17,o),
(165,135,o),
(165,354,cs),
(165,568,o),
(247,683,o),
(378,683,cs),
(535,683,o),
(608,632,o),
(608,520,cs),
(608,500,l),
(633,500,l),
(633,700,l),
(610,700,l),
(570,659,l),
(538,694,o),
(439,716,o),
(378,716,cs),
(173,716,o),
(45,576,o),
(45,354,cs),
(45,127,o),
(173,-16,o),
(378,-16,cs)
);
}
);
width = 683;
}
);
metricLeft = O;
unicode = 67;
},
{
glyphname = D;
lastChange = "2024-03-26 18:24:34 +0000";
layers = (
{
anchors = (
{
name = bottom;
pos = (377,0);
},
{
name = center;
pos = (377,350);
},
{
name = top;
pos = (377,700);
}
);
layerId = m01;
shapes = (
{
closed = 1;
nodes = (
(113,48,ls),
(113,24,o),
(97,10,o),
(68,10,cs),
(25,10,l),
(25,0,l),
(213,0,l),
(213,700,l),
(25,700,l),
(25,690,l),
(68,690,ls),
(97,690,o),
(113,676,o),
(113,652,cs)
);
},
{
closed = 1;
nodes = (
(373,700,l),
(575,700,o),
(708,576,o),
(708,354,cs),
(708,126,o),
(575,0,o),
(373,0,cs),
(213,0,l),
(213,10,l),
(373,10,l),
(502,10,o),
(593,133,o),
(593,354,cs),
(593,570,o),
(502,690,o),
(373,690,cs),
(213,690,l),
(213,700,l)
);
}
);
width = 753;
},
{
anchors = (
{
name = bottom;
pos = (382,0);
},
{
name = center;
pos = (382,350);
},
{
name = top;
pos = (382,700);
}
);
layerId = m002;
shapes = (
{
closed = 1;
nodes = (
(113,68,ls),
(113,44,o),
(97,30,o),
(68,30,cs),
(25,30,l),
(25,0,l),
(213,0,l),
(213,700,l),
(25,700,l),
(25,670,l),
(68,670,ls),
(97,670,o),
(113,656,o),
(113,632,cs)
);
},
{
closed = 1;
nodes = (
(373,700,l),
(575,700,o),
(718,576,o),
(718,354,cs),
(718,126,o),
(575,0,o),
(373,0,cs),
(213,0,l),
(213,30,l),
(373,30,l),
(502,30,o),
(603,133,o),
(603,354,cs),
(603,570,o),
(502,670,o),
(373,670,cs),
(213,670,l),
(213,700,l)
);
}
);
width = 763;
}
);
metricLeft = H;
metricRight = O;
unicode = 68;
},
{
glyphname = E;
lastChange = "2024-03-28 13:10:42 +0000";
layers = (
{
anchors = (
{
name = bottom;
pos = (313,0);
},
{
name = ogonek;
pos = (563,10);
},
{
name = top;
pos = (313,700);
},
{
name = topleft;
pos = (20,700);
}
);
layerId = m01;
shapes = (
{
closed = 1;
nodes = (
(213,0,l),
(213,700,l),
(25,700,l),
(25,690,l),
(68,690,ls),
(97,690,o),
(113,676,o),
(113,652,cs),
(113,48,ls),
(113,24,o),
(97,10,o),
(68,10,cs),
(25,10,l),
(25,0,l)
);
},
{
closed = 1;
nodes = (
(566,0,l),
(566,200,l),
(556,200,l),
(556,154,ls),
(556,93,o),
(499,10,o),
(438,10,cs),
(213,10,l),
(213,0,l)
);
},
{
closed = 1;
nodes = (
(465,188,l),
(465,518,l),
(455,518,l),
(455,472,ls),
(455,399,o),
(413,358,o),
(337,358,cs),
(172,358,l),
(172,348,l),
(337,348,ls),
(413,348,o),
(455,307,o),
(455,234,cs),
(455,188,l)
);
},
{
closed = 1;
nodes = (
(566,500,l),
(566,700,l),
(213,700,l),
(213,690,l),
(438,690,ls),
(499,690,o),
(556,607,o),
(556,546,cs),
(556,500,l)
);
}
);
width = 626;
},
{
anchors = (
{
name = bottom;
pos = (313,0);
},
{
name = ogonek;
pos = (563,10);
},
{
name = top;
pos = (313,700);
},
{
name = topleft;
pos = (20,700);
}
);
layerId = m002;
shapes = (
{
closed = 1;
nodes = (
(213,0,l),
(213,700,l),
(25,700,l),
(25,670,l),
(68,670,ls),
(97,670,o),
(113,656,o),
(113,632,cs),
(113,68,ls),
(113,44,o),
(97,30,o),
(68,30,cs),
(25,30,l),
(25,0,l)
);
},
{
closed = 1;
nodes = (
(581,0,l),
(581,200,l),
(556,200,l),
(556,154,ls),
(556,93,o),
(499,30,o),
(438,30,cs),
(213,30,l),
(213,0,l)
);
},
{
closed = 1;
nodes = (
(480,188,l),
(480,518,l),
(455,518,l),
(455,472,ls),
(455,399,o),
(413,368,o),
(337,368,cs),
(172,368,l),
(172,338,l),
(337,338,ls),
(413,338,o),
(455,307,o),
(455,234,cs),
(455,188,l)
);
},
{
closed = 1;
nodes = (
(581,500,l),
(581,700,l),
(213,700,l),
(213,670,l),
(438,670,ls),
(499,670,o),
(556,607,o),
(556,546,cs),
(556,500,l)
);
}
);
width = 626;
}
);
metricLeft = H;
unicode = 69;
},
{
glyphname = F;
lastChange = "2024-03-24 19:34:04 +0000";
layers = (
{
layerId = m01;
shapes = (
{
closed = 1;
nodes = (
(301,0,l),
(301,10,l),
(258,10,ls),
(229,10,o),
(213,24,o),
(213,48,cs),
(213,700,l),
(25,700,l),
(25,690,l),
(68,690,ls),
(97,690,o),
(113,676,o),
(113,652,cs),
(113,48,ls),
(113,24,o),
(97,10,o),
(68,10,cs),
(25,10,l),
(25,0,l)
);
},
{
closed = 1;
nodes = (
(430,188,l),
(430,518,l),
(420,518,l),
(420,472,ls),
(420,399,o),
(378,358,o),
(302,358,cs),
(172,358,l),
(172,348,l),
(302,348,ls),
(378,348,o),
(420,307,o),
(420,234,cs),
(420,188,l)
);
},
{
closed = 1;
nodes = (
(536,500,l),
(536,700,l),
(213,700,l),
(213,690,l),
(408,690,ls),
(469,690,o),
(526,607,o),
(526,546,cs),
(526,500,l)
);
}
);
width = 596;
},
{
associatedMasterId = m01;
layerId = "7C2C1997-1DBE-45AE-9FC5-D42BC3E0163C";
name = "7. Feb. 24, 20:04";
shapes = (
{
closed = 1;
nodes = (
(316,0,l),
(316,10,l),
(273,10,ls),
(244,10,o),
(228,24,o),
(228,48,cs),
(228,700,l),
(40,700,l),
(40,690,l),
(83,690,ls),
(112,690,o),
(128,676,o),
(128,652,cs),
(128,48,ls),
(128,24,o),
(112,10,o),
(83,10,cs),
(40,10,l),
(40,0,l)
);
},
{
closed = 0;
nodes = (
(228,690,l),
(228,700,l)
);
},
{
closed = 1;
nodes = (
(551,500,l),
(551,700,l),
(228,700,l),
(228,690,l),
(423,690,ls),
(484,690,o),
(541,607,o),
(541,546,cs),
(541,500,l)
);
}
);
width = 591;
},
{
layerId = m002;
shapes = (
{
closed = 1;
nodes = (
(301,0,l),
(301,30,l),
(258,30,ls),
(229,30,o),
(213,44,o),
(213,68,cs),
(213,700,l),
(25,700,l),
(25,670,l),
(68,670,ls),
(97,670,o),
(113,656,o),
(113,632,cs),
(113,68,ls),
(113,44,o),
(97,30,o),
(68,30,cs),
(25,30,l),
(25,0,l)
);
},
{
closed = 1;
nodes = (
(445,188,l),
(445,518,l),
(420,518,l),
(420,472,ls),
(420,399,o),
(378,368,o),
(302,368,cs),
(172,368,l),
(172,338,l),
(302,338,ls),
(378,338,o),
(420,307,o),
(420,234,cs),
(420,188,l)
);
},
{
closed = 1;
nodes = (
(551,500,l),
(551,700,l),
(213,700,l),
(213,670,l),
(408,670,ls),
(469,670,o),
(526,607,o),
(526,546,cs),
(526,500,l)
);
}
);
width = 596;
},
{
associatedMasterId = m002;
layerId = "0376895F-FFD4-46AC-BEAE-0D8AEF150080";
name = "7. Feb. 24, 20:04";
shapes = (
{
closed = 1;
nodes = (
(316,0,l),
(316,10,l),
(273,10,ls),
(244,10,o),
(228,24,o),
(228,48,cs),
(228,700,l),
(40,700,l),
(40,690,l),
(83,690,ls),
(112,690,o),
(128,676,o),
(128,652,cs),
(128,48,ls),
(128,24,o),
(112,10,o),
(83,10,cs),
(40,10,l),
(40,0,l)
);
},
{
closed = 0;
nodes = (
(228,690,l),
(228,700,l)
);
},
{
closed = 1;
nodes = (
(551,500,l),
(551,700,l),
(228,700,l),
(228,690,l),
(423,690,ls),
(484,690,o),
(541,607,o),
(541,546,cs),
(541,500,l)
);
}
);
width = 591;
}
);
metricLeft = H;
unicode = 70;
},
{
glyphname = G;
lastChange = "2024-03-26 18:25:13 +0000";
layers = (
{
anchors = (
{
name = bottom;
pos = (361,0);
},
{
name = top;
pos = (361,700);
}
);
layerId = m01;
shapes = (
{
closed = 1;
nodes = (
(455,-16,o),
(517,6,o),
(550,42,c),
(635,0,l),
(643,0,l),
(643,200,l),
(588,200,l),
(588,180,ls),
(588,68,o),
(511,-3,o),
(388,-3,cs),
(251,-3,o),
(165,135,o),
(165,354,cs),
(165,568,o),
(251,703,o),
(388,703,cs),
(523,703,o),
(608,632,o),
(608,520,cs),
(608,500,l),
(621,500,l),
(621,700,l),
(610,700,l),
(572,661,l),
(541,695,o),
(470,716,o),
(388,716,cs),
(177,716,o),
(45,576,o),
(45,354,cs),
(45,127,o),
(177,-16,o),
(388,-16,cs)
);
},
{
closed = 1;
nodes = (
(643,50,l),
(643,252,ls),
(643,275,o),
(664,290,o),
(698,290,cs),
(731,290,l),
(731,300,l),
(455,300,l),
(455,290,l),
(498,290,ls),
(526,290,o),
(543,275,o),
(543,252,cs),
(543,50,l)
);
}
);
width = 721;
},
{
anchors = (
{
name = bottom;
pos = (361,0);
},
{
name = top;
pos = (361,700);
}
);
layerId = m002;
shapes = (
{
closed = 1;
nodes = (
(455,-16,o),
(517,6,o),
(550,42,c),
(635,0,l),
(643,0,l),
(643,200,l),
(588,200,l),
(588,180,ls),
(588,68,o),
(511,17,o),
(388,17,cs),
(251,17,o),
(165,135,o),
(165,354,cs),
(165,568,o),
(251,683,o),
(388,683,cs),
(523,683,o),
(608,632,o),
(608,520,cs),
(608,500,l),
(636,500,l),
(636,700,l),
(610,700,l),
(572,661,l),
(541,695,o),
(470,716,o),
(388,716,cs),
(177,716,o),
(45,576,o),
(45,354,cs),
(45,127,o),
(177,-16,o),
(388,-16,cs)
);
},
{
closed = 1;
nodes = (
(643,50,l),
(643,232,ls),
(643,255,o),
(664,270,o),
(698,270,cs),
(731,270,l),
(731,300,l),
(455,300,l),
(455,270,l),
(498,270,ls),
(526,270,o),
(543,255,o),
(543,232,cs),
(543,50,l)
);
}
);
width = 721;
}
);
metricLeft = O;
unicode = 71;
},
{
glyphname = H;
lastChange = "2024-03-24 19:34:55 +0000";
layers = (
{
associatedMasterId = m01;
layerId = "C92D64D1-CE17-45DC-86F4-98028F41573A";
name = "7. Feb. 24, 16:34";
shapes = (
{
closed = 1;
nodes = (
(128,68,ls),
(128,44,o),
(112,30,o),
(83,30,cs),
(40,30,l),
(40,0,l),
(316,0,l),
(316,30,l),
(283,30,ls),
(248,30,o),
(228,44,o),
(228,68,cs),
(228,632,ls),
(228,656,o),
(248,670,o),
(283,670,cs),
(316,670,l),
(316,700,l),
(40,700,l),
(40,670,l),
(83,670,ls),
(112,670,o),
(128,656,o),
(128,632,cs)
);
},
{
closed = 1;
nodes = (
(577,68,ls),
(577,44,o),
(561,30,o),
(532,30,cs),
(489,30,l),
(489,0,l),
(765,0,l),
(765,30,l),
(732,30,ls),
(697,30,o),
(677,44,o),
(677,68,cs),
(677,632,ls),
(677,656,o),
(697,670,o),
(732,670,cs),
(765,670,l),
(765,700,l),
(489,700,l),
(489,670,l),
(532,670,ls),
(561,670,o),
(577,656,o),
(577,632,cs)
);
},
{
closed = 1;
nodes = (
(186,340,l),
(621,340,l),
(621,375,l),
(186,375,l)
);
}
);
width = 805;
},
{
layerId = m01;
name = Regular;
shapes = (
{
closed = 1;
nodes = (
(113,48,ls),
(113,24,o),
(97,10,o),
(68,10,cs),
(25,10,l),
(25,0,l),
(301,0,l),
(301,10,l),
(268,10,ls),
(233,10,o),
(213,24,o),
(213,48,cs),
(213,652,ls),
(213,676,o),
(233,690,o),
(268,690,c),
(301,690,l),
(301,700,l),
(25,700,l),
(25,690,l),
(68,690,l),
(97,690,o),
(113,676,o),
(113,652,cs)
);
},
{
closed = 1;
nodes = (
(562,48,ls),
(562,24,o),
(546,10,o),
(517,10,cs),
(474,10,l),
(474,0,l),
(750,0,l),
(750,10,l),
(717,10,ls),
(682,10,o),
(662,24,o),
(662,48,cs),
(662,652,ls),
(662,676,o),
(682,690,o),
(717,690,cs),
(750,690,l),
(750,700,l),
(474,700,l),
(474,690,l),
(517,690,ls),
(546,690,o),
(562,676,o),
(562,652,cs)
);
},
{
closed = 1;
nodes = (
(171,350,l),
(606,350,l),
(606,365,l),
(171,365,l)
);
}
);
width = 775;
},
{
associatedMasterId = m002;
layerId = "A4BF7CF5-C9C6-4ECF-A870-E87178F87BC3";
name = "7. Feb. 24, 16:34";
shapes = (
{
closed = 1;
nodes = (
(128,68,ls),
(128,44,o),
(112,30,o),
(83,30,cs),
(40,30,l),
(40,0,l),
(316,0,l),
(316,30,l),
(283,30,ls),
(248,30,o),
(228,44,o),
(228,68,cs),
(228,632,ls),
(228,656,o),
(248,670,o),
(283,670,cs),
(316,670,l),
(316,700,l),
(40,700,l),
(40,670,l),
(83,670,ls),
(112,670,o),
(128,656,o),
(128,632,cs)
);
},
{
closed = 1;
nodes = (
(577,68,ls),
(577,44,o),
(561,30,o),
(532,30,cs),
(489,30,l),
(489,0,l),
(765,0,l),
(765,30,l),
(732,30,ls),
(697,30,o),
(677,44,o),
(677,68,cs),
(677,632,ls),
(677,656,o),
(697,670,o),
(732,670,cs),
(765,670,l),
(765,700,l),
(489,700,l),
(489,670,l),
(532,670,ls),
(561,670,o),
(577,656,o),
(577,632,cs)
);
},
{
closed = 1;
nodes = (
(186,340,l),
(621,340,l),
(621,375,l),
(186,375,l)
);
}
);
width = 805;
},
{
layerId = m002;
name = Regular;
shapes = (
{
closed = 1;
nodes = (
(113,68,ls),
(113,44,o),
(97,30,o),
(68,30,cs),
(25,30,l),
(25,0,l),
(301,0,l),
(301,30,l),
(268,30,ls),
(233,30,o),
(213,44,o),
(213,68,cs),
(213,632,ls),
(213,656,o),
(233,670,o),
(268,670,c),
(301,670,l),
(301,700,l),
(25,700,l),
(25,670,l),
(68,670,l),
(97,670,o),
(113,656,o),
(113,632,cs)
);
},
{
closed = 1;
nodes = (
(562,68,ls),
(562,44,o),
(546,30,o),
(517,30,cs),
(474,30,l),
(474,0,l),
(750,0,l),
(750,30,l),
(717,30,ls),
(682,30,o),
(662,44,o),
(662,68,cs),
(662,632,ls),
(662,656,o),
(682,670,o),
(717,670,cs),
(750,670,l),
(750,700,l),
(474,700,l),
(474,670,l),
(517,670,ls),
(546,670,o),
(562,656,o),
(562,632,cs)
);
},
{
closed = 1;
nodes = (
(171,340,l),
(606,340,l),
(606,375,l),
(171,375,l)
);
}
);
width = 775;
}
);
unicode = 72;
},
{
glyphname = I;
lastChange = "2024-03-26 18:25:28 +0000";
layers = (
{
anchors = (
{
name = bottom;
pos = (163,0);
},
{
name = ogonek;
pos = (293,10);
},
{
name = top;
pos = (163,700);
},
{
name = topleft;
pos = (20,700);
}
);
layerId = m01;
shapes = (
{
closed = 1;
nodes = (
(113,48,ls),
(113,24,o),
(97,10,o),
(68,10,cs),
(25,10,l),
(25,0,l),
(301,0,l),
(301,10,l),
(268,10,ls),
(233,10,o),
(213,24,o),
(213,48,cs),
(213,652,ls),
(213,676,o),
(233,690,o),
(268,690,cs),
(301,690,l),
(301,700,l),
(25,700,l),
(25,690,l),
(68,690,ls),
(97,690,o),
(113,676,o),
(113,652,cs)
);
}
);
width = 326;
},
{
anchors = (
{
name = bottom;
pos = (163,0);
},
{
name = ogonek;
pos = (293,10);
},
{
name = top;
pos = (163,700);
},
{
name = topleft;
pos = (20,700);
}
);
layerId = m002;
shapes = (
{
closed = 1;
nodes = (
(113,68,ls),
(113,44,o),
(97,30,o),
(68,30,cs),
(25,30,l),
(25,0,l),
(301,0,l),
(301,30,l),
(268,30,ls),
(233,30,o),
(213,44,o),
(213,68,cs),
(213,632,ls),
(213,656,o),
(233,670,o),
(268,670,cs),
(301,670,l),
(301,700,l),
(25,700,l),
(25,670,l),
(68,670,ls),
(97,670,o),
(113,656,o),
(113,632,cs)
);
}
);
width = 326;
}
);
metricLeft = H;
metricRight = H;
unicode = 73;
},
{
glyphname = J;
lastChange = "2024-03-28 12:55:09 +0000";
layers = (
{
layerId = m01;
shapes = (
{
closed = 1;
nodes = (
(218,-58,l),
(213,652,ls),
(213,676,o),
(233,690,o),
(268,690,cs),
(301,690,l),
(301,700,l),
(25,700,l),
(25,690,l),
(68,690,ls),
(97,690,o),
(113,676,o),
(113,652,cs),
(117,-16,l),
(117,-73,o),
(191,-67,o),
(191,-132,c)
);
},
{
closed = 1;
nodes = (
(191,-132,l),
(191,-147,o),
(181,-157,o),
(167,-157,cs),
(135,-157,o),
(144,-96,o),
(83,-96,cs),
(47,-96,o),
(21,-120,o),
(21,-155,cs),
(21,-191,o),
(47,-216,o),
(83,-216,cs),
(162,-216,o),
(218,-151,o),
(218,-58,c)
);
}
);
width = 326;
},
{
associatedMasterId = m01;
layerId = "43898585-528D-4030-A3DF-5275F9B6D65B";
name = "21. M채rz 24, 22:03";
shapes = (
{
closed = 1;
nodes = (
(193,48,l),
(193,652,ls),
(193,676,o),
(213,690,o),
(248,690,cs),
(281,690,l),
(281,700,l),
(5,700,l),
(5,690,l),
(48,690,ls),
(77,690,o),
(93,676,o),
(93,652,cs),
(93,48,l)
);
},
{
closed = 1;
nodes = (
(93,-105,o),
(99,-190,o),
(32,-190,c),
(0,-190,l),
(0,-200,l),
(32,-200,ls),
(179,-200,o),
(193,-111,o),
(193,48,c),
(93,48,l)
);
}
);
width = 281;
},
{
associatedMasterId = m01;
layerId = "B5E29EF1-14AE-43B3-A581-278B74F48260";
name = "22. M채rz 24, 19:49";
shapes = (
{
closed = 1;
nodes = (
(218,-90,l),
(213,652,ls),
(213,676,o),
(233,690,o),
(268,690,cs),
(301,690,l),
(301,700,l),
(25,700,l),
(25,690,l),
(68,690,ls),
(97,690,o),
(113,676,o),
(113,652,cs),
(118,-130,l)
);
},
{
closed = 1;
nodes = (
(49,-199,l),
(84,-199,o),
(118,-177,o),
(118,-130,c),
(218,-90,l),
(218,-149,o),
(116,-209,o),
(49,-209,c)
);
},
{
closed = 1;
nodes = (
(208,-58,l),
(208,-98,o),
(193,-126,o),
(158,-126,cs),
(134,-126,o),
(136,-96,o),
(83,-96,cs),
(47,-96,o),
(21,-120,o),
(21,-155,cs),
(21,-191,o),
(47,-216,o),
(83,-216,cs),
(162,-216,o),
(218,-151,o),
(218,-58,c)
);
}
);
width = 331;
},
{
layerId = m002;
shapes = (
{
closed = 1;
nodes = (
(218,-58,l),
(213,632,ls),
(213,656,o),
(233,670,o),
(268,670,cs),
(301,670,l),
(301,700,l),
(25,700,l),
(25,670,l),
(68,670,ls),
(97,670,o),
(113,656,o),
(113,632,cs),
(117,-16,l),
(117,-73,o),
(171,-67,o),
(171,-132,c)
);
},
{
closed = 1;
nodes = (
(171,-132,l),
(171,-147,o),
(161,-157,o),
(147,-157,cs),
(115,-157,o),
(144,-96,o),
(83,-96,cs),
(47,-96,o),
(21,-120,o),
(21,-155,cs),
(21,-191,o),
(47,-216,o),
(83,-216,cs),
(162,-216,o),
(218,-151,o),
(218,-58,c)
);
}
);
width = 326;
},
{
associatedMasterId = m002;
layerId = "31D2DA4A-12B7-4906-A397-A91FEF07B1C7";
name = "21. M채rz 24, 22:03";
shapes = (
{
closed = 1;
nodes = (
(193,48,l),
(193,652,ls),
(193,676,o),
(213,690,o),
(248,690,cs),
(281,690,l),
(281,700,l),
(5,700,l),
(5,690,l),
(48,690,ls),
(77,690,o),
(93,676,o),
(93,652,cs),
(93,48,l)
);
},
{
closed = 1;
nodes = (
(93,-105,o),
(99,-190,o),
(32,-190,c),
(0,-190,l),
(0,-200,l),
(32,-200,ls),
(179,-200,o),
(193,-111,o),
(193,48,c),
(93,48,l)
);
}
);
width = 281;
},
{
associatedMasterId = m002;
layerId = "18C8C351-1B38-412A-A403-C9554EFAB1F0";
name = "22. M채rz 24, 19:49";
shapes = (
{
closed = 1;
nodes = (
(218,-90,l),
(213,652,ls),
(213,676,o),
(233,690,o),
(268,690,cs),
(301,690,l),
(301,700,l),
(25,700,l),
(25,690,l),
(68,690,ls),
(97,690,o),
(113,676,o),
(113,652,cs),
(118,-130,l)
);
},
{
closed = 1;
nodes = (
(49,-199,l),
(84,-199,o),
(118,-177,o),
(118,-130,c),
(218,-90,l),
(218,-149,o),
(116,-209,o),
(49,-209,c)
);
},
{
closed = 1;
nodes = (
(208,-58,l),
(208,-98,o),
(193,-126,o),
(158,-126,cs),
(134,-126,o),
(136,-96,o),
(83,-96,cs),
(47,-96,o),
(21,-120,o),
(21,-155,cs),
(21,-191,o),
(47,-216,o),
(83,-216,cs),
(162,-216,o),
(218,-151,o),
(218,-58,c)
);
}
);
width = 331;
}
);
metricRight = H;
unicode = 74;
},
{
glyphname = K;
lastChange = "2024-03-24 19:35:57 +0000";
layers = (
{
layerId = m01;
shapes = (
{
closed = 1;
nodes = (
(113,48,ls),
(113,24,o),
(97,10,o),
(68,10,cs),
(25,10,l),
(25,0,l),
(301,0,l),
(301,10,l),
(268,10,ls),
(233,10,o),
(213,24,o),
(213,48,cs),
(213,652,ls),
(213,676,o),
(233,690,o),
(268,690,cs),
(301,690,l),
(301,700,l),
(25,700,l),
(25,690,l),
(68,690,ls),
(97,690,o),
(113,676,o),
(113,652,cs)
);
},
{
closed = 1;
nodes = (
(461,700,l),
(461,690,l),
(494,690,ls),
(529,690,o),
(547,659,o),
(528,640,cs),
(163,286,l),
(192,286,l),
(569,652,ls),
(589,671,o),
(607,690,o),
(636,690,cs),
(669,690,l),
(669,700,l)
);
},
{
closed = 1;
nodes = (
(482,48,ls),
(500,24,o),
(490,10,o),
(457,10,cs),
(414,10,l),
(414,0,l),
(695,0,l),
(695,10,l),
(662,10,ls),
(644,10,o),
(625,24,o),
(607,48,cs),
(321,434,l),
(251,361,l)
);
}
);
width = 700;
},
{
layerId = m002;
shapes = (
{
closed = 1;
nodes = (
(113,68,ls),
(113,44,o),
(97,30,o),
(68,30,cs),
(25,30,l),
(25,0,l),
(301,0,l),
(301,30,l),
(268,30,ls),
(233,30,o),
(213,44,o),
(213,68,cs),
(213,632,ls),
(213,656,o),
(233,670,o),
(268,670,cs),
(301,670,l),
(301,700,l),
(25,700,l),
(25,670,l),
(68,670,ls),
(97,670,o),
(113,656,o),
(113,632,cs)
);
},
{
closed = 1;
nodes = (
(461,700,l),
(461,670,l),
(494,670,ls),
(529,670,o),
(538,638,o),
(518,620,cs),
(153,286,l),
(202,286,l),
(579,632,ls),
(599,651,o),
(617,670,o),
(646,670,cs),
(669,670,l),
(669,700,l)
);
},
{
closed = 1;
nodes = (
(482,68,ls),
(501,44,o),
(490,30,o),
(457,30,cs),
(414,30,l),
(414,0,l),
(695,0,l),
(695,30,l),
(662,30,ls),
(644,30,o),
(625,44,o),
(607,68,cs),
(321,434,l),
(251,361,l)
);
}
);
width = 700;
}
);
metricLeft = H;
unicode = 75;
},
{
glyphname = L;
lastChange = "2024-03-26 18:25:51 +0000";
layers = (
{
anchors = (
{
name = bottom;
pos = (315,0);
},
{
name = center;
pos = (315,350);
},
{
name = top;
pos = (315,700);
},
{
name = topright;
pos = (610,700);
}
);
layerId = m01;
shapes = (
{
closed = 1;
nodes = (
(174,0,l),
(590,0,l),
(590,200,l),
(580,200,l),
(580,154,ls),
(580,93,o),
(523,10,o),
(462,10,cs),
(174,10,l)
);
},
{
closed = 1;
nodes = (
(113,48,ls),
(113,24,o),
(97,10,o),
(68,10,cs),
(25,10,l),
(25,0,l),
(213,0,l),
(213,652,ls),
(213,676,o),
(233,690,o),
(268,690,cs),
(301,690,l),
(301,700,l),
(25,700,l),
(25,690,l),
(68,690,ls),
(97,690,o),
(113,676,o),
(113,652,cs)
);
}
);
width = 630;
},
{
anchors = (
{
name = bottom;
pos = (315,0);
},
{
name = center;
pos = (315,350);
},
{
name = top;
pos = (315,700);
},
{
name = topright;
pos = (610,700);
}
);
layerId = m002;
shapes = (
{
closed = 1;
nodes = (
(174,0,l),
(590,0,l),
(590,200,l),
(565,200,l),
(565,154,ls),
(565,93,o),
(523,30,o),
(462,30,cs),
(174,30,l)
);
},
{
closed = 1;
nodes = (
(113,68,ls),
(113,44,o),
(97,30,o),
(68,30,cs),
(25,30,l),
(25,0,l),
(213,0,l),
(213,632,ls),
(213,656,o),
(233,670,o),
(268,670,cs),
(301,670,l),
(301,700,l),
(25,700,l),
(25,670,l),
(68,670,ls),
(97,670,o),
(113,656,o),
(113,632,cs)
);
}
);
width = 630;
}
);
metricLeft = H;
unicode = 76;
},
{
glyphname = M;
lastChange = "2024-03-24 19:37:29 +0000";
layers = (
{
layerId = m01;
shapes = (
{
closed = 1;
nodes = (
(478,154,l),
(218,700,l),
(81,700,l),
(418,1,l)
);
},
{
closed = 1;
nodes = (
(213,0,l),
(213,10,l),
(178,10,ls),
(141,10,o),
(120,24,o),
(120,48,cs),
(120,652,l),
(120,700,l),
(5,700,l),
(5,690,l),
(51,690,ls),
(82,690,o),
(99,676,o),
(99,652,cs),
(99,48,ls),
(99,24,o),
(82,10,o),
(51,10,cs),
(5,10,l),
(5,0,l)
);
},
{
closed = 1;
nodes = (
(418,1,l),
(738,700,l),
(714,700,l),
(418,52,l),
(418,30,l)
);
},
{
closed = 1;
nodes = (
(714,48,ls),
(714,24,o),
(697,10,o),
(667,10,cs),
(621,10,l),
(621,0,l),
(914,0,l),
(914,10,l),
(879,10,ls),
(842,10,o),
(821,24,o),
(821,48,cs),
(821,652,ls),
(821,676,o),
(842,690,o),
(879,690,cs),
(914,690,l),
(914,700,l),
(714,700,l),
(714,652,l)
);
}
);
width = 939;
},
{
layerId = m002;
shapes = (
{
closed = 1;
nodes = (
(478,154,l),
(218,700,l),
(81,700,l),
(418,1,l)
);
},
{
closed = 1;
nodes = (
(213,0,l),
(213,30,l),
(178,30,ls),
(141,30,o),
(130,44,o),
(130,68,cs),
(130,652,l),
(120,700,l),
(5,700,l),
(5,670,l),
(51,670,ls),
(82,670,o),
(89,656,o),
(89,632,cs),
(89,68,ls),
(89,44,o),
(82,30,o),
(51,30,cs),
(5,30,l),
(5,0,l)
);
},
{
closed = 1;
nodes = (
(418,1,l),
(758,700,l),
(714,700,l),
(418,72,l),
(418,30,l)
);
},
{
closed = 1;
nodes = (
(714,68,ls),
(714,44,o),
(697,30,o),
(667,30,cs),
(621,30,l),
(621,0,l),
(914,0,l),
(914,30,l),
(879,30,ls),
(842,30,o),
(821,44,o),
(821,68,cs),
(821,632,ls),
(821,656,o),
(842,670,o),
(879,670,cs),
(914,670,l),
(914,700,l),
(714,700,l),
(714,652,l)
);
}
);
width = 939;
}
);
metricLeft = N;
metricRight = H;
unicode = 77;
},
{
glyphname = N;
lastChange = "2024-03-26 18:26:06 +0000";
layers = (
{
anchors = (
{
name = bottom;
pos = (353,0);
},
{
name = top;
pos = (353,700);
}
);
background = {
shapes = (
{
closed = 1;
nodes = (
(93,48,ls),
(93,24,o),
(77,10,o),
(48,10,cs),
(5,10,l),
(5,0,l),
(281,0,l),
(281,10,l),
(248,10,ls),
(213,10,o),
(193,24,o),
(193,48,cs),
(193,652,ls),
(193,676,o),
(213,690,o),
(248,690,cs),
(281,690,l),
(281,700,l),
(5,700,l),
(5,690,l),
(48,690,ls),
(77,690,o),
(93,676,o),
(93,652,cs)
);
},
{
closed = 1;
nodes = (
(552,48,ls),
(552,24,o),
(536,10,o),
(507,10,cs),
(464,10,l),
(464,0,l),
(740,0,l),
(740,10,l),
(707,10,ls),
(672,10,o),
(652,24,o),
(652,48,cs),
(652,652,ls),
(652,676,o),
(672,690,o),
(707,690,cs),
(740,690,l),
(740,700,l),
(464,700,l),
(464,690,l),
(507,690,ls),
(536,690,o),
(552,676,o),
(552,652,cs)
);
},
{
closed = 1;
nodes = (
(151,350,l),
(596,350,l),
(596,365,l),
(151,365,l)
);
}
);
};
layerId = m01;
shapes = (
{
closed = 1;
nodes = (
(613,184,l),
(201,700,l),
(69,700,l),
(613,1,l)
);
},
{
closed = 1;
nodes = (
(201,0,l),
(201,10,l),
(168,10,ls),
(133,10,o),
(113,24,o),
(113,48,cs),
(113,652,l),
(113,700,l),
(5,700,l),
(5,690,l),
(48,690,ls),
(77,690,o),
(93,676,o),
(93,652,cs),
(93,48,ls),
(93,24,o),
(77,10,o),
(48,10,cs),
(5,10,l),
(5,0,l)
);
},
{
closed = 1;
nodes = (
(613,0,l),
(613,652,ls),
(613,676,o),
(633,690,o),
(668,690,cs),
(701,690,l),
(701,700,l),
(505,700,l),
(505,690,l),
(548,690,ls),
(577,690,o),
(593,676,o),
(593,652,cs),
(593,48,l),
(593,30,l)
);
}
);
width = 706;
},
{
anchors = (
{
name = bottom;
pos = (353,0);
},
{
name = top;
pos = (353,700);
}
);
background = {
shapes = (
{
closed = 1;
nodes = (
(93,48,ls),
(93,24,o),
(77,10,o),
(48,10,cs),
(5,10,l),
(5,0,l),
(281,0,l),
(281,10,l),
(248,10,ls),
(213,10,o),
(193,24,o),
(193,48,cs),
(193,652,ls),
(193,676,o),
(213,690,o),
(248,690,cs),
(281,690,l),
(281,700,l),
(5,700,l),
(5,690,l),
(48,690,ls),
(77,690,o),
(93,676,o),
(93,652,cs)
);
},
{
closed = 1;
nodes = (
(552,48,ls),
(552,24,o),
(536,10,o),
(507,10,cs),
(464,10,l),
(464,0,l),
(740,0,l),
(740,10,l),
(707,10,ls),
(672,10,o),
(652,24,o),
(652,48,cs),
(652,652,ls),
(652,676,o),
(672,690,o),
(707,690,cs),
(740,690,l),
(740,700,l),
(464,700,l),
(464,690,l),
(507,690,ls),
(536,690,o),
(552,676,o),
(552,652,cs)
);
},
{
closed = 1;
nodes = (
(151,350,l),
(596,350,l),
(596,365,l),
(151,365,l)
);
}
);
};
layerId = m002;
shapes = (
{
closed = 1;
nodes = (
(613,184,l),
(201,700,l),
(69,700,l),
(613,1,l)
);
},
{
closed = 1;
nodes = (
(201,0,l),
(201,30,l),
(168,30,ls),
(133,30,o),
(123,44,o),
(123,68,cs),
(123,652,l),
(113,700,l),
(5,700,l),
(5,670,l),
(48,670,ls),
(77,670,o),
(83,656,o),
(83,632,cs),
(83,68,ls),
(83,44,o),
(77,30,o),
(48,30,cs),
(5,30,l),
(5,0,l)
);
},
{
closed = 1;
nodes = (
(623,0,l),
(623,632,ls),
(623,656,o),
(633,670,o),
(668,670,cs),
(701,670,l),
(701,700,l),
(505,700,l),
(505,670,l),
(548,670,ls),
(577,670,o),
(583,656,o),
(583,632,cs),
(583,48,l),
(613,0,l)
);
}
);
width = 706;
}
);
unicode = 78;
},
{
glyphname = O;
lastChange = "2024-03-28 13:20:54 +0000";
layers = (
{
anchors = (
{
name = bottom;
pos = (378,0);
},
{
name = center;
pos = (378,350);
},
{
name = ogonek;
pos = (680,10);
},
{
name = top;
pos = (378,610);
},
{
name = topleft;
pos = (20,700);
},
{
name = topright;
pos = (735,700);
}
);
layerId = m01;
shapes = (
{
closed = 1;
nodes = (
(578,-16,o),
(710,123,o),
(710,354,cs),
(710,584,o),
(578,716,o),
(378,716,cs),
(177,716,o),
(45,584,o),
(45,354,cs),
(45,123,o),
(177,-16,o),
(378,-16,cs)
);
},
{
closed = 1;
nodes = (
(241,-6,o),
(165,123,o),
(165,354,cs),
(165,580,o),
(241,706,o),
(378,706,cs),
(527,706,o),
(590,580,o),
(590,354,cs),
(590,123,o),
(527,-6,o),
(378,-6,cs)
);
}
);
width = 755;
},
{
anchors = (
{
name = bottom;
pos = (378,0);
},
{
name = center;
pos = (378,350);
},
{
name = ogonek;
pos = (680,10);
},
{
name = top;
pos = (378,616);
},
{
name = topleft;
pos = (20,700);
},
{
name = topright;
pos = (735,700);
}
);
layerId = m002;
shapes = (
{
closed = 1;
nodes = (
(578,-16,o),
(710,123,o),
(710,354,cs),
(710,584,o),
(578,716,o),
(378,716,cs),
(177,716,o),
(45,584,o),
(45,354,cs),
(45,123,o),
(177,-16,o),
(378,-16,cs)
);
},
{
closed = 1;
nodes = (
(241,14,o),
(165,123,o),
(165,354,cs),
(165,580,o),
(241,686,o),
(378,686,cs),
(527,686,o),
(590,580,o),
(590,354,cs),
(590,123,o),
(527,14,o),
(378,14,cs)
);
}
);
width = 755;
}
);
unicode = 79;
},
{
color = 1;
glyphname = OE;
lastChange = "2024-03-28 13:23:22 +0000";
layers = (
{
layerId = m01;
shapes = (
{
closed = 1;
nodes = (
(578,-16,o),
(710,123,o),
(710,354,cs),
(710,584,o),
(588,716,o),
(378,716,cs),
(177,716,o),
(45,584,o),
(45,354,cs),
(45,123,o),
(177,-16,o),
(378,-16,cs)
);
},
{
closed = 1;
nodes = (
(241,-6,o),
(165,123,o),
(165,354,cs),
(165,580,o),
(241,706,o),
(378,706,cs),
(527,706,o),
(590,580,o),
(590,354,cs),
(590,123,o),
(527,-6,o),
(378,-6,cs)
);
},
{
closed = 1;
nodes = (
(981,0,l),
(981,200,l),
(976,200,l),
(976,154,ls),
(976,93,o),
(899,10,o),
(838,10,cs),
(473,10,l),
(473,0,l)
);
},
{
closed = 1;
nodes = (
(880,188,l),
(880,518,l),
(875,518,l),
(875,472,ls),
(875,399,o),
(813,358,o),
(737,358,cs),
(622,358,l),
(622,348,l),
(737,348,ls),
(813,348,o),
(875,307,o),
(875,234,cs),
(875,188,l)
);
},
{
closed = 1;
nodes = (
(981,500,l),
(981,700,l),
(483,700,l),
(483,690,l),
(838,690,ls),
(899,690,o),
(976,607,o),
(976,546,cs),
(976,500,l)
);
}
);
width = 1041;
},
{
layerId = m002;
shapes = (
{
closed = 1;
nodes = (
(578,-16,o),
(710,123,o),
(710,354,cs),
(710,584,o),
(588,716,o),
(378,716,cs),
(177,716,o),
(45,584,o),
(45,354,cs),
(45,123,o),
(177,-16,o),
(378,-16,cs)
);
},
{
closed = 1;
nodes = (
(241,14,o),
(165,123,o),
(165,354,cs),
(165,580,o),
(241,686,o),
(378,686,cs),
(527,686,o),
(590,580,o),
(590,354,cs),
(590,123,o),
(527,14,o),
(378,14,cs)
);
},
{
closed = 1;
nodes = (
(981,0,l),
(981,200,l),
(956,200,l),
(956,154,ls),
(956,93,o),
(899,30,o),
(838,30,cs),
(473,30,l),
(473,0,l)
);
},
{
closed = 1;
nodes = (
(880,188,l),
(880,518,l),
(855,518,l),
(855,472,ls),
(855,399,o),
(813,368,o),
(737,368,cs),
(622,368,l),
(622,338,l),
(737,338,ls),
(813,338,o),
(855,307,o),
(855,234,cs),
(855,188,l)
);
},
{
closed = 1;
nodes = (
(981,500,l),
(981,700,l),
(483,700,l),
(483,670,l),
(838,670,ls),
(899,670,o),
(956,607,o),
(956,546,cs),
(956,500,l)
);
}
);
width = 1026;
}
);
metricLeft = O;
metricRight = E;
unicode = 338;
},
{
glyphname = P;
lastChange = "2024-03-24 19:38:53 +0000";
layers = (
{
layerId = m01;
shapes = (
{
closed = 1;
nodes = (
(301,0,l),
(301,10,l),
(258,10,ls),
(229,10,o),
(213,24,o),
(213,48,cs),
(213,700,l),
(25,700,l),
(25,690,l),
(68,690,ls),
(97,690,o),
(113,676,o),
(113,652,cs),
(113,48,ls),
(113,24,o),
(97,10,o),
(68,10,cs),
(25,10,l),
(25,0,l)
);
},
{
closed = 1;
nodes = (
(343,328,ls),
(475,328,o),
(558,401,o),
(558,515,cs),
(558,627,o),
(475,700,o),
(343,700,cs),
(213,700,l),
(213,690,l),
(343,690,ls),
(401,690,o),
(443,621,o),
(443,515,cs),
(443,408,o),
(401,338,o),
(343,338,cs),
(213,338,l),
(213,328,l)
);
}
);
width = 583;
},
{
layerId = m002;
shapes = (
{
closed = 1;
nodes = (
(301,0,l),
(301,30,l),
(258,30,ls),
(229,30,o),
(213,44,o),
(213,68,cs),
(213,700,l),
(25,700,l),
(25,670,l),
(68,670,ls),
(97,670,o),
(113,656,o),
(113,632,cs),
(113,68,ls),
(113,44,o),
(97,30,o),
(68,30,cs),
(25,30,l),
(25,0,l)
);
},
{
closed = 1;
nodes = (
(343,318,ls),
(475,318,o),
(558,401,o),
(558,515,cs),
(558,627,o),
(475,700,o),
(343,700,cs),
(213,700,l),
(213,670,l),
(343,670,ls),
(401,670,o),
(443,621,o),
(443,515,cs),
(443,408,o),
(401,348,o),
(343,348,cs),
(213,348,l),
(213,318,l)
);
}
);
width = 583;
}
);
metricLeft = H;
unicode = 80;
},
{
color = 1;
glyphname = Thorn;
lastChange = "2024-03-28 13:56:46 +0000";
layers = (
{
layerId = m01;
shapes = (
{
closed = 1;
nodes = (
(98,-152,ls),
(98,-176,o),
(82,-190,o),
(53,-190,cs),
(10,-190,l),
(10,-200,l),
(198,-200,l),
(198,700,l),
(10,700,l),
(10,690,l),
(53,690,ls),
(82,690,o),
(98,676,o),
(98,652,cs)
);
},
{
closed = 1;
nodes = (
(328,0,ls),
(460,0,o),
(543,95,o),
(543,232,cs),
(543,367,o),
(460,450,o),
(328,450,cs),
(198,450,l),
(198,440,l),
(328,440,ls),
(386,440,o),
(428,360,o),
(428,232,cs),
(428,103,o),
(386,10,o),
(328,10,cs),
(198,10,l),
(198,0,l)
);
}
);
width = 600;
},
{
layerId = m002;
shapes = (
{
closed = 1;
nodes = (
(98,-132,ls),
(98,-156,o),
(82,-170,o),
(53,-170,cs),
(10,-170,l),
(10,-200,l),
(198,-200,l),
(198,700,l),
(10,700,l),
(10,670,l),
(53,670,ls),
(82,670,o),
(98,656,o),
(98,632,cs)
);
},
{
closed = 1;
nodes = (
(328,0,ls),
(460,0,o),
(543,100,o),
(543,237,cs),
(543,372,o),
(460,460,o),
(328,460,cs),
(198,460,l),
(198,430,l),
(328,430,ls),
(386,430,o),
(428,365,o),
(428,237,cs),
(428,108,o),
(386,30,o),
(328,30,cs),
(198,30,l),
(198,0,l)
);
}
);
width = 568;
}
);
metricRight = P;
unicode = 222;
},
{
glyphname = Q;
lastChange = "2024-03-24 19:39:18 +0000";
layers = (
{
layerId = m01;
shapes = (
{
closed = 1;
nodes = (
(578,-16,o),
(710,123,o),
(710,354,cs),
(710,584,o),
(578,716,o),
(378,716,cs),
(177,716,o),
(45,584,o),
(45,354,cs),
(45,123,o),
(177,-16,o),
(378,-16,cs)
);
},
{
closed = 1;
nodes = (
(241,-6,o),
(165,123,o),
(165,354,cs),
(165,580,o),
(241,706,o),
(378,706,cs),
(527,706,o),
(590,580,o),
(590,354,cs),
(590,123,o),
(527,-6,o),
(378,-6,cs)
);
},
{
closed = 1;
nodes = (
(344,148,o),
(369,111,o),
(373,45,c),
(383,-102,l),
(389,-165,o),
(411,-200,o),
(462,-200,cs),
(576,-200,l),
(576,-190,l),
(533,-190,l),
(504,-190,o),
(492,-159,o),
(488,-102,cs),
(478,45,l),
(474,118,o),
(409,158,o),
(280,158,c),
(280,148,l)
);
}
);
width = 755;
},
{
layerId = m002;
shapes = (
{
closed = 1;
nodes = (
(578,-16,o),
(710,123,o),
(710,354,cs),
(710,584,o),
(578,716,o),
(378,716,cs),
(177,716,o),
(45,584,o),
(45,354,cs),
(45,123,o),
(177,-16,o),
(378,-16,cs)
);
},
{
closed = 1;
nodes = (
(241,14,o),
(165,123,o),
(165,354,cs),
(165,580,o),
(241,686,o),
(378,686,cs),
(527,686,o),
(590,580,o),
(590,354,cs),
(590,123,o),
(527,14,o),
(378,14,cs)
);
},
{
closed = 1;
nodes = (
(344,128,o),
(369,111,o),
(373,45,c),
(383,-102,l),
(389,-165,o),
(411,-200,o),
(462,-200,cs),
(576,-200,l),
(576,-170,l),
(533,-170,l),
(504,-170,o),
(492,-159,o),
(488,-102,cs),
(478,45,l),
(474,118,o),
(409,158,o),
(280,158,c),
(280,128,l)
);
}
);
width = 755;
}
);
metricLeft = O;
metricRight = O;
unicode = 81;
},
{
glyphname = R;
lastChange = "2024-03-26 18:27:56 +0000";
layers = (
{
anchors = (
{
name = bottom;
pos = (340,0);
},
{
name = top;
pos = (340,700);
}
);
layerId = m01;
shapes = (
{
closed = 1;
nodes = (
(301,0,l),
(301,10,l),
(258,10,ls),
(229,10,o),
(213,24,o),
(213,48,cs),
(213,700,l),
(25,700,l),
(25,690,l),
(68,690,ls),
(97,690,o),
(113,676,o),
(113,652,cs),
(113,48,ls),
(113,24,o),
(97,10,o),
(68,10,cs),
(25,10,l),
(25,0,l)
);
},
{
closed = 1;
nodes = (
(343,348,ls),
(481,348,o),
(578,421,o),
(578,525,cs),
(578,627,o),
(481,700,o),
(343,700,cs),
(213,700,l),
(213,690,l),
(343,690,ls),
(413,690,o),
(463,622,o),
(463,525,cs),
(463,427,o),
(413,358,o),
(343,358,cs),
(213,358,l),
(213,348,l)
);
},
{
closed = 1;
nodes = (
(376,348,o),
(385,311,o),
(403,245,c),
(441,112,l),
(459,49,o),
(480,0,o),
(542,0,cs),
(669,0,l),
(669,10,l),
(641,10,l),
(606,10,o),
(587,46,o),
(569,103,c),
(531,219,l),
(513,292,o),
(454,358,o),
(299,358,c),
(299,348,l)
);
}
);
width = 679;
},
{
anchors = (
{
name = bottom;
pos = (340,0);
},
{
name = top;
pos = (340,700);
}
);
layerId = m002;
shapes = (
{
closed = 1;
nodes = (
(301,0,l),
(301,30,l),
(258,30,ls),
(229,30,o),
(213,44,o),
(213,68,cs),
(213,700,l),
(25,700,l),
(25,670,l),
(68,670,ls),
(97,670,o),
(113,656,o),
(113,632,cs),
(113,68,ls),
(113,44,o),
(97,30,o),
(68,30,cs),
(25,30,l),
(25,0,l)
);
},
{
closed = 1;
nodes = (
(343,338,ls),
(475,338,o),
(578,411,o),
(578,525,cs),
(578,637,o),
(475,700,o),
(343,700,cs),
(213,700,l),
(213,670,l),
(343,670,ls),
(401,670,o),
(463,631,o),
(463,525,cs),
(463,418,o),
(401,368,o),
(343,368,cs),
(213,368,l),
(213,338,l)
);
},
{
closed = 1;
nodes = (
(385,338,o),
(394,311,o),
(411,245,c),
(448,112,l),
(465,49,o),
(486,0,o),
(545,0,cs),
(669,0,l),
(669,30,l),
(642,30,l),
(608,30,o),
(590,46,o),
(572,103,c),
(535,219,l),
(517,292,o),
(460,358,o),
(310,358,c),
(310,338,l)
);
}
);
width = 679;
}
);
metricLeft = H;
unicode = 82;
},
{
glyphname = S;
lastChange = "2024-03-26 18:28:07 +0000";
layers = (
{
associatedMasterId = m01;
background = {
shapes = (
{
closed = 0;
nodes = (
(-10,486,l),
(516,71,l)
);
},
{
closed = 0;
nodes = (
(-10,633,l),
(516,218,l)
);
}
);
};
layerId = "1ADA7695-6A5C-49B4-96B7-0B89F590FF03";
name = "6. Feb. 24, 20:54";
shapes = (
{
closed = 1;
nodes = (
(373,-16,o),
(468,67,o),
(468,184,cs),
(468,259,o),
(413,304,o),
(341,358,c),
(183,490,l),
(141,526,o),
(115,564,o),
(116,596,cs),
(117,654,o),
(173,696,o),
(250,696,cs),
(357,696,o),
(430,634,o),
(430,520,cs),
(430,500,l),
(440,500,l),
(440,700,l),
(432,700,l),
(391,663,l),
(358,699,o),
(300,716,o),
(250,716,cs),
(141,716,o),
(66,633,o),
(66,516,cs),
(66,460,o),
(111,399,o),
(183,344,c),
(341,212,l),
(386,181,o),
(419,146,o),
(418,104,cs),
(417,46,o),
(341,4,o),
(248,4,cs),
(155,4,o),
(78,66,o),
(78,180,cs),
(78,200,l),
(68,200,l),
(68,0,l),
(76,0,l),
(117,37,l),
(150,1,o),
(202,-16,o),
(248,-16,cs)
);
}
);
width = 534;
},
{
associatedMasterId = m01;
background = {
shapes = (
{
closed = 0;
nodes = (
(-10,486,l),
(516,71,l)
);
},
{
closed = 0;
nodes = (
(-10,633,l),
(516,218,l)
);
}
);
};
layerId = "EFC3FEC0-9F7D-4494-AF9E-CCC3211D6723";
name = "6. Feb. 24, 20:56";
shapes = (
{
closed = 1;
nodes = (
(373,-16,o),
(468,57,o),
(468,174,cs),
(468,249,o),
(402,286,o),
(341,348,c),
(183,500,l),
(142,540,o),
(115,574,o),
(116,606,cs),
(117,664,o),
(173,696,o),
(250,696,cs),
(357,696,o),
(430,634,o),
(430,520,cs),
(430,500,l),
(440,500,l),
(440,700,l),
(432,700,l),
(391,663,l),
(358,699,o),
(300,716,o),
(250,716,cs),
(141,716,o),
(66,643,o),
(66,526,cs),
(66,470,o),
(114,417,o),
(183,354,c),
(341,202,l),
(381,164,o),
(419,136,o),
(418,94,cs),
(417,36,o),
(341,4,o),
(248,4,cs),
(155,4,o),
(78,66,o),
(78,180,cs),
(78,200,l),
(68,200,l),
(68,0,l),
(76,0,l),
(117,37,l),
(150,1,o),
(202,-16,o),
(248,-16,cs)
);
}
);
width = 534;
},
{
associatedMasterId = m01;
background = {
shapes = (
{
closed = 0;
nodes = (
(-10,486,l),
(516,71,l)
);
},
{
closed = 0;
nodes = (
(-10,633,l),
(516,218,l)
);
}
);
};
layerId = "C8704530-906E-4CC4-B341-72F50E62FC67";
name = "6. Feb. 24, 20:57";
shapes = (
{
closed = 1;
nodes = (
(383,-16,o),
(468,57,o),
(468,174,cs),
(468,234,o),
(419,309,o),
(341,368,c),
(183,480,l),
(140,514,o),
(115,563,o),
(116,606,cs),
(117,661,o),
(169,696,o),
(250,696,cs),
(361,696,o),
(430,628,o),
(430,520,cs),
(430,500,l),
(440,500,l),
(440,700,l),
(432,700,l),
(391,663,l),
(361,696,o),
(307,716,o),
(250,716,cs),
(137,716,o),
(66,643,o),
(66,526,cs),
(66,463,o),
(111,389,o),
(183,334,c),
(341,222,l),
(389,186,o),
(419,136,o),
(418,94,cs),
(417,39,o),
(351,4,o),
(248,4,cs),
(144,4,o),
(78,72,o),
(78,180,cs),
(78,200,l),
(68,200,l),
(68,0,l),
(76,0,l),
(117,37,l),
(147,4,o),
(197,-16,o),
(248,-16,cs)
);
}
);
width = 534;
},
{
associatedMasterId = m01;
background = {
shapes = (
{
closed = 0;
nodes = (
(-15,486,l),
(511,71,l)
);
},
{
closed = 0;
nodes = (
(-15,633,l),
(511,218,l)
);
}
);
};
layerId = "40996C42-A658-4161-B622-CD3A6AFC1B06";
name = "7. Feb. 24, 15:52";
shapes = (
{
closed = 1;
nodes = (
(415,-16,o),
(498,57,o),
(498,174,cs),
(498,241,o),
(445,319,o),
(361,376,cs),
(222,469,ls),
(171,503,o),
(139,556,o),
(140,606,cs),
(141,664,o),
(188,701,o),
(262,701,cs),
(380,701,o),
(454,631,o),
(454,520,cs),
(454,500,l),
(465,500,l),
(465,700,l),
(456,700,l),
(413,663,l),
(381,696,o),
(323,716,o),
(262,716,cs),
(142,716,o),
(66,643,o),
(66,526,cs),
(66,452,o),
(126,366,o),
(222,303,cs),
(361,210,l),
(399,185,o),
(421,140,o),
(419,94,cs),
(418,36,o),
(366,-1,o),
(284,-1,cs),
(158,-1,o),
(79,69,o),
(79,180,cs),
(79,200,l),
(67,200,l),
(67,0,l),
(77,0,l),
(125,35,l),
(152,4,o),
(213,-16,o),
(284,-16,cs)
);
}
);
width = 564;
},
{
associatedMasterId = m01;
background = {
shapes = (
{
closed = 0;
nodes = (
(-15,486,l),
(511,71,l)
);
},
{
closed = 0;
nodes = (
(-15,633,l),
(511,218,l)
);
},
{
closed = 1;
nodes = (
(415,-16,o),
(498,57,o),
(498,174,cs),
(498,241,o),
(445,319,o),
(361,376,cs),
(222,469,ls),
(171,503,o),
(139,556,o),
(140,606,cs),
(141,664,o),
(188,701,o),
(262,701,cs),
(380,701,o),
(454,631,o),
(454,520,cs),
(454,500,l),
(465,500,l),
(465,700,l),
(456,700,l),
(413,663,l),
(381,696,o),
(323,716,o),
(262,716,cs),
(142,716,o),
(66,643,o),
(66,526,cs),
(66,452,o),
(126,366,o),
(222,303,cs),
(361,210,l),
(399,185,o),
(421,140,o),
(419,94,cs),
(418,36,o),
(366,-1,o),
(284,-1,cs),
(158,-1,o),
(79,69,o),
(79,180,cs),
(79,200,l),
(67,200,l),
(67,0,l),
(77,0,l),
(125,35,l),
(152,4,o),
(213,-16,o),
(284,-16,cs)
);
}
);
};
layerId = "403793E8-6726-4CA1-A17F-34F47D07C898";
name = "7. Feb. 24, 16:34";
shapes = (
{
closed = 1;
nodes = (
(415,-16,o),
(498,57,o),
(498,174,cs),
(498,384,o),
(140,439,o),
(140,606,cs),
(140,642,o),
(187,681,o),
(262,681,cs),
(368,681,o),
(434,619,o),
(434,520,cs),
(434,500,l),
(465,500,l),
(465,700,l),
(456,700,l),
(413,663,l),
(381,696,o),
(323,716,o),
(262,716,cs),
(142,716,o),
(66,643,o),
(66,526,cs),
(66,300,o),
(419,273,o),
(419,94,cs),
(419,58,o),
(367,19,o),
(284,19,cs),
(170,19,o),
(99,81,o),
(99,180,cs),
(99,200,l),
(67,200,l),
(67,0,l),
(77,0,l),
(125,35,l),
(152,4,o),
(214,-16,o),
(284,-16,cs)
);
}
);
width = 564;
},
{
anchors = (
{
name = bottom;
pos = (261,0);
},
{
name = top;
pos = (261,700);
}
);
background = {
shapes = (
{
closed = 0;
nodes = (
(-36,486,l),
(490,71,l)
);
},
{
closed = 0;
nodes = (
(-36,633,l),
(490,218,l)
);
},
{
closed = 1;
nodes = (
(394,-16,o),
(477,57,o),
(477,174,cs),
(477,241,o),
(424,319,o),
(340,376,cs),
(201,469,ls),
(150,503,o),
(118,556,o),
(119,606,cs),
(120,664,o),
(167,701,o),
(241,701,cs),
(359,701,o),
(433,631,o),
(433,520,cs),
(433,500,l),
(444,500,l),
(444,700,l),
(435,700,l),
(392,663,l),
(360,696,o),
(302,716,o),
(241,716,cs),
(121,716,o),
(45,643,o),
(45,526,cs),
(45,452,o),
(105,366,o),
(201,303,cs),
(340,210,l),
(378,185,o),
(400,140,o),
(398,94,cs),
(397,36,o),
(345,-1,o),
(263,-1,cs),
(137,-1,o),
(58,69,o),
(58,180,cs),
(58,200,l),
(46,200,l),
(46,0,l),
(56,0,l),
(104,35,l),
(131,4,o),
(192,-16,o),
(263,-16,cs)
);
}
);
};
layerId = m01;
name = Regular;
shapes = (
{
closed = 1;
nodes = (
(394,-16,o),
(477,61,o),
(477,184,cs),
(477,394,o),
(119,419,o),
(119,606,cs),
(119,666,o),
(166,703,o),
(241,703,cs),
(353,703,o),
(433,627,o),
(433,520,cs),
(433,500,l),
(446,500,l),
(446,700,l),
(435,700,l),
(390,659,l),
(358,692,o),
(296,716,o),
(241,716,cs),
(121,716,o),
(45,643,o),
(45,526,cs),
(45,300,o),
(398,303,o),
(398,104,cs),
(398,38,o),
(346,-3,o),
(263,-3,cs),
(143,-3,o),
(58,73,o),
(58,180,cs),
(58,200,l),
(45,200,l),
(45,0,l),
(56,0,l),
(105,41,l),
(136,8,o),
(202,-16,o),
(263,-16,cs)
);
}
);
width = 522;
},
{
associatedMasterId = m002;
background = {
shapes = (
{
closed = 0;
nodes = (
(-10,486,l),
(516,71,l)
);
},
{
closed = 0;
nodes = (
(-10,633,l),
(516,218,l)
);
}
);
};
layerId = "557633DF-5611-49DB-87AC-EAF13F548384";
name = "6. Feb. 24, 20:54";
shapes = (
{
closed = 1;
nodes = (
(373,-16,o),
(468,67,o),
(468,184,cs),
(468,259,o),
(413,304,o),
(341,358,c),
(183,490,l),
(141,526,o),
(115,564,o),
(116,596,cs),
(117,654,o),
(173,696,o),
(250,696,cs),
(357,696,o),
(430,634,o),
(430,520,cs),
(430,500,l),
(440,500,l),
(440,700,l),
(432,700,l),
(391,663,l),
(358,699,o),
(300,716,o),
(250,716,cs),
(141,716,o),
(66,633,o),
(66,516,cs),
(66,460,o),
(111,399,o),
(183,344,c),
(341,212,l),
(386,181,o),
(419,146,o),
(418,104,cs),
(417,46,o),
(341,4,o),
(248,4,cs),
(155,4,o),
(78,66,o),
(78,180,cs),
(78,200,l),
(68,200,l),
(68,0,l),
(76,0,l),
(117,37,l),
(150,1,o),
(202,-16,o),
(248,-16,cs)
);
}
);
width = 534;
},
{
associatedMasterId = m002;
background = {
shapes = (
{
closed = 0;
nodes = (
(-10,486,l),
(516,71,l)
);
},
{
closed = 0;
nodes = (
(-10,633,l),
(516,218,l)
);
}
);
};
layerId = "FA2F007B-2CD4-415D-B472-AC08B83D3125";
name = "6. Feb. 24, 20:56";
shapes = (
{
closed = 1;
nodes = (
(373,-16,o),
(468,57,o),
(468,174,cs),
(468,249,o),
(402,286,o),
(341,348,c),
(183,500,l),
(142,540,o),
(115,574,o),
(116,606,cs),
(117,664,o),
(173,696,o),
(250,696,cs),
(357,696,o),
(430,634,o),
(430,520,cs),
(430,500,l),
(440,500,l),
(440,700,l),
(432,700,l),
(391,663,l),
(358,699,o),
(300,716,o),
(250,716,cs),
(141,716,o),
(66,643,o),
(66,526,cs),
(66,470,o),
(114,417,o),
(183,354,c),
(341,202,l),
(381,164,o),
(419,136,o),
(418,94,cs),
(417,36,o),
(341,4,o),
(248,4,cs),
(155,4,o),
(78,66,o),
(78,180,cs),
(78,200,l),
(68,200,l),
(68,0,l),
(76,0,l),
(117,37,l),
(150,1,o),
(202,-16,o),
(248,-16,cs)
);
}
);
width = 534;
},
{
associatedMasterId = m002;
background = {
shapes = (
{
closed = 0;
nodes = (
(-10,486,l),
(516,71,l)
);
},
{
closed = 0;
nodes = (
(-10,633,l),
(516,218,l)
);
}
);
};
layerId = "BEC25EF5-2C41-4D60-8AA5-F71DE77EBF38";
name = "6. Feb. 24, 20:57";
shapes = (
{
closed = 1;
nodes = (
(383,-16,o),
(468,57,o),
(468,174,cs),
(468,234,o),
(419,309,o),
(341,368,c),
(183,480,l),
(140,514,o),
(115,563,o),
(116,606,cs),
(117,661,o),
(169,696,o),
(250,696,cs),
(361,696,o),
(430,628,o),
(430,520,cs),
(430,500,l),
(440,500,l),
(440,700,l),
(432,700,l),
(391,663,l),
(361,696,o),
(307,716,o),
(250,716,cs),
(137,716,o),
(66,643,o),
(66,526,cs),
(66,463,o),
(111,389,o),
(183,334,c),
(341,222,l),
(389,186,o),
(419,136,o),
(418,94,cs),
(417,39,o),
(351,4,o),
(248,4,cs),
(144,4,o),
(78,72,o),
(78,180,cs),
(78,200,l),
(68,200,l),
(68,0,l),
(76,0,l),
(117,37,l),
(147,4,o),
(197,-16,o),
(248,-16,cs)
);
}
);
width = 534;
},
{
associatedMasterId = m002;
background = {
shapes = (
{
closed = 0;
nodes = (
(-15,486,l),
(511,71,l)
);
},
{
closed = 0;
nodes = (
(-15,633,l),
(511,218,l)
);
}
);
};
layerId = "838F3B01-C670-4697-A16E-D42FAB5AF089";
name = "7. Feb. 24, 15:52";
shapes = (
{
closed = 1;
nodes = (
(415,-16,o),
(498,57,o),
(498,174,cs),
(498,241,o),
(445,319,o),
(361,376,cs),
(222,469,ls),
(171,503,o),
(139,556,o),
(140,606,cs),
(141,664,o),
(188,701,o),
(262,701,cs),
(380,701,o),
(454,631,o),
(454,520,cs),
(454,500,l),
(465,500,l),
(465,700,l),
(456,700,l),
(413,663,l),
(381,696,o),
(323,716,o),
(262,716,cs),
(142,716,o),
(66,643,o),
(66,526,cs),
(66,452,o),
(126,366,o),
(222,303,cs),
(361,210,l),
(399,185,o),
(421,140,o),
(419,94,cs),
(418,36,o),
(366,-1,o),
(284,-1,cs),
(158,-1,o),
(79,69,o),
(79,180,cs),
(79,200,l),
(67,200,l),
(67,0,l),
(77,0,l),
(125,35,l),
(152,4,o),
(213,-16,o),
(284,-16,cs)
);
}
);
width = 564;
},
{
associatedMasterId = m002;
background = {
shapes = (
{
closed = 0;
nodes = (
(-15,486,l),
(511,71,l)
);
},
{
closed = 0;
nodes = (
(-15,633,l),
(511,218,l)
);
},
{
closed = 1;
nodes = (
(415,-16,o),
(498,57,o),
(498,174,cs),
(498,241,o),
(445,319,o),
(361,376,cs),
(222,469,ls),
(171,503,o),
(139,556,o),
(140,606,cs),
(141,664,o),
(188,701,o),
(262,701,cs),
(380,701,o),
(454,631,o),
(454,520,cs),
(454,500,l),
(465,500,l),
(465,700,l),
(456,700,l),
(413,663,l),
(381,696,o),
(323,716,o),
(262,716,cs),
(142,716,o),
(66,643,o),
(66,526,cs),
(66,452,o),
(126,366,o),
(222,303,cs),
(361,210,l),
(399,185,o),
(421,140,o),
(419,94,cs),
(418,36,o),
(366,-1,o),
(284,-1,cs),
(158,-1,o),
(79,69,o),
(79,180,cs),
(79,200,l),
(67,200,l),
(67,0,l),
(77,0,l),
(125,35,l),
(152,4,o),
(213,-16,o),
(284,-16,cs)
);
}
);
};
layerId = "797F36F3-F786-4657-BDAD-2D064F56B4B4";
name = "7. Feb. 24, 16:34";
shapes = (
{
closed = 1;
nodes = (
(415,-16,o),
(498,57,o),
(498,174,cs),
(498,384,o),
(140,439,o),
(140,606,cs),
(140,642,o),
(187,681,o),
(262,681,cs),
(368,681,o),
(434,619,o),
(434,520,cs),
(434,500,l),
(465,500,l),
(465,700,l),
(456,700,l),
(413,663,l),
(381,696,o),
(323,716,o),
(262,716,cs),
(142,716,o),
(66,643,o),
(66,526,cs),
(66,300,o),
(419,273,o),
(419,94,cs),
(419,58,o),
(367,19,o),
(284,19,cs),
(170,19,o),
(99,81,o),
(99,180,cs),
(99,200,l),
(67,200,l),
(67,0,l),
(77,0,l),
(125,35,l),
(152,4,o),
(214,-16,o),
(284,-16,cs)
);
}
);
width = 564;
},
{
anchors = (
{
name = bottom;
pos = (269,0);
},
{
name = top;
pos = (269,700);
}
);
background = {
shapes = (
{
closed = 0;
nodes = (
(-26,486,l),
(500,71,l)
);
},
{
closed = 0;
nodes = (
(-26,633,l),
(500,218,l)
);
},
{
closed = 1;
nodes = (
(404,-16,o),
(487,57,o),
(487,174,cs),
(487,241,o),
(434,319,o),
(350,376,cs),
(211,469,ls),
(160,503,o),
(128,556,o),
(129,606,cs),
(130,664,o),
(177,701,o),
(251,701,cs),
(369,701,o),
(443,631,o),
(443,520,cs),
(443,500,l),
(454,500,l),
(454,700,l),
(445,700,l),
(402,663,l),
(370,696,o),
(312,716,o),
(251,716,cs),
(131,716,o),
(55,643,o),
(55,526,cs),
(55,452,o),
(115,366,o),
(211,303,cs),
(350,210,l),
(388,185,o),
(410,140,o),
(408,94,cs),
(407,36,o),
(355,-1,o),
(273,-1,cs),
(147,-1,o),
(68,69,o),
(68,180,cs),
(68,200,l),
(56,200,l),
(56,0,l),
(66,0,l),
(114,35,l),
(141,4,o),
(202,-16,o),
(273,-16,cs)
);
}
);
};
layerId = m002;
name = Regular;
shapes = (
{
closed = 1;
nodes = (
(409,-16,o),
(492,61,o),
(492,184,cs),
(492,394,o),
(124,429,o),
(124,596,cs),
(124,656,o),
(171,683,o),
(246,683,cs),
(358,683,o),
(438,615,o),
(438,520,cs),
(438,500,l),
(466,500,l),
(466,700,l),
(440,700,l),
(395,670,l),
(363,697,o),
(301,716,o),
(246,716,cs),
(126,716,o),
(50,643,o),
(50,526,cs),
(50,300,o),
(413,293,o),
(413,114,cs),
(413,48,o),
(361,17,o),
(278,17,cs),
(164,17,o),
(73,89,o),
(73,180,cs),
(73,200,l),
(45,200,l),
(45,0,l),
(71,0,l),
(120,33,l),
(155,4,o),
(220,-16,o),
(278,-16,cs)
);
}
);
width = 537;
}
);
metricLeft = O;
metricRight = O;
unicode = 83;
},
{
color = 1;
glyphname = Germandbls;
lastChange = "2024-03-28 13:18:27 +0000";
layers = (
{
layerId = m01;
shapes = (
{
closed = 1;
nodes = (
(487,-15,o),
(550,47,o),
(550,125,cs),
(550,282,o),
(326,285,o),
(326,385,cs),
(326,422,o),
(349,451,o),
(376,451,c),
(376,466,l),
(318,466,o),
(270,409,o),
(270,338,cs),
(270,178,o),
(494,178,o),
(494,78,cs),
(494,35,o),
(455,0,o),
(407,0,cs),
(348,0,o),
(301,56,o),
(301,127,c),
(287,127,l),
(287,48,o),
(340,-15,o),
(407,-15,cs)
);
},
{
closed = 1;
nodes = (
(198,0,l),
(197,689,l),
(97,700,l),
(97,48,ls),
(97,27,o),
(78,10,o),
(53,10,cs),
(10,10,l),
(10,0,l)
);
},
{
closed = 1;
nodes = (
(297,-1,l),
(318,41,l),
(301,84,l),
(301,127,l),
(284,127,l),
(284,-1,l)
);
},
{
closed = 1;
nodes = (
(152,442,l),
(152,452,l),
(10,452,l),
(10,442,l)
);
},
{
closed = 1;
nodes = (
(476,451,l),
(476,516,ls),
(476,623,o),
(395,700,o),
(290,700,c),
(97,700,l),
(197,689,l),
(290,689,l),
(340,689,o),
(376,617,o),
(376,516,cs),
(376,451,l)
);
}
);
width = 600;
},
{
layerId = m002;
shapes = (
{
closed = 1;
nodes = (
(477,-15,o),
(550,47,o),
(550,125,cs),
(550,282,o),
(326,295,o),
(326,395,cs),
(326,432,o),
(349,461,o),
(376,461,c),
(376,486,l),
(318,486,o),
(270,419,o),
(270,348,cs),
(270,188,o),
(494,188,o),
(494,88,cs),
(494,45,o),
(455,10,o),
(407,10,cs),
(348,10,o),
(301,56,o),
(301,127,c),
(277,127,l),
(277,48,o),
(330,-15,o),
(397,-15,cs)
);
},
{
closed = 1;
nodes = (
(198,0,l),
(197,677,l),
(97,700,l),
(97,68,ls),
(97,47,o),
(78,30,o),
(53,30,cs),
(10,30,l),
(10,0,l)
);
},
{
closed = 1;
nodes = (
(297,-1,l),
(318,41,l),
(301,84,l),
(301,127,l),
(274,127,l),
(274,-1,l)
);
},
{
closed = 1;
nodes = (
(152,432,l),
(152,462,l),
(10,462,l),
(10,432,l)
);
},
{
closed = 1;
nodes = (
(476,461,l),
(476,526,ls),
(476,633,o),
(395,700,o),
(290,700,c),
(97,700,l),
(197,677,l),
(290,677,l),
(340,677,o),
(376,627,o),
(376,526,cs),
(376,461,l)
);
}
);
width = 600;
}
);
unicode = 7838;
},
{
glyphname = T;
lastChange = "2024-03-26 18:28:20 +0000";
layers = (
{
anchors = (
{
name = bottom;
pos = (312,0);
},
{
name = center;
pos = (312,350);
},
{
name = top;
pos = (312,700);
}
);
layerId = m01;
shapes = (
{
closed = 1;
nodes = (
(450,0,l),
(450,10,l),
(417,10,ls),
(382,10,o),
(362,24,o),
(362,48,cs),
(362,700,l),
(262,700,l),
(262,48,ls),
(262,24,o),
(246,10,o),
(217,10,cs),
(174,10,l),
(174,0,l)
);
},
{
closed = 1;
nodes = (
(25,500,l),
(25,546,ls),
(25,607,o),
(82,690,o),
(143,690,cs),
(481,690,ls),
(542,690,o),
(599,607,o),
(599,546,cs),
(599,500,l),
(609,500,l),
(609,700,l),
(15,700,l),
(15,500,l)
);
}
);
width = 624;
},
{
anchors = (
{
name = bottom;
pos = (312,0);
},
{
name = center;
pos = (312,350);
},
{
name = top;
pos = (312,700);
}
);
layerId = m002;
shapes = (
{
closed = 1;
nodes = (
(450,0,l),
(450,30,l),
(417,30,ls),
(382,30,o),
(362,44,o),
(362,68,cs),
(362,700,l),
(262,700,l),
(262,68,ls),
(262,44,o),
(246,30,o),
(217,30,cs),
(174,30,l),
(174,0,l)
);
},
{
closed = 1;
nodes = (
(45,500,l),
(45,546,ls),
(45,607,o),
(82,670,o),
(143,670,cs),
(481,670,ls),
(542,670,o),
(579,607,o),
(579,546,cs),
(579,500,l),
(609,500,l),
(609,700,l),
(15,700,l),
(15,500,l)
);
}
);
width = 624;
}
);
unicode = 84;
},
{
glyphname = U;
lastChange = "2024-03-26 18:28:31 +0000";
layers = (
{
anchors = (
{
name = bottom;
pos = (356,0);
},
{
name = ogonek;
pos = (640,10);
},
{
name = top;
pos = (356,700);
},
{
name = topright;
pos = (691,700);
}
);
layerId = m01;
shapes = (
{
closed = 1;
nodes = (
(113,228,l),
(213,228,l),
(213,652,ls),
(213,676,o),
(233,690,o),
(268,690,cs),
(301,690,l),
(301,700,l),
(25,700,l),
(25,690,l),
(68,690,ls),
(97,690,o),
(113,676,o),
(113,652,cs)
);
},
{
closed = 1;
nodes = (
(623,228,l),
(623,652,ls),
(623,676,o),
(643,690,o),
(678,690,cs),
(711,690,l),
(711,700,l),
(515,700,l),
(515,690,l),
(558,690,ls),
(587,690,o),
(603,676,o),
(603,652,cs),
(603,228,l)
);
},
{
closed = 1;
nodes = (
(213,86,o),
(274,7,o),
(402,7,cs),
(531,7,o),
(603,86,o),
(603,228,c),
(623,228,l),
(623,73,o),
(544,-13,o),
(402,-13,cs),
(210,-13,o),
(113,73,o),
(113,228,c),
(213,228,l)
);
}
);
width = 711;
},
{
anchors = (
{
name = bottom;
pos = (356,0);
},
{
name = ogonek;
pos = (640,10);
},
{
name = top;
pos = (356,700);
},
{
name = topright;
pos = (691,700);
}
);
layerId = m002;
shapes = (
{
closed = 1;
nodes = (
(113,228,l),
(213,228,l),
(213,632,ls),
(213,656,o),
(233,670,o),
(268,670,cs),
(301,670,l),
(301,700,l),
(25,700,l),
(25,670,l),
(68,670,ls),
(97,670,o),
(113,656,o),
(113,632,cs)
);
},
{
closed = 1;
nodes = (
(633,228,l),
(633,632,ls),
(633,656,o),
(643,670,o),
(678,670,cs),
(711,670,l),
(711,700,l),
(515,700,l),
(515,670,l),
(558,670,ls),
(587,670,o),
(593,656,o),
(593,632,cs),
(593,228,l)
);
},
{
closed = 1;
nodes = (
(213,86,o),
(274,27,o),
(402,27,cs),
(531,27,o),
(593,86,o),
(593,228,c),
(633,228,l),
(633,73,o),
(544,-13,o),
(402,-13,cs),
(210,-13,o),
(113,73,o),
(113,228,c),
(213,228,l)
);
}
);
width = 711;
}
);
metricLeft = H;
unicode = 85;
},
{
glyphname = V;
lastChange = "2024-03-24 19:41:45 +0000";
layers = (
{
layerId = m01;
shapes = (
{
closed = 1;
nodes = (
(491,701,l),
(491,691,l),
(526,691,ls),
(564,691,o),
(594,677,o),
(585,653,cs),
(360,49,l),
(364,1,l),
(382,49,l),
(606,653,ls),
(615,677,o),
(623,691,o),
(654,691,cs),
(700,691,l),
(700,701,l)
);
},
{
closed = 1;
nodes = (
(201,653,ls),
(192,677,o),
(218,691,o),
(249,691,cs),
(295,691,l),
(295,701,l),
(0,701,l),
(0,691,l),
(35,691,ls),
(73,691,o),
(86,677,o),
(94,653,cs),
(308,49,l),
(325,1,l),
(364,1,l),
(395,106,l)
);
}
);
width = 700;
},
{
layerId = m002;
shapes = (
{
closed = 1;
nodes = (
(481,701,l),
(481,671,l),
(516,671,ls),
(554,671,o),
(574,657,o),
(565,633,cs),
(340,49,l),
(364,1,l),
(382,49,l),
(606,633,ls),
(615,657,o),
(613,671,o),
(644,671,cs),
(690,671,l),
(690,701,l)
);
},
{
closed = 1;
nodes = (
(201,633,ls),
(192,657,o),
(218,671,o),
(249,671,cs),
(295,671,l),
(295,701,l),
(0,701,l),
(0,671,l),
(35,671,ls),
(73,671,o),
(85,657,o),
(94,633,cs),
(308,49,l),
(325,1,l),
(364,1,l),
(395,106,l)
);
}
);
width = 700;
}
);
unicode = 86;
},
{
glyphname = W;
lastChange = "2024-03-26 18:28:49 +0000";
layers = (
{
anchors = (
{
name = bottom;
pos = (522,0);
},
{
name = top;
pos = (522,700);
}
);
layerId = m01;
shapes = (
{
closed = 1;
nodes = (
(501,701,l),
(501,691,l),
(538,691,ls),
(576,691,o),
(606,677,o),
(598,653,cs),
(368,49,l),
(371,1,l),
(390,49,l),
(619,653,ls),
(628,677,o),
(637,691,o),
(669,691,cs),
(716,691,l),
(716,701,l)
);
},
{
closed = 1;
nodes = (
(205,653,ls),
(197,677,o),
(223,691,o),
(255,691,cs),
(302,691,l),
(302,701,l),
(0,701,l),
(0,691,l),
(36,691,ls),
(74,691,o),
(87,677,o),
(96,653,cs),
(315,49,l),
(332,1,l),
(371,1,l),
(403,106,l)
);
},
{
closed = 1;
nodes = (
(829,701,l),
(829,691,l),
(865,691,ls),
(904,691,o),
(934,677,o),
(925,653,cs),
(696,49,l),
(699,1,l),
(718,49,l),
(947,653,ls),
(956,677,o),
(965,691,o),
(996,691,cs),
(1043,691,l),
(1043,701,l)
);
},
{
closed = 1;
nodes = (
(533,653,ls),
(524,677,o),
(551,691,o),
(582,691,cs),
(629,691,l),
(629,701,l),
(328,701,l),
(328,691,l),
(364,691,ls),
(402,691,o),
(415,677,o),
(424,653,cs),
(642,49,l),
(660,1,l),
(699,1,l),
(731,106,l)
);
}
);
width = 1043;
},
{
anchors = (
{
name = bottom;
pos = (522,0);
},
{
name = top;
pos = (522,700);
}
);
layerId = m002;
shapes = (
{
closed = 1;
nodes = (
(501,701,l),
(501,671,l),
(538,671,ls),
(576,671,o),
(587,657,o),
(578,633,cs),
(348,49,l),
(371,1,l),
(390,49,l),
(619,633,ls),
(628,657,o),
(637,671,o),
(669,671,cs),
(716,671,l),
(716,701,l)
);
},
{
closed = 1;
nodes = (
(205,633,ls),
(196,657,o),
(223,671,o),
(255,671,cs),
(302,671,l),
(302,701,l),
(0,701,l),
(0,671,l),
(36,671,ls),
(74,671,o),
(87,657,o),
(96,633,cs),
(315,49,l),
(332,1,l),
(371,1,l),
(403,106,l)
);
},
{
closed = 1;
nodes = (
(829,701,l),
(829,671,l),
(865,671,ls),
(904,671,o),
(914,657,o),
(905,633,cs),
(676,49,l),
(699,1,l),
(718,49,l),
(947,633,ls),
(956,657,o),
(965,671,o),
(996,671,cs),
(1043,671,l),
(1043,701,l)
);
},
{
closed = 1;
nodes = (
(533,633,ls),
(524,657,o),
(551,671,o),
(582,671,cs),
(629,671,l),
(629,701,l),
(328,701,l),
(328,671,l),
(364,671,ls),
(402,671,o),
(415,657,o),
(424,633,cs),
(642,49,l),
(660,1,l),
(699,1,l),
(731,106,l)
);
}
);
width = 1043;
}
);
unicode = 87;
},
{
glyphname = X;
lastChange = "2024-03-24 19:42:52 +0000";
layers = (
{
layerId = m01;
shapes = (
{
closed = 1;
nodes = (
(691,0,l),
(691,10,l),
(658,10,ls),
(637,10,o),
(618,24,o),
(603,48,cs),
(386,383,l),
(219,652,ls),
(204,676,o),
(214,690,o),
(244,690,cs),
(287,690,l),
(287,700,l),
(-5,700,l),
(-5,690,l),
(28,690,ls),
(49,690,o),
(68,676,o),
(83,652,cs),
(292,318,l),
(467,48,ls),
(482,24,o),
(473,10,o),
(442,10,cs),
(399,10,l),
(399,0,l)
);
},
{
closed = 1;
nodes = (
(207,0,l),
(207,10,l),
(174,10,ls),
(142,10,o),
(120,25,o),
(136,48,cs),
(360,371,l),
(327,371,l),
(113,48,ls),
(98,25,o),
(84,10,o),
(54,10,cs),
(11,10,l),
(11,0,l)
);
},
{
closed = 1;
nodes = (
(355,341,l),
(549,652,ls),
(564,676,o),
(574,690,o),
(598,690,cs),
(641,690,l),
(641,700,l),
(445,700,l),
(445,690,l),
(478,690,ls),
(517,690,o),
(542,676,o),
(526,652,cs),
(322,341,l)
);
}
);
width = 686;
},
{
layerId = m002;
shapes = (
{
closed = 1;
nodes = (
(691,0,l),
(691,30,l),
(658,30,ls),
(637,30,o),
(619,44,o),
(603,68,cs),
(386,383,l),
(219,632,ls),
(203,656,o),
(214,670,o),
(244,670,cs),
(287,670,l),
(287,700,l),
(-5,700,l),
(-5,670,l),
(28,670,ls),
(49,670,o),
(67,656,o),
(83,632,cs),
(292,318,l),
(467,68,ls),
(483,45,o),
(473,30,o),
(442,30,cs),
(399,30,l),
(399,0,l)
);
},
{
closed = 1;
nodes = (
(207,0,l),
(207,30,l),
(174,30,ls),
(142,30,o),
(129,45,o),
(146,68,cs),
(370,371,l),
(317,371,l),
(103,68,ls),
(87,46,o),
(74,30,o),
(44,30,cs),
(11,30,l),
(11,0,l)
);
},
{
closed = 1;
nodes = (
(362,341,l),
(556,632,ls),
(572,656,o),
(584,670,o),
(608,670,cs),
(641,670,l),
(641,700,l),
(445,700,l),
(445,670,l),
(478,670,ls),
(517,670,o),
(533,656,o),
(516,632,cs),
(312,341,l)
);
}
);
width = 686;
}
);
unicode = 88;
},
{
glyphname = Y;
lastChange = "2024-03-26 18:29:32 +0000";
layers = (
{
anchors = (
{
name = bottom;
pos = (324,0);
},
{
name = top;
pos = (324,611);
},
{
name = topleft;
pos = (20,700);
}
);
layerId = m01;
shapes = (
{
closed = 1;
nodes = (
(379,359,l),
(376,363,l),
(209,652,ls),
(195,676,o),
(204,690,o),
(234,690,cs),
(277,690,l),
(277,700,l),
(-5,700,l),
(-5,690,l),
(28,690,ls),
(49,690,o),
(69,676,o),
(83,652,cs),
(292,298,l),
(294,295,l)
);
},
{
closed = 1;
nodes = (
(359,321,l),
(550,652,ls),
(564,677,o),
(585,690,o),
(609,690,cs),
(652,690,l),
(652,700,l),
(456,700,l),
(456,690,l),
(489,690,ls),
(528,690,o),
(541,677,o),
(527,652,cs),
(336,321,l)
);
},
{
closed = 1;
nodes = (
(279,359,l),
(279,48,ls),
(279,24,o),
(263,10,o),
(234,10,cs),
(191,10,l),
(191,0,l),
(467,0,l),
(467,10,l),
(434,10,ls),
(399,10,o),
(379,24,o),
(379,48,cs),
(379,359,l)
);
}
);
width = 647;
},
{
anchors = (
{
name = bottom;
pos = (324,0);
},
{
name = top;
pos = (324,626);
},
{
name = topleft;
pos = (20,700);
}
);
layerId = m002;
shapes = (
{
closed = 1;
nodes = (
(379,359,l),
(376,363,l),
(209,632,ls),
(194,656,o),
(204,670,o),
(234,670,cs),
(277,670,l),
(277,700,l),
(-5,700,l),
(-5,670,l),
(28,670,ls),
(49,670,o),
(68,656,o),
(83,632,cs),
(292,298,l),
(294,295,l)
);
},
{
closed = 1;
nodes = (
(369,321,l),
(560,632,ls),
(575,657,o),
(585,670,o),
(609,670,cs),
(652,670,l),
(652,700,l),
(456,700,l),
(456,670,l),
(489,670,ls),
(528,670,o),
(532,657,o),
(517,632,cs),
(326,321,l)
);
},
{
closed = 1;
nodes = (
(279,359,l),
(279,68,ls),
(279,44,o),
(263,30,o),
(234,30,cs),
(191,30,l),
(191,0,l),
(467,0,l),
(467,30,l),
(434,30,ls),
(399,30,o),
(379,44,o),
(379,68,cs),
(379,359,l)
);
}
);
width = 647;
}
);
unicode = 89;
},
{
glyphname = Z;
lastChange = "2024-03-26 18:29:53 +0000";
layers = (
{
anchors = (
{
name = bottom;
pos = (322,0);
},
{
name = center;
pos = (322,350);
},
{
name = top;
pos = (322,700);
}
);
layerId = m01;
shapes = (
{
closed = 1;
nodes = (
(71,500,l),
(71,546,ls),
(71,607,o),
(128,690,o),
(189,690,cs),
(527,690,l),
(527,700,l),
(61,700,l),
(61,500,l)
);
},
{
closed = 1;
nodes = (
(567,200,l),
(567,154,ls),
(567,93,o),
(510,10,o),
(449,10,cs),
(81,10,l),
(81,0,l),
(577,0,l),
(577,200,l)
);
},
{
closed = 1;
nodes = (
(595,700,l),
(473,700,l),
(26,0,l),
(148,0,l)
);
}
);
width = 643;
},
{
anchors = (
{
name = bottom;
pos = (322,0);
},
{
name = center;
pos = (322,350);
},
{
name = top;
pos = (322,700);
}
);
layerId = m002;
shapes = (
{
closed = 1;
nodes = (
(71,500,l),
(71,546,ls),
(71,607,o),
(128,670,o),
(189,670,cs),
(527,670,l),
(527,700,l),
(46,700,l),
(46,500,l)
);
},
{
closed = 1;
nodes = (
(567,200,l),
(567,154,ls),
(567,93,o),
(510,30,o),
(449,30,cs),
(81,30,l),
(81,0,l),
(592,0,l),
(592,200,l)
);
},
{
closed = 1;
nodes = (
(595,700,l),
(473,700,l),
(26,0,l),
(148,0,l)
);
}
);
width = 643;
}
);
unicode = 90;
},
{
glyphname = a;
lastChange = "2024-03-25 13:58:53 +0000";
layers = (
{
anchors = (
{
name = bottom;
pos = (262,0);
},
{
name = ogonek;
pos = (380,0);
},
{
name = top;
pos = (263,377);
}
);
layerId = m01;
shapes = (
{
closed = 1;
nodes = (
(327,315,l),
(327,-1,l),
(515,-1,l),
(515,8,l),
(472,8,ls),
(446,8,o),
(427,23,o),
(427,43,cs),
(427,315,l)
);
},
{
closed = 1;
nodes = (
(75,309,o),
(100,286,o),
(136,286,cs),
(171,286,o),
(195,309,o),
(195,342,cs),
(195,390,o),
(165,388,o),
(165,410,cs),
(165,436,o),
(206,455,o),
(263,455,cs),
(300,455,o),
(327,417,o),
(327,315,c),
(427,315,l),
(427,402,o),
(359,464,o),
(263,464,cs),
(153,464,o),
(75,413,o),
(75,342,cs)
);
},
{
closed = 1;
nodes = (
(171,249,o),
(50,200,o),
(50,117,cs),
(50,44,o),
(111,-7,o),
(182,-7,cs),
(306,-7,o),
(356,50,o),
(356,131,c),
(327,131,l),
(327,58,o),
(288,7,o),
(233,7,cs),
(190,7,o),
(150,33,o),
(150,118,cs),
(150,216,o),
(229,240,o),
(327,240,c),
(327,249,l)
);
}
);
width = 525;
},
{
anchors = (
{
name = bottom;
pos = (262,0);
},
{
name = ogonek;
pos = (380,0);
},
{
name = top;
pos = (263,390);
}
);
layerId = m002;
shapes = (
{
closed = 1;
nodes = (
(327,325,l),
(327,-1,l),
(515,-1,l),
(515,28,l),
(472,28,ls),
(446,28,o),
(427,43,o),
(427,63,cs),
(427,325,l)
);
},
{
closed = 1;
nodes = (
(75,319,o),
(100,296,o),
(136,296,cs),
(171,296,o),
(195,309,o),
(195,342,cs),
(195,380,o),
(165,378,o),
(165,400,cs),
(165,426,o),
(206,445,o),
(263,445,cs),
(300,445,o),
(327,427,o),
(327,325,c),
(427,325,l),
(427,412,o),
(359,474,o),
(263,474,cs),
(153,474,o),
(75,423,o),
(75,352,cs)
);
},
{
closed = 1;
nodes = (
(171,269,o),
(50,200,o),
(50,117,cs),
(50,44,o),
(111,-7,o),
(182,-7,cs),
(306,-7,o),
(356,70,o),
(356,131,c),
(327,131,l),
(327,78,o),
(288,27,o),
(233,27,cs),
(190,27,o),
(150,33,o),
(150,118,cs),
(150,216,o),
(229,240,o),
(327,240,c),
(327,269,l)
);
}
);
width = 525;
}
);
metricLeft = o;
metricRight = n;
unicode = 97;
},
{
color = 1;
glyphname = ae;
lastChange = "2024-03-28 13:26:16 +0000";
layers = (
{
layerId = m01;
shapes = (
{
closed = 1;
nodes = (
(75,319,o),
(100,296,o),
(136,296,cs),
(171,296,o),
(195,309,o),
(195,342,cs),
(195,380,o),
(165,378,o),
(165,400,cs),
(165,426,o),
(206,465,o),
(263,465,cs),
(300,465,o),
(327,397,o),
(327,295,c),
(427,295,l),
(427,382,o),
(359,474,o),
(263,474,cs),
(153,474,o),
(75,423,o),
(75,352,cs)
);
},
{
closed = 1;
nodes = (
(171,249,o),
(50,200,o),
(50,117,cs),
(50,44,o),
(111,-7,o),
(182,-7,cs),
(306,-7,o),
(336,114,o),
(336,175,c),
(327,175,l),
(327,122,o),
(288,7,o),
(233,7,cs),
(190,7,o),
(150,33,o),
(150,118,cs),
(150,216,o),
(229,240,o),
(327,240,c),
(327,249,l)
);
},
{
closed = 1;
nodes = (
(735,108,l),
(706,42,o),
(639,-5,o),
(550,-5,cs),
(466,-5,o),
(427,81,o),
(427,237,cs),
(427,392,o),
(466,467,o),
(550,467,cs),
(616,467,o),
(651,393,o),
(652,241,c),
(762,241,l),
(759,397,o),
(665,473,o),
(550,473,cs),
(396,473,o),
(322,375,o),
(322,237,cs),
(322,96,o),
(396,-14,o),
(550,-14,cs),
(644,-14,o),
(717,37,o),
(742,108,c)
);
},
{
closed = 1;
nodes = (
(373,241,l),
(751,241,l),
(751,251,l),
(373,251,l)
);
}
);
width = 812;
},
{
layerId = m002;
shapes = (
{
closed = 1;
nodes = (
(75,319,o),
(100,296,o),
(136,296,cs),
(171,296,o),
(195,309,o),
(195,342,cs),
(195,380,o),
(165,378,o),
(165,400,cs),
(165,426,o),
(206,445,o),
(263,445,cs),
(300,445,o),
(327,397,o),
(327,295,c),
(427,295,l),
(427,382,o),
(359,474,o),
(263,474,cs),
(153,474,o),
(75,423,o),
(75,352,cs)
);
},
{
closed = 1;
nodes = (
(171,269,o),
(50,200,o),
(50,117,cs),
(50,44,o),
(111,-7,o),
(182,-7,cs),
(306,-7,o),
(356,114,o),
(356,175,c),
(327,175,l),
(327,122,o),
(288,27,o),
(233,27,cs),
(190,27,o),
(150,33,o),
(150,118,cs),
(150,216,o),
(229,240,o),
(327,240,c),
(327,269,l)
);
},
{
closed = 1;
nodes = (
(725,108,l),
(696,42,o),
(639,15,o),
(550,15,cs),
(466,15,o),
(427,81,o),
(427,237,cs),
(427,392,o),
(466,447,o),
(550,447,cs),
(616,447,o),
(651,393,o),
(652,241,c),
(762,241,l),
(759,397,o),
(665,473,o),
(550,473,cs),
(396,473,o),
(322,375,o),
(322,237,cs),
(322,96,o),
(396,-14,o),
(550,-14,cs),
(644,-14,o),
(727,37,o),
(752,108,c)
);
},
{
closed = 1;
nodes = (
(373,241,l),
(751,241,l),
(751,271,l),
(373,271,l)
);
}
);
width = 812;
}
);
metricRight = e;
unicode = 230;
},
{
glyphname = b;
lastChange = "2024-03-25 10:04:58 +0000";
layers = (
{
anchors = (
{
name = bottom;
pos = (310,0);
},
{
name = center;
pos = (310,225);
},
{
name = top;
pos = (310,450);
}
);
layerId = m01;
shapes = (
{
closed = 1;
nodes = (
(98,48,ls),
(98,24,o),
(82,10,o),
(53,10,cs),
(10,10,l),
(10,0,l),
(198,0,l),
(198,700,l),
(10,700,l),
(10,690,l),
(53,690,ls),
(82,690,o),
(98,676,o),
(98,652,cs)
);
},
{
closed = 1;
nodes = (
(477,-14,o),
(570,79,o),
(570,226,cs),
(570,371,o),
(477,462,o),
(328,462,cs),
(216,462,o),
(145,371,o),
(145,226,cs),
(145,79,o),
(216,-14,o),
(328,-14,cs)
);
},
{
closed = 1;
nodes = (
(222,-8,o),
(175,83,o),
(175,226,cs),
(175,367,o),
(222,455,o),
(328,455,cs),
(403,455,o),
(460,387,o),
(460,226,cs),
(460,63,o),
(403,-8,o),
(328,-8,cs)
);
}
);
width = 620;
},
{
anchors = (
{
name = bottom;
pos = (310,0);
},
{
name = center;
pos = (310,230);
},
{
name = top;
pos = (310,460);
}
);
layerId = m002;
shapes = (
{
closed = 1;
nodes = (
(98,68,ls),
(98,44,o),
(82,30,o),
(53,30,cs),
(10,30,l),
(10,0,l),
(198,0,l),
(198,700,l),
(10,700,l),
(10,670,l),
(53,670,ls),
(82,670,o),
(98,656,o),
(98,632,cs)
);
},
{
closed = 1;
nodes = (
(477,-14,o),
(570,89,o),
(570,236,cs),
(570,381,o),
(477,472,o),
(328,472,cs),
(216,472,o),
(145,381,o),
(145,236,cs),
(145,89,o),
(216,-14,o),
(328,-14,cs)
);
},
{
closed = 1;
nodes = (
(222,12,o),
(175,93,o),
(175,236,cs),
(175,377,o),
(222,445,o),
(328,445,cs),
(403,445,o),
(460,397,o),
(460,236,cs),
(460,73,o),
(403,12,o),
(328,12,cs)
);
}
);
width = 620;
}
);
metricLeft = l;
metricRight = o;
unicode = 98;
},
{
glyphname = c;
lastChange = "2024-03-26 18:33:37 +0000";
layers = (
{
anchors = (
{
name = bottom;
pos = (253,0);
},
{
name = top;
pos = (253,438);
}
);
background = {
shapes = (
{
closed = 1;
nodes = (
(446,-14,o),
(559,96,o),
(559,252,cs),
(559,405,o),
(446,513,o),
(297,513,cs),
(147,513,o),
(34,405,o),
(34,252,cs),
(34,96,o),
(147,-14,o),
(297,-14,cs)
);
},
{
closed = 1;
nodes = (
(209,-7,o),
(154,86,o),
(154,252,cs),
(154,415,o),
(209,506,o),
(297,506,cs),
(385,506,o),
(439,415,o),
(439,252,cs),
(439,86,o),
(385,-7,o),
(297,-7,cs)
);
}
);
};
layerId = m01;
shapes = (
{
closed = 1;
nodes = (
(442,127,l),
(442,49,o),
(388,0,o),
(302,0,cs),
(215,0,o),
(160,86,o),
(160,222,cs),
(160,361,o),
(215,449,o),
(302,449,cs),
(388,449,o),
(442,397,o),
(442,313,c),
(455,313,l),
(455,405,o),
(396,462,o),
(302,462,cs),
(147,462,o),
(50,369,o),
(50,222,cs),
(50,78,o),
(147,-13,o),
(302,-13,cs),
(395,-13,o),
(454,41,o),
(454,127,c)
);
},
{
closed = 1;
nodes = (
(414,408,l),
(442,358,l),
(442,313,l),
(455,313,l),
(455,450,l),
(442,450,l)
);
},
{
closed = 1;
nodes = (
(455,0,l),
(455,127,l),
(442,127,l),
(442,84,l),
(422,44,l),
(442,0,l)
);
}
);
width = 505;
},
{
anchors = (
{
name = bottom;
pos = (253,0);
},
{
name = top;
pos = (253,450);
}
);
background = {
shapes = (
{
closed = 1;
nodes = (
(446,-14,o),
(559,96,o),
(559,252,cs),
(559,405,o),
(446,513,o),
(297,513,cs),
(147,513,o),
(34,405,o),
(34,252,cs),
(34,96,o),
(147,-14,o),
(297,-14,cs)
);
},
{
closed = 1;
nodes = (
(209,-7,o),
(154,86,o),
(154,252,cs),
(154,415,o),
(209,506,o),
(297,506,cs),
(385,506,o),
(439,415,o),
(439,252,cs),
(439,86,o),
(385,-7,o),
(297,-7,cs)
);
}
);
};
layerId = m002;
shapes = (
{
closed = 1;
nodes = (
(442,127,l),
(442,49,o),
(388,20,o),
(302,20,cs),
(215,20,o),
(160,96,o),
(160,232,cs),
(160,371,o),
(215,439,o),
(302,439,cs),
(388,439,o),
(442,407,o),
(442,323,c),
(455,323,l),
(455,415,o),
(396,472,o),
(302,472,cs),
(147,472,o),
(50,379,o),
(50,232,cs),
(50,88,o),
(147,-13,o),
(302,-13,cs),
(395,-13,o),
(454,41,o),
(454,127,c)
);
},
{
closed = 1;
nodes = (
(414,418,l),
(442,368,l),
(442,323,l),
(465,323,l),
(465,460,l),
(442,460,l)
);
},
{
closed = 1;
nodes = (
(465,0,l),
(465,127,l),
(442,127,l),
(442,84,l),
(422,44,l),
(442,0,l)
);
}
);
width = 515;
}
);
metricLeft = o;
metricRight = o;
unicode = 99;
},
{
glyphname = d;
lastChange = "2024-05-20 15:18:02 +0000";
layers = (
{
anchors = (
{
name = bottom;
pos = (310,0);
},
{
name = center;
pos = (310,225);
},
{
name = top;
pos = (310,614);
},
{
name = topright;
pos = (600,800);
}
);
layerId = m01;
shapes = (
{
closed = 1;
nodes = (
(522,700,l),
(334,700,l),
(334,690,l),
(377,690,ls),
(406,690,o),
(422,676,o),
(422,652,cs),
(422,620,l),
(522,620,l)
);
},
{
closed = 1;
nodes = (
(404,-14,o),
(475,80,o),
(475,229,cs),
(475,375,o),
(404,467,o),
(292,467,cs),
(143,467,o),
(50,375,o),
(50,229,cs),
(50,80,o),
(143,-14,o),
(292,-14,cs)
);
},
{
closed = 1;
nodes = (
(217,-8,o),
(160,64,o),
(160,229,cs),
(160,391,o),
(217,460,o),
(292,460,cs),
(398,460,o),
(445,371,o),
(445,229,cs),
(445,84,o),
(398,-8,o),
(292,-8,cs)
);
},
{
closed = 1;
nodes = (
(422,620,l),
(422,0,l),
(610,0,l),
(610,10,l),
(567,10,ls),
(538,10,o),
(522,24,o),
(522,48,cs),
(522,620,l)
);
}
);
width = 620;
},
{
anchors = (
{
name = bottom;
pos = (310,0);
},
{
name = center;
pos = (299,230);
},
{
name = top;
pos = (344,601);
},
{
name = topright;
pos = (583,800);
}
);
layerId = m002;
shapes = (
{
closed = 1;
nodes = (
(522,700,l),
(334,700,l),
(334,670,l),
(377,670,ls),
(406,670,o),
(422,656,o),
(422,632,cs),
(422,620,l),
(522,620,l)
);
},
{
closed = 1;
nodes = (
(404,-14,o),
(475,90,o),
(475,239,cs),
(475,385,o),
(404,477,o),
(292,477,cs),
(143,477,o),
(50,385,o),
(50,239,cs),
(50,90,o),
(143,-14,o),
(292,-14,cs)
);
},
{
closed = 1;
nodes = (
(217,12,o),
(160,74,o),
(160,239,cs),
(160,401,o),
(217,450,o),
(292,450,cs),
(398,450,o),
(445,381,o),
(445,239,cs),
(445,94,o),
(398,12,o),
(292,12,cs)
);
},
{
closed = 1;
nodes = (
(422,620,l),
(422,0,l),
(610,0,l),
(610,30,l),
(567,30,ls),
(538,30,o),
(522,44,o),
(522,68,cs),
(522,620,l)
);
}
);
width = 620;
}
);
metricLeft = o;
metricRight = l;
unicode = 100;
},
{
color = 1;
glyphname = eth;
lastChange = "2024-03-28 13:47:16 +0000";
layers = (
{
layerId = m01;
shapes = (
{
closed = 1;
nodes = (
(280,681,l),
(369,581,o),
(415,442,o),
(415,337,cs),
(415,134,o),
(408,11,o),
(278,11,cs),
(187,11,o),
(173,85,o),
(173,217,cs),
(173,315,o),
(217,394,o),
(278,394,cs),
(357,394,o),
(412,320,o),
(411,229,c),
(421,229,l),
(418,335,o),
(359,410,o),
(278,410,cs),
(146,410,o),
(53,330,o),
(53,217,cs),
(53,79,o),
(116,-19,o),
(278,-19,cs),
(479,-19,o),
(535,128,o),
(535,337,cs),
(535,475,o),
(435,575,o),
(291,691,c)
);
},
{
angle = 40;
pos = (353,321);
ref = hyphen;
scale = (0.625,0.625);
}
);
width = 600;
},
{
layerId = m002;
shapes = (
{
closed = 1;
nodes = (
(270,671,l),
(359,571,o),
(415,442,o),
(415,337,cs),
(415,134,o),
(398,11,o),
(278,11,cs),
(187,11,o),
(173,85,o),
(173,217,cs),
(173,315,o),
(217,374,o),
(278,374,cs),
(357,374,o),
(412,320,o),
(411,229,c),
(431,229,l),
(428,335,o),
(359,410,o),
(278,410,cs),
(146,410,o),
(53,330,o),
(53,217,cs),
(53,79,o),
(116,-19,o),
(278,-19,cs),
(469,-19,o),
(535,128,o),
(535,337,cs),
(535,475,o),
(445,585,o),
(301,701,c)
);
},
{
angle = 40;
pos = (353,321);
ref = hyphen;
scale = (0.625,0.625);
}
);
width = 600;
}
);
unicode = 240;
},
{
glyphname = e;
lastChange = "2024-03-25 14:22:29 +0000";
layers = (
{
anchors = (
{
name = bottom;
pos = (283,-10);
},
{
name = ogonek;
pos = (381,10);
},
{
name = top;
pos = (273,360);
}
);
layerId = m01;
shapes = (
{
closed = 1;
nodes = (
(468,108,l),
(449,42,o),
(372,-5,o),
(283,-5,cs),
(199,-5,o),
(160,71,o),
(160,227,cs),
(160,382,o),
(199,457,o),
(283,457,cs),
(349,457,o),
(384,383,o),
(385,231,c),
(495,231,l),
(492,387,o),
(398,463,o),
(283,463,cs),
(129,463,o),
(50,365,o),
(50,227,cs),
(50,86,o),
(129,-14,o),
(283,-14,cs),
(377,-14,o),
(460,37,o),
(485,108,c)
);
},
{
closed = 1;
nodes = (
(106,231,l),
(484,231,l),
(484,241,l),
(106,241,l)
);
}
);
width = 545;
},
{
anchors = (
{
name = bottom;
pos = (273,0);
},
{
name = ogonek;
pos = (371,11);
},
{
name = top;
pos = (273,380);
}
);
layerId = m002;
shapes = (
{
closed = 1;
nodes = (
(458,108,l),
(429,42,o),
(372,15,o),
(283,15,cs),
(199,15,o),
(160,81,o),
(160,237,cs),
(160,392,o),
(199,447,o),
(283,447,cs),
(349,447,o),
(384,393,o),
(385,241,c),
(495,241,l),
(492,397,o),
(398,473,o),
(283,473,cs),
(129,473,o),
(50,375,o),
(50,237,cs),
(50,96,o),
(129,-14,o),
(283,-14,cs),
(377,-14,o),
(460,37,o),
(485,108,c)
);
},
{
closed = 1;
nodes = (
(106,241,l),
(484,241,l),
(484,271,l),
(106,271,l)
);
}
);
width = 545;
}
);
metricLeft = o;
metricRight = o;
unicode = 101;
},
{
glyphname = f;
lastChange = "2024-05-20 15:20:38 +0000";
layers = (
{
anchors = (
{
name = bottom;
pos = (154,0);
},
{
name = top;
pos = (154,800);
}
);
layerId = m01;
shapes = (
{
closed = 1;
nodes = (
(286,0,l),
(286,10,l),
(253,10,ls),
(218,10,o),
(198,24,o),
(198,48,cs),
(197,482,ls),
(197,554,o),
(108,535,o),
(108,597,c),
(97,556,l),
(97,48,ls),
(97,24,o),
(82,10,o),
(53,10,cs),
(10,10,l),
(10,0,l)
);
},
{
closed = 1;
nodes = (
(302,442,l),
(302,452,l),
(10,452,l),
(10,442,l)
);
},
{
closed = 1;
nodes = (
(108,597,l),
(108,632,o),
(138,675,o),
(176,675,cs),
(210,675,o),
(198,595,o),
(251,595,cs),
(293,595,o),
(323,619,o),
(323,654,cs),
(323,690,o),
(293,715,o),
(251,715,cs),
(156,715,o),
(97,654,o),
(97,556,c)
);
}
);
width = 308;
},
{
associatedMasterId = m01;
layerId = "65FCE289-9C30-4FFD-B70A-43FDFC3420DF";
name = "22. M채rz 24, 19:54";
shapes = (
{
closed = 1;
nodes = (
(98,595,l),
(98,48,ls),
(98,24,o),
(82,10,o),
(53,10,cs),
(10,10,l),
(10,0,l),
(286,0,l),
(286,10,l),
(253,10,ls),
(218,10,o),
(198,24,o),
(198,48,cs),
(198,635,l)
);
},
{
closed = 1;
nodes = (
(267,704,l),
(232,704,o),
(198,682,o),
(198,635,c),
(98,595,l),
(98,654,o),
(200,714,o),
(267,714,c)
);
},
{
closed = 1;
nodes = (
(267,704,l),
(307,704,o),
(335,689,o),
(335,654,cs),
(335,630,o),
(305,632,o),
(305,579,cs),
(305,543,o),
(329,517,o),
(364,517,cs),
(400,517,o),
(425,543,o),
(425,579,cs),
(425,658,o),
(360,714,o),
(267,714,c)
);
},
{
closed = 1;
nodes = (
(302,442,l),
(302,452,l),
(10,452,l),
(10,442,l)
);
}
);
width = 305;
},
{
anchors = (
{
name = bottom;
pos = (154,0);
},
{
name = top;
pos = (154,800);
}
);
layerId = m002;
shapes = (
{
closed = 1;
nodes = (
(286,0,l),
(286,30,l),
(253,30,ls),
(218,30,o),
(198,44,o),
(198,68,cs),
(197,482,ls),
(197,554,o),
(128,535,o),
(128,597,c),
(97,556,l),
(97,68,ls),
(97,44,o),
(82,30,o),
(53,30,cs),
(10,30,l),
(10,0,l)
);
},
{
closed = 1;
nodes = (
(302,432,l),
(302,462,l),
(10,462,l),
(10,432,l)
);
},
{
closed = 1;
nodes = (
(128,597,l),
(128,632,o),
(138,665,o),
(176,665,cs),
(210,665,o),
(198,595,o),
(251,595,cs),
(293,595,o),
(323,619,o),
(323,654,cs),
(323,690,o),
(293,715,o),
(251,715,cs),
(156,715,o),
(97,654,o),
(97,556,c)
);
}
);
width = 308;
},
{
associatedMasterId = m002;
layerId = "DF8901DB-F1B4-4BF7-8E60-35AF4403DE3E";
name = "22. M채rz 24, 19:54";
shapes = (
{
closed = 1;
nodes = (
(98,595,l),
(98,48,ls),
(98,24,o),
(82,10,o),
(53,10,cs),
(10,10,l),
(10,0,l),
(286,0,l),
(286,10,l),
(253,10,ls),
(218,10,o),
(198,24,o),
(198,48,cs),
(198,635,l)
);
},
{
closed = 1;
nodes = (
(267,704,l),
(232,704,o),
(198,682,o),
(198,635,c),
(98,595,l),
(98,654,o),
(200,714,o),
(267,714,c)
);
},
{
closed = 1;
nodes = (
(267,704,l),
(307,704,o),
(335,689,o),
(335,654,cs),
(335,630,o),
(305,632,o),
(305,579,cs),
(305,543,o),
(329,517,o),
(364,517,cs),
(400,517,o),
(425,543,o),
(425,579,cs),
(425,658,o),
(360,714,o),
(267,714,c)
);
},
{
closed = 1;
nodes = (
(302,442,l),
(302,452,l),
(10,452,l),
(10,442,l)
);
}
);
width = 305;
},
{
anchors = (
{
name = bottom;
pos = (154,0);
},
{
name = top;
pos = (154,800);
}
);
associatedMasterId = m01;
layerId = "BDDB9559-64B1-4625-B362-918918A8BC97";
name = "20. Mai 24, 17:19";
shapes = (
{
closed = 1;
nodes = (
(286,0,l),
(286,10,l),
(253,10,ls),
(218,10,o),
(198,24,o),
(198,48,cs),
(197,482,ls),
(197,554,o),
(108,535,o),
(108,597,c),
(97,556,l),
(97,48,ls),
(97,24,o),
(82,10,o),
(53,10,cs),
(10,10,l),
(10,0,l)
);
},
{
closed = 1;
nodes = (
(302,442,l),
(302,452,l),
(10,452,l),
(10,442,l)
);
},
{
closed = 1;
nodes = (
(108,597,l),
(108,632,o),
(138,675,o),
(176,675,cs),
(210,675,o),
(198,595,o),
(251,595,cs),
(293,595,o),
(323,619,o),
(323,654,cs),
(323,690,o),
(293,715,o),
(251,715,cs),
(156,715,o),
(97,654,o),
(97,556,c)
);
}
);
width = 308;
}
);
metricLeft = l;
unicode = 102;
},
{
glyphname = g;
lastChange = "2024-03-25 10:05:35 +0000";
layers = (
{
anchors = (
{
name = bottom;
pos = (257,-200);
},
{
name = top;
pos = (257,450);
}
);
layerId = m01;
shapes = (
{
closed = 1;
nodes = (
(140,197,l),
(77,197,o),
(38,154,o),
(38,86,cs),
(38,14,o),
(82,-32,o),
(153,-32,c),
(359,-42,l),
(411,-42,o),
(443,-67,o),
(443,-113,cs),
(443,-166,o),
(370,-200,o),
(253,-200,c),
(125,-200,o),
(78,-163,o),
(78,-103,cs),
(78,-54,o),
(86,-28,o),
(153,-32,c),
(153,-22,l),
(79,-21,o),
(33,-50,o),
(33,-103,cs),
(33,-170,o),
(118,-211,o),
(253,-210,c),
(394,-210,o),
(482,-154,o),
(482,-65,cs),
(482,7,o),
(435,58,o),
(359,58,c),
(153,68,l),
(106,68,o),
(77,95,o),
(77,137,cs),
(77,170,o),
(101,191,o),
(140,191,c)
);
},
{
closed = 1;
nodes = (
(377,130,o),
(446,201,o),
(446,296,cs),
(446,396,o),
(377,466,o),
(252,466,cs),
(144,466,o),
(58,396,o),
(58,296,cs),
(58,201,o),
(144,130,o),
(252,130,cs)
);
},
{
closed = 1;
nodes = (
(196,140,o),
(168,193,o),
(168,296,c),
(168,404,o),
(196,457,o),
(252,457,cs),
(308,457,o),
(336,404,o),
(336,296,cs),
(336,193,o),
(308,140,o),
(252,140,cs)
);
},
{
closed = 1;
nodes = (
(469,415,l),
(469,450,l),
(327,450,l),
(327,425,l)
);
}
);
width = 514;
},
{
associatedMasterId = m01;
layerId = "27BA81C0-C1E6-4E76-82B0-F18E2BF19CCD";
name = "23. M채rz 24, 16:58";
shapes = (
{
closed = 1;
nodes = (
(132,242,l),
(75,242,o),
(30,188,o),
(30,121,cs),
(30,55,o),
(81,3,o),
(145,3,c),
(351,3,l),
(398,3,o),
(435,-15,o),
(435,-83,cs),
(435,-158,o),
(355,-200,o),
(255,-200,c),
(152,-200,o),
(91,-168,o),
(91,-83,cs),
(91,-15,o),
(99,3,o),
(135,3,c),
(135,13,l),
(74,13,o),
(25,-30,o),
(25,-83,cs),
(25,-155,o),
(127,-211,o),
(255,-210,c),
(385,-210,o),
(489,-134,o),
(489,-15,cs),
(489,51,o),
(428,103,o),
(351,103,c),
(145,103,l),
(108,103,o),
(79,114,o),
(79,172,cs),
(79,218,o),
(102,236,o),
(132,236,c)
);
},
{
closed = 1;
nodes = (
(372,165,o),
(466,233,o),
(466,316,cs),
(466,400,o),
(372,466,o),
(253,466,cs),
(139,466,o),
(49,400,o),
(49,316,cs),
(49,233,o),
(139,165,o),
(253,165,cs)
);
},
{
closed = 1;
nodes = (
(203,175,o),
(164,218,o),
(164,316,cs),
(164,414,o),
(203,457,o),
(253,457,cs),
(308,457,o),
(351,414,o),
(351,316,cs),
(351,218,o),
(308,175,o),
(253,175,cs)
);
},
{
closed = 1;
nodes = (
(466,422,l),
(466,442,l),
(324,442,l),
(324,422,l)
);
}
);
width = 514;
},
{
anchors = (
{
name = bottom;
pos = (257,-200);
},
{
name = top;
pos = (257,460);
}
);
layerId = m002;
shapes = (
{
closed = 1;
nodes = (
(140,202,l),
(77,202,o),
(38,159,o),
(38,91,cs),
(38,19,o),
(82,-27,o),
(153,-27,c),
(359,-37,l),
(411,-37,o),
(443,-72,o),
(443,-103,cs),
(443,-146,o),
(370,-180,o),
(253,-180,c),
(125,-180,o),
(78,-143,o),
(78,-103,cs),
(78,-59,o),
(86,-23,o),
(153,-27,c),
(153,3,l),
(79,4,o),
(33,-55,o),
(33,-103,cs),
(33,-170,o),
(118,-211,o),
(253,-210,c),
(394,-210,o),
(482,-154,o),
(482,-65,cs),
(482,17,o),
(435,63,o),
(359,63,c),
(153,73,l),
(106,73,o),
(77,90,o),
(77,132,cs),
(77,165,o),
(101,176,o),
(140,176,c)
);
},
{
closed = 1;
nodes = (
(377,135,o),
(446,216,o),
(446,306,cs),
(446,406,o),
(377,476,o),
(252,476,cs),
(144,476,o),
(58,406,o),
(58,306,cs),
(58,216,o),
(144,135,o),
(252,135,cs)
);
},
{
closed = 1;
nodes = (
(196,165,o),
(168,208,o),
(168,306,c),
(168,414,o),
(196,447,o),
(252,447,cs),
(308,447,o),
(336,414,o),
(336,306,cs),
(336,208,o),
(308,165,o),
(252,165,cs)
);
},
{
closed = 1;
nodes = (
(469,425,l),
(469,460,l),
(327,460,l),
(327,435,l)
);
}
);
width = 514;
},
{
associatedMasterId = m002;
layerId = "03DA32BD-1F06-4E9F-9047-758C60C31F95";
name = "23. M채rz 24, 16:58";
shapes = (
{
closed = 1;
nodes = (
(132,242,l),
(75,242,o),
(30,188,o),
(30,121,cs),
(30,55,o),
(81,3,o),
(145,3,c),
(351,3,l),
(398,3,o),
(435,-15,o),
(435,-83,cs),
(435,-158,o),
(355,-200,o),
(255,-200,c),
(152,-200,o),
(91,-168,o),
(91,-83,cs),
(91,-15,o),
(99,3,o),
(135,3,c),
(135,13,l),
(74,13,o),
(25,-30,o),
(25,-83,cs),
(25,-155,o),
(127,-211,o),
(255,-210,c),
(385,-210,o),
(489,-134,o),
(489,-15,cs),
(489,51,o),
(428,103,o),
(351,103,c),
(145,103,l),
(108,103,o),
(79,114,o),
(79,172,cs),
(79,218,o),
(102,236,o),
(132,236,c)
);
},
{
closed = 1;
nodes = (
(372,165,o),
(466,233,o),
(466,316,cs),
(466,400,o),
(372,466,o),
(253,466,cs),
(139,466,o),
(49,400,o),
(49,316,cs),
(49,233,o),
(139,165,o),
(253,165,cs)
);
},
{
closed = 1;
nodes = (
(203,175,o),
(164,218,o),
(164,316,cs),
(164,414,o),
(203,457,o),
(253,457,cs),
(308,457,o),
(351,414,o),
(351,316,cs),
(351,218,o),
(308,175,o),
(253,175,cs)
);
},
{
closed = 1;
nodes = (
(466,422,l),
(466,442,l),
(324,442,l),
(324,422,l)
);
}
);
width = 514;
}
);
unicode = 103;
},
{
glyphname = h;
lastChange = "2024-03-25 10:05:45 +0000";
layers = (
{
anchors = (
{
name = bottom;
pos = (309,0);
},
{
name = center;
pos = (309,400);
},
{
name = top;
pos = (309,800);
}
);
layerId = m01;
shapes = (
{
closed = 1;
nodes = (
(98,48,ls),
(98,24,o),
(82,10,o),
(53,10,cs),
(10,10,l),
(10,0,l),
(286,0,l),
(286,10,l),
(253,10,ls),
(218,10,o),
(198,24,o),
(198,48,cs),
(198,700,l),
(10,700,l),
(10,690,l),
(53,690,ls),
(82,690,o),
(98,676,o),
(98,652,cs)
);
},
{
closed = 1;
nodes = (
(420,43,ls),
(420,22,o),
(404,9,o),
(375,9,cs),
(332,9,l),
(332,0,l),
(608,0,l),
(608,9,l),
(575,9,ls),
(540,9,o),
(520,22,o),
(520,43,cs),
(520,317,ls),
(520,409,o),
(447,466,o),
(332,466,cs),
(244,466,o),
(168,409,o),
(168,317,c),
(198,317,l),
(198,403,o),
(250,457,o),
(332,457,cs),
(386,457,o),
(420,403,o),
(420,317,c)
);
}
);
width = 618;
},
{
anchors = (
{
name = bottom;
pos = (309,0);
},
{
name = center;
pos = (309,400);
},
{
name = top;
pos = (309,800);
}
);
layerId = m002;
shapes = (
{
closed = 1;
nodes = (
(98,68,ls),
(98,44,o),
(82,30,o),
(53,30,cs),
(10,30,l),
(10,0,l),
(286,0,l),
(286,30,l),
(253,30,ls),
(218,30,o),
(198,44,o),
(198,68,cs),
(198,700,l),
(10,700,l),
(10,670,l),
(53,670,ls),
(82,670,o),
(98,656,o),
(98,632,cs)
);
},
{
closed = 1;
nodes = (
(420,63,ls),
(420,42,o),
(404,29,o),
(375,29,cs),
(332,29,l),
(332,0,l),
(608,0,l),
(608,29,l),
(575,29,ls),
(540,29,o),
(520,42,o),
(520,63,cs),
(520,327,ls),
(520,419,o),
(447,476,o),
(332,476,cs),
(244,476,o),
(168,419,o),
(168,327,c),
(198,327,l),
(198,413,o),
(250,447,o),
(332,447,cs),
(386,447,o),
(420,413,o),
(420,327,c)
);
}
);
width = 618;
}
);
metricLeft = l;
metricRight = n;
unicode = 104;
},
{
glyphname = i;
lastChange = "2024-03-26 17:18:33 +0000";
layers = (
{
anchors = (
{
name = bottom;
pos = (148,0);
}
);
layerId = m01;
shapes = (
{
closed = 1;
nodes = (
(98,43,ls),
(98,22,o),
(82,9,o),
(53,9,cs),
(10,9,l),
(10,0,l),
(286,0,l),
(286,9,l),
(253,9,ls),
(218,9,o),
(198,22,o),
(198,43,cs),
(198,450,l),
(10,450,l),
(10,441,l),
(53,441,ls),
(82,441,o),
(98,428,o),
(98,407,cs)
);
},
{
closed = 1;
nodes = (
(182,579,o),
(213,610,o),
(213,647,cs),
(213,685,o),
(182,715,o),
(145,715,cs),
(108,715,o),
(77,685,o),
(77,647,cs),
(77,610,o),
(108,579,o),
(145,579,cs)
);
}
);
width = 296;
},
{
anchors = (
{
name = bottom;
pos = (148,0);
}
);
layerId = m002;
shapes = (
{
closed = 1;
nodes = (
(98,63,ls),
(98,42,o),
(82,29,o),
(53,29,cs),
(10,29,l),
(10,0,l),
(286,0,l),
(286,29,l),
(253,29,ls),
(218,29,o),
(198,42,o),
(198,63,cs),
(198,460,l),
(10,460,l),
(10,431,l),
(53,431,ls),
(82,431,o),
(98,418,o),
(98,397,cs)
);
},
{
closed = 1;
nodes = (
(178,579,o),
(209,610,o),
(209,647,cs),
(209,685,o),
(178,715,o),
(141,715,cs),
(104,715,o),
(73,685,o),
(73,647,cs),
(73,610,o),
(104,579,o),
(141,579,cs)
);
}
);
width = 296;
}
);
metricLeft = l;
metricRight = l;
unicode = 105;
},
{
glyphname = idotless;
lastChange = "2024-03-26 18:11:33 +0000";
layers = (
{
anchors = (
{
name = bottom;
pos = (148,0);
},
{
name = ogonek;
pos = (266,10);
},
{
name = top;
pos = (148,450);
}
);
layerId = m01;
shapes = (
{
closed = 1;
nodes = (
(98,43,ls),
(98,22,o),
(82,9,o),
(53,9,cs),
(10,9,l),
(10,0,l),
(286,0,l),
(286,9,l),
(253,9,ls),
(218,9,o),
(198,22,o),
(198,43,cs),
(198,450,l),
(10,450,l),
(10,441,l),
(53,441,ls),
(82,441,o),
(98,428,o),
(98,407,cs)
);
}
);
width = 296;
},
{
anchors = (
{
name = bottom;
pos = (148,0);
},
{
name = ogonek;
pos = (266,10);
},
{
name = top;
pos = (148,460);
}
);
layerId = m002;
shapes = (
{
closed = 1;
nodes = (
(98,63,ls),
(98,42,o),
(82,29,o),
(53,29,cs),
(10,29,l),
(10,0,l),
(286,0,l),
(286,29,l),
(253,29,ls),
(218,29,o),
(198,42,o),
(198,63,cs),
(198,460,l),
(10,460,l),
(10,431,l),
(53,431,ls),
(82,431,o),
(98,418,o),
(98,397,cs)
);
}
);
width = 296;
}
);
metricLeft = i;
metricRight = i;
unicode = 305;
},
{
glyphname = j;
lastChange = "2024-05-20 15:20:52 +0000";
layers = (
{
layerId = m01;
shapes = (
{
closed = 1;
nodes = (
(177,579,o),
(208,610,o),
(208,647,cs),
(208,685,o),
(177,715,o),
(140,715,cs),
(103,715,o),
(72,685,o),
(72,647,cs),
(72,610,o),
(103,579,o),
(140,579,cs)
);
},
{
closed = 1;
nodes = (
(90,428,o),
(74,441,o),
(45,441,cs),
(2,441,l),
(2,450,l),
(190,450,l),
(190,-58,l),
(179,-78,l),
(179,-16,o),
(89,-21,o),
(89,51,cs),
(90,406,l)
);
},
{
closed = 1;
nodes = (
(179,-78,l),
(179,-106,o),
(155,-126,o),
(130,-126,cs),
(96,-126,o),
(108,-96,o),
(55,-96,cs),
(19,-96,o),
(-7,-120,o),
(-7,-155,cs),
(-7,-191,o),
(19,-216,o),
(55,-216,cs),
(134,-216,o),
(190,-151,o),
(190,-58,c)
);
}
);
width = 296;
},
{
associatedMasterId = m01;
layerId = "B01032CC-4D2C-4CCC-9E76-476BA01E4608";
name = "22. M채rz 24, 19:52";
shapes = (
{
closed = 1;
nodes = (
(208,-90,l),
(208,450,l),
(20,450,l),
(20,441,l),
(63,441,ls),
(92,441,o),
(108,428,o),
(108,406,cs),
(108,-130,l)
);
},
{
closed = 1;
nodes = (
(195,579,o),
(226,610,o),
(226,647,cs),
(226,685,o),
(195,715,o),
(158,715,cs),
(121,715,o),
(90,685,o),
(90,647,cs),
(90,610,o),
(121,579,o),
(158,579,cs)
);
},
{
closed = 1;
nodes = (
(39,-199,l),
(74,-199,o),
(108,-177,o),
(108,-130,c),
(208,-90,l),
(208,-149,o),
(106,-209,o),
(39,-209,c)
);
},
{
closed = 1;
nodes = (
(39,-199,l),
(-1,-199,o),
(-29,-184,o),
(-29,-149,cs),
(-29,-125,o),
(1,-127,o),
(1,-74,cs),
(1,-38,o),
(-23,-12,o),
(-58,-12,cs),
(-94,-12,o),
(-119,-38,o),
(-119,-74,cs),
(-119,-153,o),
(-54,-209,o),
(39,-209,c)
);
}
);
width = 316;
},
{
layerId = m002;
shapes = (
{
closed = 1;
nodes = (
(177,579,o),
(208,610,o),
(208,647,cs),
(208,685,o),
(177,715,o),
(140,715,cs),
(103,715,o),
(72,685,o),
(72,647,cs),
(72,610,o),
(103,579,o),
(140,579,cs)
);
},
{
closed = 1;
nodes = (
(90,418,o),
(74,431,o),
(45,431,cs),
(2,431,l),
(2,460,l),
(190,460,l),
(190,-58,l),
(159,-78,l),
(159,-16,o),
(89,-21,o),
(89,51,cs),
(90,396,l)
);
},
{
closed = 1;
nodes = (
(159,-78,l),
(159,-100,o),
(147,-116,o),
(130,-116,cs),
(96,-116,o),
(108,-96,o),
(55,-96,cs),
(19,-96,o),
(-7,-120,o),
(-7,-155,cs),
(-7,-191,o),
(19,-216,o),
(55,-216,cs),
(134,-216,o),
(190,-151,o),
(190,-58,c)
);
}
);
width = 296;
},
{
associatedMasterId = m002;
layerId = "334ED938-907C-4043-B9D5-D304145287B0";
name = "22. M채rz 24, 19:52";
shapes = (
{
closed = 1;
nodes = (
(208,-90,l),
(208,450,l),
(20,450,l),
(20,441,l),
(63,441,ls),
(92,441,o),
(108,428,o),
(108,406,cs),
(108,-130,l)
);
},
{
closed = 1;
nodes = (
(195,579,o),
(226,610,o),
(226,647,cs),
(226,685,o),
(195,715,o),
(158,715,cs),
(121,715,o),
(90,685,o),
(90,647,cs),
(90,610,o),
(121,579,o),
(158,579,cs)
);
},
{
closed = 1;
nodes = (
(39,-199,l),
(74,-199,o),
(108,-177,o),
(108,-130,c),
(208,-90,l),
(208,-149,o),
(106,-209,o),
(39,-209,c)
);
},
{
closed = 1;
nodes = (
(39,-199,l),
(-1,-199,o),
(-29,-184,o),
(-29,-149,cs),
(-29,-125,o),
(1,-127,o),
(1,-74,cs),
(1,-38,o),
(-23,-12,o),
(-58,-12,cs),
(-94,-12,o),
(-119,-38,o),
(-119,-74,cs),
(-119,-153,o),
(-54,-209,o),
(39,-209,c)
);
}
);
width = 316;
}
);
unicode = 106;
},
{
glyphname = jdotless;
lastChange = "2024-03-25 09:54:43 +0000";
layers = (
{
anchors = (
{
name = bottom;
pos = (139,-200);
},
{
name = top;
pos = (139,450);
}
);
layerId = m01;
shapes = (
{
closed = 1;
nodes = (
(90,428,o),
(74,441,o),
(45,441,cs),
(2,441,l),
(2,450,l),
(190,450,l),
(190,-58,l),
(179,-78,l),
(179,-16,o),
(89,-21,o),
(89,51,cs),
(90,406,l)
);
},
{
closed = 1;
nodes = (
(179,-78,l),
(179,-106,o),
(155,-126,o),
(130,-126,cs),
(96,-126,o),
(108,-96,o),
(55,-96,cs),
(19,-96,o),
(-7,-120,o),
(-7,-155,cs),
(-7,-191,o),
(19,-216,o),
(55,-216,cs),
(134,-216,o),
(190,-151,o),
(190,-58,c)
);
}
);
width = 278;
},
{
anchors = (
{
name = bottom;
pos = (139,-200);
},
{
name = top;
pos = (139,460);
}
);
layerId = m002;
shapes = (
{
closed = 1;
nodes = (
(90,418,o),
(74,431,o),
(45,431,cs),
(2,431,l),
(2,460,l),
(190,460,l),
(190,-58,l),
(159,-78,l),
(159,-16,o),
(89,-21,o),
(89,51,cs),
(90,396,l)
);
},
{
closed = 1;
nodes = (
(159,-78,l),
(159,-100,o),
(147,-116,o),
(130,-116,cs),
(96,-116,o),
(108,-96,o),
(55,-96,cs),
(19,-96,o),
(-7,-120,o),
(-7,-155,cs),
(-7,-191,o),
(19,-216,o),
(55,-216,cs),
(134,-216,o),
(190,-151,o),
(190,-58,c)
);
}
);
width = 278;
}
);
metricLeft = j;
metricRight = j;
unicode = 567;
},
{
glyphname = k;
lastChange = "2024-03-25 10:05:53 +0000";
layers = (
{
anchors = (
{
name = bottom;
pos = (285,0);
},
{
name = top;
pos = (285,800);
}
);
layerId = m01;
shapes = (
{
closed = 1;
nodes = (
(98,48,ls),
(98,24,o),
(82,10,o),
(53,10,cs),
(10,10,l),
(10,0,l),
(286,0,l),
(286,10,l),
(253,10,ls),
(218,10,o),
(198,24,o),
(198,48,c),
(198,700,l),
(10,700,l),
(10,690,l),
(53,690,ls),
(82,690,o),
(98,676,o),
(98,652,cs)
);
},
{
closed = 1;
nodes = (
(351,450,l),
(351,437,l),
(377,437,ls),
(405,437,o),
(420,426,o),
(388,398,cs),
(143,184,l),
(171,184,l),
(413,398,ls),
(445,426,o),
(456,437,o),
(479,437,cs),
(513,437,l),
(513,450,l)
);
},
{
closed = 1;
nodes = (
(391,33,ls),
(404,18,o),
(398,9,o),
(372,9,cs),
(338,9,l),
(338,0,l),
(593,0,l),
(593,9,l),
(567,9,ls),
(553,9,o),
(536,18,o),
(523,33,cs),
(293,306,l),
(221,240,l)
);
}
);
width = 570;
},
{
anchors = (
{
name = bottom;
pos = (285,0);
},
{
name = top;
pos = (285,800);
}
);
layerId = m002;
shapes = (
{
closed = 1;
nodes = (
(98,68,ls),
(98,44,o),
(82,30,o),
(53,30,cs),
(10,30,l),
(10,0,l),
(286,0,l),
(286,30,l),
(253,30,ls),
(218,30,o),
(198,44,o),
(198,68,c),
(198,700,l),
(10,700,l),
(10,670,l),
(53,670,ls),
(82,670,o),
(98,656,o),
(98,632,cs)
);
},
{
closed = 1;
nodes = (
(351,460,l),
(351,427,l),
(377,427,ls),
(405,427,o),
(420,415,o),
(388,388,cs),
(143,184,l),
(191,184,l),
(433,388,ls),
(466,415,o),
(476,427,o),
(499,427,cs),
(513,427,l),
(513,460,l)
);
},
{
closed = 1;
nodes = (
(391,53,ls),
(404,38,o),
(398,29,o),
(372,29,cs),
(338,29,l),
(338,0,l),
(593,0,l),
(593,29,l),
(567,29,ls),
(553,29,o),
(536,38,o),
(523,53,cs),
(293,306,l),
(221,240,l)
);
}
);
width = 570;
}
);
metricLeft = l;
unicode = 107;
},
{
glyphname = l;
lastChange = "2024-03-25 10:06:01 +0000";
layers = (
{
anchors = (
{
name = bottom;
pos = (148,0);
},
{
name = center;
pos = (148,400);
},
{
name = top;
pos = (148,800);
},
{
name = topright;
pos = (276,800);
}
);
layerId = m01;
shapes = (
{
closed = 1;
nodes = (
(98,48,ls),
(98,24,o),
(82,10,o),
(53,10,cs),
(10,10,l),
(10,0,l),
(286,0,l),
(286,10,l),
(253,10,ls),
(218,10,o),
(198,24,o),
(198,48,c),
(198,700,l),
(10,700,l),
(10,690,l),
(53,690,ls),
(82,690,o),
(98,676,o),
(98,652,cs)
);
}
);
width = 296;
},
{
anchors = (
{
name = bottom;
pos = (148,0);
},
{
name = center;
pos = (148,400);
},
{
name = top;
pos = (148,800);
},
{
name = topright;
pos = (276,800);
}
);
layerId = m002;
shapes = (
{
closed = 1;
nodes = (
(98,68,ls),
(98,44,o),
(82,30,o),
(53,30,cs),
(10,30,l),
(10,0,l),
(286,0,l),
(286,30,l),
(253,30,ls),
(218,30,o),
(198,44,o),
(198,68,c),
(198,700,l),
(10,700,l),
(10,670,l),
(53,670,ls),
(82,670,o),
(98,656,o),
(98,632,cs)
);
}
);
width = 296;
}
);
unicode = 108;
},
{
glyphname = m;
lastChange = "2024-03-25 10:06:11 +0000";
layers = (
{
anchors = (
{
name = bottom;
pos = (470,0);
},
{
name = top;
pos = (470,450);
}
);
layerId = m01;
shapes = (
{
closed = 1;
nodes = (
(98,43,ls),
(98,22,o),
(82,9,o),
(53,9,cs),
(10,9,l),
(10,0,l),
(286,0,l),
(286,9,l),
(253,9,ls),
(218,9,o),
(198,22,o),
(198,43,cs),
(198,449,l),
(10,449,l),
(10,440,l),
(53,440,ls),
(82,440,o),
(98,428,o),
(98,406,cs)
);
},
{
closed = 1;
nodes = (
(420,43,ls),
(420,22,o),
(404,9,o),
(375,9,cs),
(332,9,l),
(332,0,l),
(608,0,l),
(608,9,l),
(575,9,ls),
(540,9,o),
(520,22,o),
(520,43,cs),
(520,315,ls),
(520,405,o),
(447,463,o),
(332,463,cs),
(244,463,o),
(168,405,o),
(168,315,c),
(198,315,l),
(198,400,o),
(250,454,o),
(332,454,cs),
(386,454,o),
(420,400,o),
(420,315,c)
);
},
{
closed = 1;
nodes = (
(742,43,ls),
(742,22,o),
(726,9,o),
(697,9,cs),
(654,9,l),
(654,0,l),
(930,0,l),
(930,9,l),
(897,9,ls),
(862,9,o),
(842,22,o),
(842,43,cs),
(842,315,ls),
(842,405,o),
(769,463,o),
(654,463,cs),
(566,463,o),
(490,405,o),
(490,315,c),
(520,315,l),
(520,400,o),
(572,454,o),
(654,454,cs),
(708,454,o),
(742,400,o),
(742,315,c)
);
}
);
width = 940;
},
{
anchors = (
{
name = bottom;
pos = (470,0);
},
{
name = top;
pos = (470,460);
}
);
layerId = m002;
shapes = (
{
closed = 1;
nodes = (
(98,63,ls),
(98,42,o),
(82,29,o),
(53,29,cs),
(10,29,l),
(10,0,l),
(286,0,l),
(286,29,l),
(253,29,ls),
(218,29,o),
(198,42,o),
(198,63,cs),
(198,459,l),
(10,459,l),
(10,430,l),
(53,430,ls),
(82,430,o),
(98,418,o),
(98,396,cs)
);
},
{
closed = 1;
nodes = (
(420,63,ls),
(420,42,o),
(404,29,o),
(375,29,cs),
(332,29,l),
(332,0,l),
(608,0,l),
(608,29,l),
(575,29,ls),
(540,29,o),
(520,42,o),
(520,63,cs),
(520,325,ls),
(520,415,o),
(447,473,o),
(332,473,cs),
(244,473,o),
(168,415,o),
(168,325,c),
(198,325,l),
(198,410,o),
(250,444,o),
(332,444,cs),
(386,444,o),
(420,410,o),
(420,325,c)
);
},
{
closed = 1;
nodes = (
(742,63,ls),
(742,42,o),
(726,29,o),
(697,29,cs),
(654,29,l),
(654,0,l),
(930,0,l),
(930,29,l),
(897,29,ls),
(862,29,o),
(842,42,o),
(842,63,cs),
(842,325,ls),
(842,415,o),
(769,473,o),
(654,473,cs),
(566,473,o),
(490,415,o),
(490,325,c),
(520,325,l),
(520,410,o),
(572,444,o),
(654,444,cs),
(708,444,o),
(742,410,o),
(742,325,c)
);
}
);
width = 940;
}
);
metricLeft = n;
metricRight = n;
unicode = 109;
},
{
glyphname = n;
lastChange = "2024-03-25 10:06:18 +0000";
layers = (
{
anchors = (
{
name = bottom;
pos = (309,0);
},
{
name = top;
pos = (309,450);
}
);
layerId = m01;
shapes = (
{
closed = 1;
nodes = (
(98,43,ls),
(98,22,o),
(82,9,o),
(53,9,cs),
(10,9,l),
(10,0,l),
(286,0,l),
(286,9,l),
(253,9,ls),
(218,9,o),
(198,22,o),
(198,43,cs),
(198,448,l),
(10,448,l),
(10,439,l),
(53,439,ls),
(82,439,o),
(98,427,o),
(98,405,cs)
);
},
{
closed = 1;
nodes = (
(420,43,ls),
(420,22,o),
(404,9,o),
(375,9,cs),
(332,9,l),
(332,0,l),
(608,0,l),
(608,9,l),
(575,9,ls),
(540,9,o),
(520,22,o),
(520,43,cs),
(520,314,ls),
(520,404,o),
(447,462,o),
(332,462,cs),
(244,462,o),
(168,404,o),
(168,314,c),
(198,314,l),
(198,399,o),
(250,453,o),
(332,453,cs),
(386,453,o),
(420,399,o),
(420,314,c)
);
}
);
width = 618;
},
{
anchors = (
{
name = bottom;
pos = (309,0);
},
{
name = top;
pos = (309,460);
}
);
layerId = m002;
shapes = (
{
closed = 1;
nodes = (
(98,63,ls),
(98,42,o),
(82,29,o),
(53,29,cs),
(10,29,l),
(10,0,l),
(286,0,l),
(286,29,l),
(253,29,ls),
(218,29,o),
(198,42,o),
(198,63,cs),
(198,458,l),
(10,458,l),
(10,429,l),
(53,429,ls),
(82,429,o),
(98,417,o),
(98,395,cs)
);
},
{
closed = 1;
nodes = (
(420,63,ls),
(420,42,o),
(404,29,o),
(375,29,cs),
(332,29,l),
(332,0,l),
(608,0,l),
(608,29,l),
(575,29,ls),
(540,29,o),
(520,42,o),
(520,63,cs),
(520,324,ls),
(520,414,o),
(447,472,o),
(332,472,cs),
(244,472,o),
(168,414,o),
(168,324,c),
(198,324,l),
(198,409,o),
(250,443,o),
(332,443,cs),
(386,443,o),
(420,409,o),
(420,324,c)
);
}
);
width = 618;
}
);
unicode = 110;
},
{
color = 1;
glyphname = eng;
lastChange = "2024-03-28 13:52:19 +0000";
layers = (
{
layerId = m01;
shapes = (
{
closed = 1;
nodes = (
(98,43,ls),
(98,22,o),
(82,9,o),
(53,9,cs),
(10,9,l),
(10,0,l),
(286,0,l),
(286,9,l),
(253,9,ls),
(218,9,o),
(198,22,o),
(198,43,cs),
(198,458,l),
(10,458,l),
(10,449,l),
(53,449,ls),
(82,449,o),
(98,437,o),
(98,415,cs)
);
},
{
closed = 1;
nodes = (
(419,51,l),
(519,51,l),
(520,324,ls),
(520,414,o),
(447,472,o),
(332,472,cs),
(244,472,o),
(188,414,o),
(188,324,c),
(198,324,l),
(198,409,o),
(250,463,o),
(332,463,cs),
(386,463,o),
(420,409,o),
(420,324,c)
);
},
{
closed = 1;
nodes = (
(519,51,l),
(520,-58,l),
(509,-78,l),
(509,-16,o),
(419,-21,o),
(419,51,c)
);
},
{
closed = 1;
nodes = (
(509,-78,l),
(509,-106,o),
(485,-126,o),
(460,-126,cs),
(426,-126,o),
(438,-96,o),
(385,-96,cs),
(349,-96,o),
(323,-120,o),
(323,-155,cs),
(323,-191,o),
(349,-216,o),
(385,-216,cs),
(464,-216,o),
(520,-151,o),
(520,-58,c)
);
}
);
width = 600;
},
{
layerId = m002;
shapes = (
{
closed = 1;
nodes = (
(98,63,ls),
(98,42,o),
(82,29,o),
(53,29,cs),
(10,29,l),
(10,0,l),
(286,0,l),
(286,29,l),
(253,29,ls),
(218,29,o),
(198,42,o),
(198,63,cs),
(198,458,l),
(10,458,l),
(10,429,l),
(53,429,ls),
(82,429,o),
(98,417,o),
(98,395,cs)
);
},
{
closed = 1;
nodes = (
(419,51,l),
(519,51,l),
(520,324,ls),
(520,414,o),
(447,472,o),
(332,472,cs),
(244,472,o),
(168,414,o),
(168,324,c),
(198,324,l),
(198,409,o),
(250,443,o),
(332,443,cs),
(386,443,o),
(420,409,o),
(420,324,c)
);
},
{
closed = 1;
nodes = (
(519,51,l),
(520,-58,l),
(489,-78,l),
(489,-16,o),
(419,-21,o),
(419,51,c)
);
},
{
closed = 1;
nodes = (
(489,-78,l),
(489,-100,o),
(477,-116,o),
(460,-116,cs),
(426,-116,o),
(438,-96,o),
(385,-96,cs),
(349,-96,o),
(323,-120,o),
(323,-155,cs),
(323,-191,o),
(349,-216,o),
(385,-216,cs),
(464,-216,o),
(520,-151,o),
(520,-58,c)
);
}
);
width = 608;
}
);
metricRight = j;
unicode = 331;
},
{
glyphname = o;
lastChange = "2024-03-26 18:32:08 +0000";
layers = (
{
anchors = (
{
name = bottom;
pos = (293,0);
},
{
name = center;
pos = (293,225);
},
{
name = ogonek;
pos = (527,10);
},
{
name = top;
pos = (293,377);
},
{
name = topright;
pos = (565,450);
}
);
layerId = m01;
shapes = (
{
closed = 1;
nodes = (
(442,-14,o),
(535,86,o),
(535,229,cs),
(535,368,o),
(442,467,o),
(293,467,cs),
(143,467,o),
(50,368,o),
(50,229,cs),
(50,86,o),
(143,-14,o),
(293,-14,cs)
);
},
{
closed = 1;
nodes = (
(205,-8,o),
(160,57,o),
(160,229,cs),
(160,397,o),
(205,460,o),
(293,460,cs),
(381,460,o),
(425,397,o),
(425,229,cs),
(425,57,o),
(381,-8,o),
(293,-8,cs)
);
}
);
width = 585;
},
{
anchors = (
{
name = bottom;
pos = (293,0);
},
{
name = center;
pos = (293,230);
},
{
name = ogonek;
pos = (527,10);
},
{
name = top;
pos = (293,392);
},
{
name = topright;
pos = (565,460);
}
);
layerId = m002;
shapes = (
{
closed = 1;
nodes = (
(442,-14,o),
(535,96,o),
(535,239,cs),
(535,378,o),
(442,477,o),
(293,477,cs),
(143,477,o),
(50,378,o),
(50,239,cs),
(50,96,o),
(143,-14,o),
(293,-14,cs)
);
},
{
closed = 1;
nodes = (
(205,12,o),
(160,67,o),
(160,239,cs),
(160,407,o),
(205,450,o),
(293,450,cs),
(381,450,o),
(425,407,o),
(425,239,cs),
(425,67,o),
(381,12,o),
(293,12,cs)
);
}
);
width = 585;
}
);
unicode = 111;
},
{
color = 1;
glyphname = oe;
lastChange = "2024-03-28 13:34:06 +0000";
layers = (
{
layerId = m01;
shapes = (
{
closed = 1;
nodes = (
(442,-14,o),
(535,96,o),
(535,239,cs),
(535,378,o),
(442,467,o),
(293,467,cs),
(143,467,o),
(50,378,o),
(50,239,cs),
(50,96,o),
(143,-14,o),
(293,-14,cs)
);
},
{
closed = 1;
nodes = (
(205,-8,o),
(160,67,o),
(160,239,cs),
(160,407,o),
(205,460,o),
(293,460,cs),
(381,460,o),
(425,407,o),
(425,239,cs),
(425,67,o),
(381,-8,o),
(293,-8,cs)
);
},
{
closed = 1;
nodes = (
(840,108,l),
(811,42,o),
(747,-5,o),
(658,-5,cs),
(574,-5,o),
(535,81,o),
(535,237,cs),
(535,392,o),
(574,457,o),
(658,457,cs),
(724,457,o),
(759,393,o),
(760,241,c),
(870,241,l),
(867,397,o),
(773,463,o),
(658,463,cs),
(504,463,o),
(425,375,o),
(425,237,cs),
(425,96,o),
(504,-14,o),
(658,-14,cs),
(752,-14,o),
(827,37,o),
(852,108,c)
);
},
{
closed = 1;
nodes = (
(480,241,l),
(858,241,l),
(858,251,l),
(480,251,l)
);
}
);
width = 920;
},
{
layerId = m002;
shapes = (
{
closed = 1;
nodes = (
(442,-14,o),
(535,96,o),
(535,239,cs),
(535,378,o),
(442,477,o),
(293,477,cs),
(143,477,o),
(50,378,o),
(50,239,cs),
(50,96,o),
(143,-14,o),
(293,-14,cs)
);
},
{
closed = 1;
nodes = (
(205,12,o),
(160,67,o),
(160,239,cs),
(160,407,o),
(205,450,o),
(293,450,cs),
(381,450,o),
(425,407,o),
(425,239,cs),
(425,67,o),
(381,12,o),
(293,12,cs)
);
},
{
closed = 1;
nodes = (
(833,108,l),
(804,42,o),
(747,15,o),
(658,15,cs),
(574,15,o),
(535,81,o),
(535,237,cs),
(535,392,o),
(574,447,o),
(658,447,cs),
(724,447,o),
(759,393,o),
(760,241,c),
(870,241,l),
(867,397,o),
(773,473,o),
(658,473,cs),
(504,473,o),
(425,375,o),
(425,237,cs),
(425,96,o),
(504,-14,o),
(658,-14,cs),
(752,-14,o),
(835,37,o),
(860,108,c)
);
},
{
closed = 1;
nodes = (
(480,241,l),
(858,241,l),
(858,271,l),
(480,271,l)
);
}
);
width = 920;
}
);
metricLeft = o;
metricRight = e;
unicode = 339;
},
{
glyphname = p;
lastChange = "2024-03-25 10:06:33 +0000";
layers = (
{
anchors = (
{
name = bottom;
pos = (310,0);
},
{
name = top;
pos = (310,450);
}
);
layerId = m01;
shapes = (
{
closed = 1;
nodes = (
(98,-152,ls),
(98,-176,o),
(82,-190,o),
(53,-190,cs),
(10,-190,l),
(10,-200,l),
(286,-200,l),
(286,-190,l),
(243,-190,ls),
(214,-190,o),
(198,-176,o),
(198,-152,cs),
(198,-120,l),
(98,-120,l)
);
},
{
closed = 1;
nodes = (
(216,466,o),
(145,372,o),
(145,224,cs),
(145,79,o),
(216,-13,o),
(328,-13,cs),
(477,-13,o),
(570,79,o),
(570,224,cs),
(570,372,o),
(477,466,o),
(328,466,cs)
);
},
{
closed = 1;
nodes = (
(403,459,o),
(460,399,o),
(460,224,cs),
(460,52,o),
(403,-7,o),
(328,-7,cs),
(222,-7,o),
(175,82,o),
(175,224,cs),
(175,369,o),
(222,459,o),
(328,459,cs)
);
},
{
closed = 1;
nodes = (
(198,-120,l),
(198,450,l),
(10,450,l),
(10,440,l),
(53,440,ls),
(82,440,o),
(98,426,o),
(98,402,cs),
(98,-120,l)
);
}
);
width = 620;
},
{
anchors = (
{
name = bottom;
pos = (310,0);
},
{
name = top;
pos = (310,460);
}
);
layerId = m002;
shapes = (
{
closed = 1;
nodes = (
(98,-132,ls),
(98,-156,o),
(82,-170,o),
(53,-170,cs),
(10,-170,l),
(10,-200,l),
(286,-200,l),
(286,-170,l),
(243,-170,ls),
(214,-170,o),
(198,-156,o),
(198,-132,cs),
(198,-100,l),
(98,-100,l)
);
},
{
closed = 1;
nodes = (
(216,476,o),
(145,382,o),
(145,234,cs),
(145,89,o),
(216,-13,o),
(328,-13,cs),
(477,-13,o),
(570,89,o),
(570,234,cs),
(570,382,o),
(477,476,o),
(328,476,cs)
);
},
{
closed = 1;
nodes = (
(403,449,o),
(460,409,o),
(460,234,cs),
(460,62,o),
(403,13,o),
(328,13,cs),
(222,13,o),
(175,92,o),
(175,234,cs),
(175,379,o),
(222,449,o),
(328,449,cs)
);
},
{
closed = 1;
nodes = (
(198,-100,l),
(198,460,l),
(10,460,l),
(10,430,l),
(53,430,ls),
(82,430,o),
(98,416,o),
(98,392,cs),
(98,-100,l)
);
}
);
width = 620;
}
);
metricLeft = l;
metricRight = o;
unicode = 112;
},
{
color = 1;
glyphname = thorn;
lastChange = "2024-03-28 13:53:44 +0000";
layers = (
{
layerId = m01;
shapes = (
{
closed = 1;
nodes = (
(98,-152,ls),
(98,-176,o),
(82,-190,o),
(53,-190,cs),
(10,-190,l),
(10,-200,l),
(198,-200,l),
(198,700,l),
(10,700,l),
(10,690,l),
(53,690,ls),
(82,690,o),
(98,676,o),
(98,652,cs)
);
},
{
closed = 1;
nodes = (
(477,-14,o),
(570,89,o),
(570,236,cs),
(570,381,o),
(477,462,o),
(328,462,cs),
(216,462,o),
(145,381,o),
(145,236,cs),
(145,89,o),
(216,-14,o),
(328,-14,cs)
);
},
{
closed = 1;
nodes = (
(222,-8,o),
(175,93,o),
(175,236,cs),
(175,377,o),
(222,455,o),
(328,455,cs),
(403,455,o),
(460,397,o),
(460,236,cs),
(460,73,o),
(403,-8,o),
(328,-8,cs)
);
}
);
width = 600;
},
{
layerId = m002;
shapes = (
{
closed = 1;
nodes = (
(98,-132,ls),
(98,-156,o),
(82,-170,o),
(53,-170,cs),
(10,-170,l),
(10,-200,l),
(198,-200,l),
(198,700,l),
(10,700,l),
(10,670,l),
(53,670,ls),
(82,670,o),
(98,656,o),
(98,632,cs)
);
},
{
closed = 1;
nodes = (
(477,-14,o),
(570,89,o),
(570,236,cs),
(570,381,o),
(477,472,o),
(328,472,cs),
(216,472,o),
(145,381,o),
(145,236,cs),
(145,89,o),
(216,-14,o),
(328,-14,cs)
);
},
{
closed = 1;
nodes = (
(222,12,o),
(175,93,o),
(175,236,cs),
(175,377,o),
(222,445,o),
(328,445,cs),
(403,445,o),
(460,397,o),
(460,236,cs),
(460,73,o),
(403,12,o),
(328,12,cs)
);
}
);
width = 620;
}
);
unicode = 254;
},
{
glyphname = q;
lastChange = "2024-03-25 10:06:42 +0000";
layers = (
{
anchors = (
{
name = bottom;
pos = (310,0);
},
{
name = top;
pos = (310,450);
}
);
layerId = m01;
shapes = (
{
closed = 1;
nodes = (
(522,402,ls),
(522,426,o),
(538,440,o),
(567,440,cs),
(610,440,l),
(610,450,l),
(422,450,l),
(422,-200,l),
(610,-200,l),
(610,-190,l),
(567,-190,ls),
(538,-190,o),
(522,-176,o),
(522,-152,cs)
);
},
{
closed = 1;
nodes = (
(143,466,o),
(50,373,o),
(50,224,cs),
(50,79,o),
(143,-13,o),
(292,-13,cs),
(404,-13,o),
(475,79,o),
(475,224,cs),
(475,373,o),
(404,466,o),
(292,466,cs)
);
},
{
closed = 1;
nodes = (
(398,460,o),
(445,369,o),
(445,224,cs),
(445,83,o),
(398,-7,o),
(292,-7,cs),
(217,-7,o),
(160,63,o),
(160,224,cs),
(160,389,o),
(217,460,o),
(292,460,cs)
);
}
);
width = 620;
},
{
anchors = (
{
name = bottom;
pos = (310,0);
},
{
name = top;
pos = (310,460);
}
);
layerId = m002;
shapes = (
{
closed = 1;
nodes = (
(522,392,ls),
(522,416,o),
(538,430,o),
(567,430,cs),
(610,430,l),
(610,460,l),
(422,460,l),
(422,-200,l),
(610,-200,l),
(610,-170,l),
(567,-170,ls),
(538,-170,o),
(522,-156,o),
(522,-132,cs)
);
},
{
closed = 1;
nodes = (
(143,476,o),
(50,383,o),
(50,234,cs),
(50,89,o),
(143,-13,o),
(292,-13,cs),
(404,-13,o),
(475,89,o),
(475,234,cs),
(475,383,o),
(404,476,o),
(292,476,cs)
);
},
{
closed = 1;
nodes = (
(398,450,o),
(445,379,o),
(445,234,cs),
(445,93,o),
(398,13,o),
(292,13,cs),
(217,13,o),
(160,73,o),
(160,234,cs),
(160,399,o),
(217,450,o),
(292,450,cs)
);
}
);
width = 620;
}
);
metricLeft = o;
metricRight = l;
unicode = 113;
},
{
glyphname = r;
lastChange = "2024-05-20 15:17:46 +0000";
layers = (
{
associatedMasterId = m01;
layerId = "EC7A594F-EC08-46C1-9787-7F08B6D99FF2";
name = "23. M채rz 24, 17:40";
shapes = (
{
closed = 1;
nodes = (
(98,48,ls),
(98,24,o),
(82,10,o),
(53,10,cs),
(10,10,l),
(10,0,l),
(286,0,l),
(286,10,l),
(253,10,ls),
(218,10,o),
(198,24,o),
(198,48,cs),
(198,450,l),
(10,450,l),
(10,440,l),
(53,440,ls),
(79,440,o),
(98,424,o),
(98,402,cs)
);
},
{
closed = 1;
nodes = (
(440,409,o),
(375,465,o),
(282,465,cs),
(215,465,o),
(168,397,o),
(168,300,c),
(198,300,l),
(198,391,o),
(221,455,o),
(282,455,cs),
(322,455,o),
(340,430,o),
(340,405,cs),
(340,371,o),
(320,373,o),
(320,330,cs),
(320,294,o),
(344,268,o),
(379,268,cs),
(415,268,o),
(440,294,o),
(440,330,cs)
);
}
);
width = 475;
},
{
anchors = (
{
name = bottom;
pos = (238,0);
},
{
name = top;
pos = (238,450);
}
);
layerId = m01;
name = Regular;
shapes = (
{
closed = 1;
nodes = (
(98,48,ls),
(98,24,o),
(82,10,o),
(53,10,cs),
(10,10,l),
(10,0,l),
(286,0,l),
(286,10,l),
(253,10,ls),
(218,10,o),
(198,24,o),
(198,48,cs),
(198,450,l),
(10,450,l),
(10,440,l),
(53,440,ls),
(79,440,o),
(98,424,o),
(98,402,cs)
);
},
{
closed = 1;
nodes = (
(248,466,o),
(187,401,o),
(187,308,c),
(197,308,l),
(197,360,o),
(238,441,o),
(297,441,cs),
(341,441,o),
(319,346,o),
(372,346,cs),
(402,346,o),
(424,370,o),
(424,405,cs),
(424,441,o),
(398,466,o),
(362,466,cs)
);
}
);
width = 450;
},
{
associatedMasterId = m002;
layerId = "07EDE7E7-1150-40E7-BCB2-AF9E14BDAEA0";
name = "23. M채rz 24, 17:40";
shapes = (
{
closed = 1;
nodes = (
(98,48,ls),
(98,24,o),
(82,10,o),
(53,10,cs),
(10,10,l),
(10,0,l),
(286,0,l),
(286,10,l),
(253,10,ls),
(218,10,o),
(198,24,o),
(198,48,cs),
(198,450,l),
(10,450,l),
(10,440,l),
(53,440,ls),
(79,440,o),
(98,424,o),
(98,402,cs)
);
},
{
closed = 1;
nodes = (
(440,409,o),
(375,465,o),
(282,465,cs),
(215,465,o),
(168,397,o),
(168,300,c),
(198,300,l),
(198,391,o),
(221,455,o),
(282,455,cs),
(322,455,o),
(340,430,o),
(340,405,cs),
(340,371,o),
(320,373,o),
(320,330,cs),
(320,294,o),
(344,268,o),
(379,268,cs),
(415,268,o),
(440,294,o),
(440,330,cs)
);
}
);
width = 475;
},
{
anchors = (
{
name = bottom;
pos = (238,0);
},
{
name = top;
pos = (238,460);
}
);
layerId = m002;
name = Regular;
shapes = (
{
closed = 1;
nodes = (
(98,68,ls),
(98,44,o),
(82,30,o),
(53,30,cs),
(10,30,l),
(10,0,l),
(286,0,l),
(286,30,l),
(253,30,ls),
(218,30,o),
(198,44,o),
(198,68,cs),
(198,460,l),
(10,460,l),
(10,430,l),
(53,430,ls),
(79,430,o),
(98,414,o),
(98,392,cs)
);
},
{
closed = 1;
nodes = (
(248,473,o),
(177,408,o),
(177,315,c),
(197,315,l),
(197,367,o),
(238,433,o),
(297,433,cs),
(341,433,o),
(319,353,o),
(372,353,cs),
(402,353,o),
(424,377,o),
(424,412,cs),
(424,448,o),
(398,473,o),
(362,473,cs)
);
}
);
width = 425;
},
{
anchors = (
{
name = bottom;
pos = (238,0);
},
{
name = top;
pos = (238,460);
}
);
associatedMasterId = m002;
layerId = "07118D17-CA19-45CC-B575-B9AA10DBD1A1";
name = "20. Mai 24, 17:12";
shapes = (
{
closed = 1;
nodes = (
(98,68,ls),
(98,44,o),
(82,30,o),
(53,30,cs),
(10,30,l),
(10,0,l),
(286,0,l),
(286,30,l),
(253,30,ls),
(218,30,o),
(198,44,o),
(198,68,cs),
(198,460,l),
(10,460,l),
(10,430,l),
(53,430,ls),
(79,430,o),
(98,414,o),
(98,392,cs)
);
},
{
closed = 1;
nodes = (
(450,419,o),
(385,475,o),
(292,475,cs),
(225,475,o),
(168,407,o),
(168,310,c),
(198,310,l),
(198,401,o),
(231,445,o),
(292,445,cs),
(332,445,o),
(360,430,o),
(360,395,cs),
(360,371,o),
(330,383,o),
(330,330,cs),
(330,294,o),
(354,278,o),
(389,278,cs),
(425,278,o),
(450,304,o),
(450,340,cs)
);
}
);
width = 475;
},
{
anchors = (
{
name = bottom;
pos = (238,0);
},
{
name = top;
pos = (238,450);
}
);
associatedMasterId = m01;
layerId = "40FA9D52-91F8-4158-AD9F-1A8B36B38B27";
name = "20. Mai 24, 17:14";
shapes = (
{
closed = 1;
nodes = (
(98,48,ls),
(98,24,o),
(82,10,o),
(53,10,cs),
(10,10,l),
(10,0,l),
(286,0,l),
(286,10,l),
(253,10,ls),
(218,10,o),
(198,24,o),
(198,48,cs),
(198,450,l),
(10,450,l),
(10,440,l),
(53,440,ls),
(79,440,o),
(98,424,o),
(98,402,cs)
);
},
{
closed = 1;
nodes = (
(450,409,o),
(385,465,o),
(292,465,cs),
(225,465,o),
(168,397,o),
(168,300,c),
(198,300,l),
(198,391,o),
(231,455,o),
(292,455,cs),
(332,455,o),
(360,440,o),
(360,405,cs),
(360,381,o),
(330,383,o),
(330,330,cs),
(330,294,o),
(354,268,o),
(389,268,cs),
(425,268,o),
(450,294,o),
(450,330,cs)
);
}
);
width = 475;
}
);
metricLeft = n;
unicode = 114;
},
{
glyphname = s;
lastChange = "2024-03-28 13:07:06 +0000";
layers = (
{
anchors = (
{
name = bottom;
pos = (216,0);
},
{
name = top;
pos = (216,450);
}
);
background = {
shapes = (
{
closed = 1;
nodes = (
(356,-14,o),
(469,96,o),
(469,252,cs),
(469,405,o),
(356,513,o),
(207,513,cs),
(57,513,o),
(-56,405,o),
(-56,252,cs),
(-56,96,o),
(57,-14,o),
(207,-14,cs)
);
},
{
closed = 1;
nodes = (
(119,-7,o),
(64,86,o),
(64,252,cs),
(64,415,o),
(119,506,o),
(207,506,cs),
(295,506,o),
(349,415,o),
(349,252,cs),
(349,86,o),
(295,-7,o),
(207,-7,cs)
);
}
);
};
layerId = m01;
shapes = (
{
closed = 1;
nodes = (
(111,466,o),
(50,417,o),
(50,338,cs),
(50,168,o),
(325,181,o),
(325,78,cs),
(325,30,o),
(280,-2,o),
(208,-2,cs),
(124,-2,o),
(72,49,o),
(72,127,c),
(58,127,l),
(58,40,o),
(116,-15,o),
(208,-15,cs),
(314,-15,o),
(381,39,o),
(381,125,cs),
(381,289,o),
(106,282,o),
(106,385,cs),
(106,426,o),
(145,453,o),
(208,453,cs),
(286,453,o),
(335,403,o),
(335,326,c),
(348,326,l),
(348,412,o),
(294,466,o),
(208,466,cs)
);
},
{
closed = 1;
nodes = (
(311,416,l),
(335,373,l),
(335,326,l),
(351,326,l),
(351,454,l),
(338,454,l)
);
},
{
closed = 1;
nodes = (
(93,41,l),
(72,84,l),
(72,127,l),
(55,127,l),
(55,-1,l),
(68,-1,l)
);
}
);
width = 431;
},
{
anchors = (
{
name = bottom;
pos = (221,0);
},
{
name = top;
pos = (221,460);
}
);
background = {
shapes = (
{
closed = 1;
nodes = (
(361,-14,o),
(474,96,o),
(474,252,cs),
(474,405,o),
(361,513,o),
(212,513,cs),
(62,513,o),
(-51,405,o),
(-51,252,cs),
(-51,96,o),
(62,-14,o),
(212,-14,cs)
);
},
{
closed = 1;
nodes = (
(124,-7,o),
(69,86,o),
(69,252,cs),
(69,415,o),
(124,506,o),
(212,506,cs),
(300,506,o),
(354,415,o),
(354,252,cs),
(354,86,o),
(300,-7,o),
(212,-7,cs)
);
}
);
};
layerId = m002;
shapes = (
{
closed = 1;
nodes = (
(116,476,o),
(55,427,o),
(55,348,cs),
(55,175,o),
(330,175,o),
(330,88,cs),
(330,40,o),
(285,13,o),
(213,13,cs),
(129,13,o),
(77,49,o),
(77,127,c),
(53,127,l),
(53,40,o),
(121,-15,o),
(213,-15,cs),
(319,-15,o),
(386,39,o),
(386,125,cs),
(386,293,o),
(111,296,o),
(111,385,cs),
(111,426,o),
(150,448,o),
(213,448,cs),
(291,448,o),
(340,413,o),
(340,336,c),
(363,336,l),
(363,422,o),
(299,476,o),
(213,476,cs)
);
},
{
closed = 1;
nodes = (
(316,426,l),
(340,383,l),
(340,336,l),
(366,336,l),
(366,464,l),
(343,464,l)
);
},
{
closed = 1;
nodes = (
(98,41,l),
(77,84,l),
(77,127,l),
(50,127,l),
(50,-1,l),
(73,-1,l)
);
}
);
width = 436;
}
);
metricLeft = o;
metricRight = o;
unicode = 115;
},
{
glyphname = germandbls;
lastChange = "2024-03-24 17:33:28 +0000";
layers = (
{
layerId = m01;
shapes = (
{
closed = 1;
nodes = (
(487,-15,o),
(550,47,o),
(550,125,cs),
(550,282,o),
(326,285,o),
(326,385,cs),
(326,422,o),
(349,451,o),
(376,451,c),
(376,466,l),
(318,466,o),
(270,409,o),
(270,338,cs),
(270,178,o),
(494,178,o),
(494,78,cs),
(494,35,o),
(455,0,o),
(407,0,cs),
(348,0,o),
(301,56,o),
(301,127,c),
(287,127,l),
(287,48,o),
(340,-15,o),
(407,-15,cs)
);
},
{
closed = 1;
nodes = (
(198,0,l),
(197,462,l),
(197,516,l),
(97,516,l),
(97,48,ls),
(97,27,o),
(78,10,o),
(53,10,cs),
(10,10,l),
(10,0,l)
);
},
{
closed = 1;
nodes = (
(297,-1,l),
(318,41,l),
(301,84,l),
(301,127,l),
(284,127,l),
(284,-1,l)
);
},
{
closed = 1;
nodes = (
(152,442,l),
(152,452,l),
(10,452,l),
(10,442,l)
);
},
{
closed = 1;
nodes = (
(476,451,l),
(476,516,ls),
(476,623,o),
(395,708,o),
(290,708,cs),
(182,708,o),
(97,623,o),
(97,516,c),
(197,516,l),
(197,617,o),
(238,697,o),
(290,697,cs),
(340,697,o),
(376,617,o),
(376,516,cs),
(376,451,l)
);
}
);
width = 600;
},
{
layerId = m002;
shapes = (
{
closed = 1;
nodes = (
(477,-15,o),
(550,47,o),
(550,125,cs),
(550,282,o),
(326,295,o),
(326,395,cs),
(326,432,o),
(349,461,o),
(376,461,c),
(376,486,l),
(318,486,o),
(270,419,o),
(270,348,cs),
(270,188,o),
(494,188,o),
(494,88,cs),
(494,45,o),
(455,10,o),
(407,10,cs),
(348,10,o),
(301,56,o),
(301,127,c),
(277,127,l),
(277,48,o),
(330,-15,o),
(397,-15,cs)
);
},
{
closed = 1;
nodes = (
(198,0,l),
(197,472,l),
(197,526,l),
(97,526,l),
(97,68,ls),
(97,47,o),
(78,30,o),
(53,30,cs),
(10,30,l),
(10,0,l)
);
},
{
closed = 1;
nodes = (
(297,-1,l),
(318,41,l),
(301,84,l),
(301,127,l),
(274,127,l),
(274,-1,l)
);
},
{
closed = 1;
nodes = (
(152,432,l),
(152,462,l),
(10,462,l),
(10,432,l)
);
},
{
closed = 1;
nodes = (
(476,461,l),
(476,526,ls),
(476,633,o),
(395,708,o),
(290,708,cs),
(182,708,o),
(97,633,o),
(97,526,c),
(197,526,l),
(197,627,o),
(238,677,o),
(290,677,cs),
(340,677,o),
(376,627,o),
(376,526,cs),
(376,461,l)
);
}
);
width = 600;
}
);
unicode = 223;
},
{
glyphname = t;
lastChange = "2024-03-25 16:21:32 +0000";
layers = (
{
anchors = (
{
name = bottom;
pos = (139,0);
},
{
name = center;
pos = (139,225);
},
{
name = top;
pos = (139,450);
},
{
name = topright;
pos = (277,800);
}
);
layerId = m01;
shapes = (
{
closed = 1;
nodes = (
(92,449,o),
(154,510,o),
(154,596,c),
(167,596,l),
(167,450,l),
(257,450,l),
(257,437,l),
(167,437,l),
(167,296,o),
(167,102,o),
(167,73,cs),
(167,26,o),
(202,6,o),
(237,6,cs),
(273,6,o),
(305,46,o),
(305,93,c),
(317,93,l),
(317,34,o),
(279,-8,o),
(192,-8,cs),
(125,-8,o),
(67,54,o),
(67,113,cs),
(67,437,l),
(0,437,l),
(0,449,l)
);
}
);
width = 317;
},
{
anchors = (
{
name = bottom;
pos = (139,0);
},
{
name = center;
pos = (139,230);
},
{
name = top;
pos = (139,460);
},
{
name = topright;
pos = (277,800);
}
);
layerId = m002;
shapes = (
{
closed = 1;
nodes = (
(92,459,o),
(134,520,o),
(134,606,c),
(167,606,l),
(167,460,l),
(257,460,l),
(257,427,l),
(167,427,l),
(167,286,o),
(167,102,o),
(167,73,cs),
(167,45,o),
(196,26,o),
(237,26,cs),
(271,26,o),
(295,54,o),
(295,93,c),
(317,93,l),
(317,34,o),
(265,-8,o),
(192,-8,cs),
(119,-8,o),
(67,42,o),
(67,113,cs),
(67,427,l),
(0,427,l),
(0,459,l)
);
}
);
width = 317;
}
);
unicode = 116;
},
{
glyphname = u;
lastChange = "2024-03-26 18:33:05 +0000";
layers = (
{
anchors = (
{
name = bottom;
pos = (309,0);
},
{
name = ogonek;
pos = (556,10);
},
{
name = top;
pos = (283,380);
},
{
name = topright;
pos = (598,450);
}
);
layerId = m01;
shapes = (
{
closed = 1;
nodes = (
(515,450,l),
(327,450,l),
(327,440,l),
(360,440,ls),
(395,440,o),
(415,426,o),
(415,402,cs),
(415,0,l),
(603,0,l),
(603,10,l),
(560,10,ls),
(531,10,o),
(515,24,o),
(515,48,cs)
);
},
{
closed = 1;
nodes = (
(193,450,l),
(5,450,l),
(5,440,l),
(38,440,ls),
(73,440,o),
(93,426,o),
(93,402,cs),
(93,150,ls),
(93,49,o),
(166,-15,o),
(281,-15,cs),
(369,-15,o),
(445,49,o),
(445,150,c),
(415,150,l),
(415,55,o),
(363,-5,o),
(281,-5,cs),
(227,-5,o),
(193,55,o),
(193,150,c)
);
}
);
width = 618;
},
{
anchors = (
{
name = bottom;
pos = (309,0);
},
{
name = ogonek;
pos = (556,10);
},
{
name = top;
pos = (263,387);
},
{
name = topright;
pos = (598,460);
}
);
layerId = m002;
shapes = (
{
closed = 1;
nodes = (
(515,460,l),
(327,460,l),
(327,430,l),
(360,430,ls),
(395,430,o),
(415,416,o),
(415,392,cs),
(415,0,l),
(603,0,l),
(603,30,l),
(560,30,ls),
(531,30,o),
(515,44,o),
(515,68,cs)
);
},
{
closed = 1;
nodes = (
(193,460,l),
(5,460,l),
(5,430,l),
(38,430,ls),
(73,430,o),
(93,416,o),
(93,392,cs),
(93,150,ls),
(93,49,o),
(166,-15,o),
(281,-15,cs),
(369,-15,o),
(445,49,o),
(445,150,c),
(415,150,l),
(415,55,o),
(363,15,o),
(281,15,cs),
(227,15,o),
(193,55,o),
(193,150,c)
);
}
);
width = 618;
}
);
unicode = 117;
},
{
glyphname = v;
lastChange = "2024-03-25 16:22:11 +0000";
layers = (
{
anchors = (
{
name = bottom;
pos = (220,0);
},
{
name = top;
pos = (220,450);
}
);
layerId = m01;
shapes = (
{
closed = 1;
nodes = (
(332,450,l),
(332,437,l),
(357,437,ls),
(387,437,o),
(404,421,o),
(395,402,cs),
(239,35,l),
(241,1,l),
(253,35,l),
(406,393,ls),
(416,418,o),
(438,437,o),
(457,437,cs),
(479,437,l),
(479,450,l)
);
},
{
closed = 1;
nodes = (
(125,410,ls),
(118,427,o),
(137,437,o),
(159,437,cs),
(192,437,l),
(192,450,l),
(-40,450,l),
(-40,437,l),
(-14,437,ls),
(12,437,o),
(20,427,o),
(27,410,cs),
(179,35,l),
(191,1,l),
(241,1,l),
(263,76,l)
);
}
);
width = 479;
},
{
anchors = (
{
name = bottom;
pos = (220,0);
},
{
name = top;
pos = (220,460);
}
);
layerId = m002;
shapes = (
{
closed = 1;
nodes = (
(332,460,l),
(332,427,l),
(357,427,ls),
(387,427,o),
(383,411,o),
(375,392,cs),
(219,35,l),
(241,1,l),
(253,35,l),
(406,383,ls),
(417,408,o),
(438,427,o),
(457,427,cs),
(479,427,l),
(479,460,l)
);
},
{
closed = 1;
nodes = (
(125,400,ls),
(118,417,o),
(137,427,o),
(159,427,cs),
(192,427,l),
(192,460,l),
(-40,460,l),
(-40,427,l),
(-14,427,ls),
(12,427,o),
(20,417,o),
(27,400,cs),
(179,35,l),
(191,1,l),
(241,1,l),
(263,76,l)
);
}
);
width = 479;
}
);
unicode = 118;
},
{
glyphname = w;
lastChange = "2024-03-25 16:22:13 +0000";
layers = (
{
anchors = (
{
name = bottom;
pos = (332,0);
},
{
name = top;
pos = (332,450);
}
);
layerId = m01;
shapes = (
{
closed = 1;
nodes = (
(363,450,l),
(363,443,l),
(390,443,ls),
(419,443,o),
(444,433,o),
(436,416,cs),
(263,35,l),
(264,1,l),
(277,35,l),
(450,416,ls),
(458,433,o),
(463,443,o),
(487,443,cs),
(522,443,l),
(522,450,l)
);
},
{
closed = 1;
nodes = (
(138,416,ls),
(131,432,o),
(152,443,o),
(175,443,cs),
(211,443,l),
(211,450,l),
(-40,450,l),
(-40,443,l),
(-12,443,ls),
(16,443,o),
(25,433,o),
(32,416,cs),
(197,35,l),
(210,1,l),
(264,1,l),
(288,76,l)
);
},
{
closed = 1;
nodes = (
(558,450,l),
(558,443,l),
(583,443,ls),
(610,443,o),
(632,433,o),
(625,416,cs),
(467,35,l),
(468,1,l),
(480,35,l),
(638,416,ls),
(645,433,o),
(650,443,o),
(672,443,cs),
(704,443,l),
(704,450,l)
);
},
{
closed = 1;
nodes = (
(353,416,ls),
(346,433,o),
(366,443,o),
(387,443,cs),
(419,443,l),
(419,450,l),
(190,450,l),
(190,443,l),
(216,443,ls),
(241,443,o),
(249,433,o),
(256,416,cs),
(407,35,l),
(419,1,l),
(468,1,l),
(490,76,l)
);
}
);
width = 704;
},
{
anchors = (
{
name = bottom;
pos = (332,0);
},
{
name = top;
pos = (332,460);
}
);
layerId = m002;
shapes = (
{
closed = 1;
nodes = (
(363,460,l),
(363,433,l),
(390,433,ls),
(419,433,o),
(424,423,o),
(416,406,cs),
(243,35,l),
(264,1,l),
(277,35,l),
(450,406,ls),
(458,423,o),
(463,433,o),
(487,433,cs),
(522,433,l),
(522,460,l)
);
},
{
closed = 1;
nodes = (
(138,406,ls),
(131,422,o),
(152,433,o),
(175,433,cs),
(211,433,l),
(211,460,l),
(-40,460,l),
(-40,433,l),
(-12,433,ls),
(16,433,o),
(24,423,o),
(32,406,cs),
(197,35,l),
(210,1,l),
(264,1,l),
(288,76,l)
);
},
{
closed = 1;
nodes = (
(558,460,l),
(558,433,l),
(583,433,ls),
(610,433,o),
(612,423,o),
(605,406,cs),
(447,35,l),
(468,1,l),
(480,35,l),
(638,406,ls),
(645,423,o),
(650,433,o),
(672,433,cs),
(704,433,l),
(704,460,l)
);
},
{
closed = 1;
nodes = (
(353,406,ls),
(346,423,o),
(366,433,o),
(387,433,cs),
(419,433,l),
(419,460,l),
(190,460,l),
(190,433,l),
(216,433,ls),
(241,433,o),
(249,423,o),
(256,406,cs),
(407,35,l),
(419,1,l),
(468,1,l),
(490,76,l)
);
}
);
width = 704;
}
);
unicode = 119;
},
{
glyphname = x;
lastChange = "2024-03-25 16:22:36 +0000";
layers = (
{
anchors = (
{
name = bottom;
pos = (245,0);
},
{
name = top;
pos = (245,450);
}
);
layerId = m01;
shapes = (
{
closed = 1;
nodes = (
(510,0,l),
(510,10,l),
(483,10,ls),
(466,10,o),
(451,19,o),
(439,35,cs),
(288,247,l),
(286,249,l),
(402,419,ls),
(411,433,o),
(431,440,o),
(451,440,cs),
(485,440,l),
(485,450,l),
(326,450,l),
(326,440,l),
(354,440,ls),
(385,440,o),
(394,433,o),
(384,419,cs),
(274,266,l),
(171,415,ls),
(160,431,o),
(166,440,o),
(191,440,cs),
(227,440,l),
(227,450,l),
(-20,450,l),
(-20,440,l),
(7,440,ls),
(24,440,o),
(40,431,o),
(52,415,cs),
(203,204,l),
(204,203,l),
(76,35,ls),
(64,20,o),
(44,10,o),
(20,10,cs),
(-15,10,l),
(-15,0,l),
(144,0,l),
(144,10,l),
(118,10,ls),
(91,10,o),
(83,19,o),
(95,35,cs),
(216,187,l),
(319,35,ls),
(331,18,o),
(324,10,o),
(299,10,cs),
(264,10,l),
(264,0,l)
);
}
);
width = 530;
},
{
anchors = (
{
name = bottom;
pos = (245,0);
},
{
name = top;
pos = (245,460);
}
);
layerId = m002;
shapes = (
{
closed = 1;
nodes = (
(510,0,l),
(510,30,l),
(483,30,ls),
(466,30,o),
(451,39,o),
(439,55,cs),
(290,254,l),
(288,256,l),
(422,409,ls),
(433,422,o),
(451,430,o),
(471,430,cs),
(485,430,l),
(485,460,l),
(326,460,l),
(326,430,l),
(354,430,ls),
(385,430,o),
(395,422,o),
(384,409,cs),
(272,280,l),
(171,405,ls),
(158,421,o),
(166,430,o),
(191,430,cs),
(227,430,l),
(227,460,l),
(-20,460,l),
(-20,430,l),
(7,430,ls),
(24,430,o),
(40,421,o),
(52,405,cs),
(201,217,l),
(202,216,l),
(56,55,ls),
(43,41,o),
(24,30,o),
(0,30,cs),
(-15,30,l),
(-15,0,l),
(144,0,l),
(144,30,l),
(118,30,ls),
(91,30,o),
(82,40,o),
(95,55,cs),
(219,193,l),
(319,55,ls),
(331,38,o),
(324,30,o),
(299,30,cs),
(264,30,l),
(264,0,l)
);
}
);
width = 530;
}
);
unicode = 120;
},
{
glyphname = y;
lastChange = "2024-03-25 16:22:20 +0000";
layers = (
{
anchors = (
{
name = bottom;
pos = (241,0);
},
{
name = top;
pos = (241,450);
}
);
layerId = m01;
shapes = (
{
closed = 1;
nodes = (
(363,450,l),
(363,437,l),
(390,437,ls),
(422,437,o),
(441,421,o),
(432,402,cs),
(208,-102,l),
(209,-131,l),
(447,402,ls),
(456,421,o),
(478,437,o),
(497,437,cs),
(522,437,l),
(522,450,l)
);
},
{
closed = 1;
nodes = (
(138,410,ls),
(130,426,o),
(152,437,o),
(175,437,cs),
(211,437,l),
(211,450,l),
(-40,450,l),
(-40,437,l),
(-12,437,ls),
(16,437,o),
(24,427,o),
(32,410,cs),
(244,-32,l),
(297,88,l)
);
},
{
closed = 1;
nodes = (
(208,-102,l),
(200,-119,o),
(186,-125,o),
(165,-125,cs),
(141,-125,o),
(143,-95,o),
(90,-95,cs),
(54,-95,o),
(28,-119,o),
(28,-154,cs),
(28,-190,o),
(54,-215,o),
(90,-215,cs),
(144,-215,o),
(187,-179,o),
(209,-131,c)
);
}
);
width = 522;
},
{
anchors = (
{
name = bottom;
pos = (241,0);
},
{
name = top;
pos = (241,460);
}
);
layerId = m002;
shapes = (
{
closed = 1;
nodes = (
(363,460,l),
(363,427,l),
(390,427,ls),
(422,427,o),
(421,411,o),
(412,392,cs),
(188,-102,l),
(209,-131,l),
(447,392,ls),
(456,411,o),
(478,427,o),
(497,427,cs),
(522,427,l),
(522,460,l)
);
},
{
closed = 1;
nodes = (
(138,400,ls),
(130,416,o),
(152,427,o),
(175,427,cs),
(211,427,l),
(211,460,l),
(-40,460,l),
(-40,427,l),
(-12,427,ls),
(16,427,o),
(24,417,o),
(32,400,cs),
(244,-32,l),
(297,88,l)
);
},
{
closed = 1;
nodes = (
(188,-102,l),
(180,-119,o),
(176,-125,o),
(155,-125,cs),
(131,-125,o),
(143,-95,o),
(90,-95,cs),
(54,-95,o),
(28,-119,o),
(28,-154,cs),
(28,-190,o),
(54,-215,o),
(90,-215,cs),
(144,-215,o),
(187,-179,o),
(209,-131,c)
);
}
);
width = 522;
}
);
unicode = 121;
},
{
glyphname = z;
lastChange = "2024-03-25 16:22:58 +0000";
layers = (
{
anchors = (
{
name = bottom;
pos = (254,0);
},
{
name = center;
pos = (254,225);
},
{
name = top;
pos = (254,450);
}
);
layerId = m01;
shapes = (
{
closed = 1;
nodes = (
(74,321,l),
(74,351,ls),
(74,390,o),
(114,438,o),
(165,438,cs),
(421,438,l),
(421,450,l),
(59,450,l),
(59,321,l)
);
},
{
closed = 1;
nodes = (
(447,129,l),
(447,99,ls),
(447,60,o),
(406,12,o),
(355,12,cs),
(75,12,l),
(75,0,l),
(462,0,l),
(462,129,l)
);
},
{
closed = 1;
nodes = (
(477,450,l),
(355,450,l),
(30,0,l),
(141,0,l)
);
}
);
width = 507;
},
{
anchors = (
{
name = bottom;
pos = (254,0);
},
{
name = center;
pos = (254,230);
},
{
name = top;
pos = (254,460);
}
);
layerId = m002;
shapes = (
{
closed = 1;
nodes = (
(84,311,l),
(84,341,ls),
(84,380,o),
(124,428,o),
(175,428,cs),
(421,428,l),
(421,460,l),
(59,460,l),
(59,311,l)
);
},
{
closed = 1;
nodes = (
(437,149,l),
(437,119,ls),
(437,80,o),
(396,32,o),
(345,32,cs),
(75,32,l),
(75,0,l),
(462,0,l),
(462,149,l)
);
},
{
closed = 1;
nodes = (
(477,460,l),
(355,460,l),
(30,0,l),
(141,0,l)
);
}
);
width = 507;
}
);
unicode = 122;
},
{
glyphname = zero;
lastChange = "2024-03-24 19:46:46 +0000";
layers = (
{
layerId = m01;
shapes = (
{
closed = 1;
nodes = (
(465,-16,o),
(555,116,o),
(555,354,cs),
(555,587,o),
(465,716,o),
(303,716,cs),
(140,716,o),
(50,587,o),
(50,354,cs),
(50,116,o),
(140,-16,o),
(303,-16,cs)
);
},
{
closed = 1;
nodes = (
(188,-6,o),
(170,123,o),
(170,354,cs),
(170,580,o),
(188,706,o),
(303,706,cs),
(418,706,o),
(435,580,o),
(435,354,cs),
(435,123,o),
(418,-6,o),
(303,-6,cs)
);
}
);
width = 600;
},
{
layerId = m002;
shapes = (
{
closed = 1;
nodes = (
(465,-16,o),
(555,116,o),
(555,354,cs),
(555,587,o),
(465,716,o),
(303,716,cs),
(140,716,o),
(50,587,o),
(50,354,cs),
(50,116,o),
(140,-16,o),
(303,-16,cs)
);
},
{
closed = 1;
nodes = (
(188,14,o),
(170,123,o),
(170,354,cs),
(170,580,o),
(188,686,o),
(303,686,cs),
(418,686,o),
(435,580,o),
(435,354,cs),
(435,123,o),
(418,14,o),
(303,14,cs)
);
}
);
width = 600;
}
);
unicode = 48;
},
{
glyphname = one;
lastChange = "2024-03-24 19:46:55 +0000";
layers = (
{
layerId = m01;
shapes = (
{
closed = 1;
nodes = (
(170,48,ls),
(170,24,o),
(154,10,o),
(125,10,cs),
(82,10,l),
(82,0,l),
(358,0,l),
(358,10,l),
(325,10,ls),
(290,10,o),
(270,24,o),
(270,48,cs),
(270,652,l),
(270,700,l),
(32,610,l),
(32,600,l),
(125,600,ls),
(154,600,o),
(170,586,o),
(170,562,cs)
);
}
);
width = 420;
},
{
layerId = m002;
shapes = (
{
closed = 1;
nodes = (
(170,68,ls),
(170,44,o),
(154,30,o),
(125,30,cs),
(82,30,l),
(82,0,l),
(358,0,l),
(358,30,l),
(325,30,ls),
(290,30,o),
(270,44,o),
(270,68,cs),
(270,652,l),
(270,700,l),
(32,610,l),
(32,580,l),
(125,580,ls),
(154,580,o),
(170,566,o),
(170,542,cs)
);
}
);
width = 420;
}
);
unicode = 49;
},
{
glyphname = two;
lastChange = "2024-03-25 16:24:55 +0000";
layers = (
{
layerId = m01;
shapes = (
{
closed = 1;
nodes = (
(519,0,l),
(519,160,l),
(509,160,l),
(509,100,l),
(163,100,l),
(433,297,o),
(511,375,o),
(511,500,cs),
(511,617,o),
(429,710,o),
(257,710,cs),
(148,710,o),
(61,625,o),
(61,518,cs),
(61,483,o),
(89,455,o),
(125,455,cs),
(158,455,o),
(184,482,o),
(184,517,cs),
(184,549,o),
(158,575,o),
(125,575,c),
(98,575,o),
(84,589,o),
(94,606,cs),
(125,662,o),
(186,700,o),
(257,700,cs),
(362,700,o),
(391,611,o),
(391,500,cs),
(391,339,o),
(359,260,o),
(79,50,c),
(79,0,l)
);
}
);
width = 600;
},
{
layerId = m002;
shapes = (
{
closed = 1;
nodes = (
(519,0,l),
(519,160,l),
(499,160,l),
(499,100,l),
(183,100,l),
(453,297,o),
(511,375,o),
(511,500,cs),
(511,617,o),
(429,710,o),
(257,710,cs),
(148,710,o),
(61,625,o),
(61,518,cs),
(61,483,o),
(89,455,o),
(125,455,cs),
(158,455,o),
(184,482,o),
(184,517,cs),
(184,549,o),
(158,575,o),
(125,575,c),
(104,575,o),
(97,588,o),
(108,606,cs),
(136,654,o),
(188,680,o),
(257,680,cs),
(362,680,o),
(391,611,o),
(391,500,cs),
(391,339,o),
(359,260,o),
(79,50,c),
(79,0,l)
);
}
);
width = 600;
},
{
associatedMasterId = m01;
layerId = "02F763CD-A63E-430B-AF1F-0B63422E7C54";
name = "25. M채rz 24, 17:23";
shapes = (
{
closed = 1;
nodes = (
(519,0,l),
(519,160,l),
(509,160,l),
(509,100,l),
(163,100,l),
(433,297,o),
(511,375,o),
(511,500,cs),
(511,617,o),
(429,710,o),
(257,710,cs),
(148,710,o),
(61,625,o),
(61,518,cs),
(61,483,o),
(89,455,o),
(125,455,cs),
(158,455,o),
(184,482,o),
(184,517,cs),
(184,549,o),
(158,575,o),
(125,575,c),
(95,575,o),
(71,551,o),
(71,520,cs),
(71,500,o),
(71,505,o),
(71,519,cs),
(71,620,o),
(153,700,o),
(257,700,cs),
(362,700,o),
(391,611,o),
(391,500,cs),
(391,339,o),
(359,260,o),
(79,50,c),
(79,0,l)
);
}
);
width = 600;
}
);
unicode = 50;
},
{
glyphname = three;
lastChange = "2024-03-25 16:28:29 +0000";
layers = (
{
layerId = m01;
shapes = (
{
closed = 1;
nodes = (
(229,372,l),
(336,372,o),
(403,306,o),
(403,201,cs),
(403,77,o),
(351,-1,o),
(269,-2,cs),
(203,-2,o),
(152,14,o),
(122,44,cs),
(111,55,o),
(121,62,o),
(147,62,c),
(183,62,o),
(206,83,o),
(206,116,cs),
(206,152,o),
(183,174,o),
(147,174,cs),
(108,174,o),
(83,151,o),
(83,115,cs),
(83,38,o),
(155,-10,o),
(269,-10,cs),
(425,-10,o),
(523,71,o),
(523,201,cs),
(523,311,o),
(410,380,o),
(229,380,c)
);
},
{
closed = 1;
nodes = (
(229,371,l),
(397,371,o),
(503,432,o),
(503,528,cs),
(503,642,o),
(413,714,o),
(269,714,cs),
(155,714,o),
(83,668,o),
(83,595,cs),
(83,558,o),
(108,534,o),
(147,534,cs),
(183,534,o),
(206,557,o),
(206,594,cs),
(206,629,o),
(183,651,o),
(147,651,c),
(123,651,o),
(115,658,o),
(127,668,cs),
(158,693,o),
(206,707,o),
(269,707,cs),
(339,707,o),
(383,638,o),
(383,528,cs),
(383,436,o),
(324,378,o),
(229,378,c)
);
}
);
width = 600;
},
{
layerId = m002;
shapes = (
{
closed = 1;
nodes = (
(229,362,l),
(336,362,o),
(403,306,o),
(403,201,cs),
(403,77,o),
(351,19,o),
(269,18,cs),
(207,18,o),
(169,26,o),
(143,47,cs),
(132,56,o),
(130,62,o),
(147,62,c),
(183,62,o),
(206,83,o),
(206,116,cs),
(206,152,o),
(183,174,o),
(147,174,cs),
(108,174,o),
(83,151,o),
(83,115,cs),
(83,38,o),
(155,-10,o),
(269,-10,cs),
(425,-10,o),
(523,71,o),
(523,201,cs),
(523,311,o),
(410,390,o),
(229,390,c)
);
},
{
closed = 1;
nodes = (
(229,361,l),
(397,361,o),
(503,432,o),
(503,528,cs),
(503,642,o),
(413,714,o),
(269,714,cs),
(155,714,o),
(93,668,o),
(93,595,cs),
(93,558,o),
(118,534,o),
(157,534,cs),
(193,534,o),
(216,557,o),
(216,594,cs),
(216,629,o),
(193,651,o),
(157,651,c),
(139,651,o),
(142,657,o),
(156,666,cs),
(180,681,o),
(213,687,o),
(269,687,cs),
(339,687,o),
(383,638,o),
(383,528,cs),
(383,436,o),
(324,388,o),
(229,388,c)
);
}
);
width = 600;
},
{
associatedMasterId = m002;
layerId = "B6FDE125-144E-49BF-A36D-CBB4C6C09432";
name = "25. M채rz 24, 17:25";
shapes = (
{
closed = 1;
nodes = (
(229,362,l),
(336,362,o),
(403,306,o),
(403,201,cs),
(403,77,o),
(351,19,o),
(269,18,cs),
(161,18,o),
(109,43,o),
(109,114,cs),
(109,127,o),
(93,132,o),
(93,113,cs),
(93,82,o),
(114,62,o),
(147,62,c),
(183,62,o),
(206,83,o),
(206,116,cs),
(206,152,o),
(183,174,o),
(147,174,cs),
(108,174,o),
(83,151,o),
(83,115,cs),
(83,38,o),
(155,-10,o),
(269,-10,cs),
(425,-10,o),
(523,71,o),
(523,201,cs),
(523,311,o),
(410,390,o),
(229,390,c)
);
},
{
closed = 1;
nodes = (
(229,361,l),
(397,361,o),
(503,432,o),
(503,528,cs),
(503,642,o),
(413,714,o),
(269,714,cs),
(155,714,o),
(93,668,o),
(93,595,cs),
(93,558,o),
(118,534,o),
(157,534,cs),
(193,534,o),
(216,557,o),
(216,594,cs),
(216,629,o),
(193,651,o),
(157,651,c),
(124,651,o),
(103,631,o),
(103,598,cs),
(103,577,o),
(118,582,o),
(118,597,cs),
(118,665,o),
(161,687,o),
(269,687,cs),
(339,687,o),
(383,638,o),
(383,528,cs),
(383,436,o),
(324,388,o),
(229,388,c)
);
}
);
width = 600;
},
{
associatedMasterId = m01;
layerId = "997B24D5-AD02-41E1-8771-48CC8EDEA3F2";
name = "25. M채rz 24, 17:26";
shapes = (
{
closed = 1;
nodes = (
(229,372,l),
(336,372,o),
(403,306,o),
(403,201,cs),
(403,77,o),
(351,-1,o),
(269,-2,cs),
(161,-2,o),
(93,43,o),
(93,114,cs),
(93,127,o),
(93,132,o),
(93,113,cs),
(93,82,o),
(114,62,o),
(147,62,c),
(183,62,o),
(206,83,o),
(206,116,cs),
(206,152,o),
(183,174,o),
(147,174,cs),
(108,174,o),
(83,151,o),
(83,115,cs),
(83,38,o),
(155,-10,o),
(269,-10,cs),
(425,-10,o),
(523,71,o),
(523,201,cs),
(523,311,o),
(410,380,o),
(229,380,c)
);
},
{
closed = 1;
nodes = (
(229,371,l),
(397,371,o),
(503,432,o),
(503,528,cs),
(503,642,o),
(413,714,o),
(269,714,cs),
(155,714,o),
(83,668,o),
(83,595,cs),
(83,558,o),
(108,534,o),
(147,534,cs),
(183,534,o),
(206,557,o),
(206,594,cs),
(206,629,o),
(183,651,o),
(147,651,c),
(114,651,o),
(93,631,o),
(93,598,cs),
(93,577,o),
(93,582,o),
(93,597,cs),
(93,665,o),
(161,707,o),
(269,707,cs),
(339,707,o),
(383,638,o),
(383,528,cs),
(383,436,o),
(324,378,o),
(229,378,c)
);
}
);
width = 600;
}
);
unicode = 51;
},
{
glyphname = four;
lastChange = "2024-03-24 19:48:43 +0000";
layers = (
{
layerId = m01;
shapes = (
{
closed = 1;
nodes = (
(399,0,l),
(399,700,l),
(389,700,l),
(20,152,l),
(486,152,l),
(486,227,l),
(82,227,l),
(299,549,l),
(299,1,l)
);
}
);
width = 560;
},
{
layerId = m002;
shapes = (
{
closed = 1;
nodes = (
(399,0,l),
(399,700,l),
(389,700,l),
(20,152,l),
(486,152,l),
(486,227,l),
(102,227,l),
(299,529,l),
(299,1,l)
);
}
);
width = 560;
}
);
unicode = 52;
},
{
glyphname = five;
lastChange = "2024-03-25 16:29:21 +0000";
layers = (
{
backgroundImage = {
imagePath = "../../../Desktop/Images/five-Regular.tif";
pos = (-11816,-3518);
scale = (11.4476,11.4476);
};
layerId = m01;
shapes = (
{
closed = 1;
nodes = (
(88,370,l),
(98,370,l),
(138,410,o),
(212,441,o),
(266,441,cs),
(371,441,o),
(400,352,o),
(400,239,cs),
(400,106,o),
(371,0,o),
(266,0,cs),
(197,0,o),
(137,26,o),
(105,64,cs),
(100,70,o),
(112,75,o),
(134,75,c),
(167,75,o),
(193,99,o),
(193,133,cs),
(193,168,o),
(167,195,o),
(134,195,cs),
(98,195,o),
(70,167,o),
(70,132,cs),
(70,53,o),
(157,-10,o),
(266,-10,cs),
(438,-10,o),
(520,100,o),
(520,239,cs),
(520,357,o),
(438,451,o),
(266,451,cs),
(210,451,o),
(136,421,o),
(98,383,c),
(98,600,l),
(478,600,l),
(478,771,l),
(468,771,l),
(468,700,l),
(88,700,l)
);
}
);
width = 600;
},
{
backgroundImage = {
imagePath = "../../../Desktop/Images/five-Regular.tif";
pos = (-11816,-3518);
scale = (11.4476,11.4476);
};
layerId = m002;
shapes = (
{
closed = 1;
nodes = (
(88,350,l),
(98,350,l),
(138,390,o),
(212,421,o),
(266,421,cs),
(371,421,o),
(400,352,o),
(400,239,cs),
(400,106,o),
(371,20,o),
(266,20,cs),
(204,20,o),
(156,34,o),
(126,60,cs),
(117,69,o),
(120,75,o),
(134,75,c),
(167,75,o),
(193,99,o),
(193,133,cs),
(193,168,o),
(167,195,o),
(134,195,cs),
(98,195,o),
(70,167,o),
(70,132,cs),
(70,53,o),
(157,-10,o),
(266,-10,cs),
(438,-10,o),
(520,100,o),
(520,239,cs),
(520,357,o),
(438,451,o),
(266,451,cs),
(210,451,o),
(151,421,o),
(113,383,c),
(113,600,l),
(478,600,l),
(478,771,l),
(458,771,l),
(458,700,l),
(88,700,l)
);
}
);
width = 600;
},
{
associatedMasterId = m002;
backgroundImage = {
imagePath = "../../../Desktop/Images/five-Regular.tif";
pos = (-11816,-3518);
scale = (11.4476,11.4476);
};
layerId = "08DA8105-0FF3-4B52-B1B6-742F2AE0EBBC";
name = "25. M채rz 24, 17:28";
shapes = (
{
closed = 1;
nodes = (
(88,350,l),
(98,350,l),
(138,390,o),
(212,421,o),
(266,421,cs),
(371,421,o),
(400,352,o),
(400,239,cs),
(400,106,o),
(371,20,o),
(266,20,cs),
(162,20,o),
(96,58,o),
(96,131,cs),
(96,145,o),
(80,150,o),
(80,130,cs),
(80,98,o),
(104,75,o),
(134,75,c),
(167,75,o),
(193,99,o),
(193,133,cs),
(193,168,o),
(167,195,o),
(134,195,cs),
(98,195,o),
(70,167,o),
(70,132,cs),
(70,53,o),
(157,-10,o),
(266,-10,cs),
(438,-10,o),
(520,100,o),
(520,239,cs),
(520,357,o),
(438,451,o),
(266,451,cs),
(210,451,o),
(151,421,o),
(113,383,c),
(113,600,l),
(478,600,l),
(478,771,l),
(458,771,l),
(458,700,l),
(88,700,l)
);
}
);
width = 600;
}
);
unicode = 53;
},
{
glyphname = six;
lastChange = "2024-03-24 19:49:38 +0000";
layers = (
{
layerId = m01;
shapes = (
{
closed = 1;
nodes = (
(215,711,o),
(69,556,o),
(69,337,cs),
(69,128,o),
(145,-19,o),
(326,-19,cs),
(488,-19,o),
(551,79,o),
(551,217,cs),
(551,330,o),
(458,410,o),
(326,410,cs),
(245,410,o),
(186,335,o),
(183,229,c),
(193,229,l),
(192,320,o),
(247,384,o),
(326,384,cs),
(387,384,o),
(431,315,o),
(431,217,cs),
(431,85,o),
(417,-9,o),
(326,-9,cs),
(216,-9,o),
(189,134,o),
(189,337,cs),
(189,550,o),
(285,700,o),
(474,700,c),
(474,711,l)
);
}
);
width = 600;
},
{
layerId = m002;
shapes = (
{
closed = 1;
nodes = (
(215,711,o),
(69,556,o),
(69,337,cs),
(69,128,o),
(145,-19,o),
(326,-19,cs),
(488,-19,o),
(551,79,o),
(551,217,cs),
(551,330,o),
(458,410,o),
(326,410,cs),
(245,410,o),
(176,335,o),
(173,229,c),
(193,229,l),
(192,320,o),
(247,374,o),
(326,374,cs),
(387,374,o),
(431,315,o),
(431,217,cs),
(431,85,o),
(417,11,o),
(326,11,cs),
(216,11,o),
(189,134,o),
(189,337,cs),
(189,550,o),
(285,680,o),
(474,680,c),
(474,711,l)
);
}
);
width = 600;
}
);
unicode = 54;
},
{
glyphname = seven;
lastChange = "2024-03-24 19:49:53 +0000";
layers = (
{
layerId = m01;
shapes = (
{
closed = 1;
nodes = (
(72,700,l),
(498,700,l),
(270,200,l),
(246,150,o),
(248,110,o),
(275,110,cs),
(303,110,o),
(325,83,o),
(325,50,cs),
(325,17,o),
(298,-10,o),
(265,-10,cs),
(232,-10,o),
(205,17,o),
(205,50,cs),
(205,96,o),
(229,132,o),
(259,198,cs),
(441,600,l),
(82,600,l),
(82,511,l),
(72,511,l)
);
}
);
width = 560;
},
{
layerId = m002;
shapes = (
{
closed = 1;
nodes = (
(72,700,l),
(498,700,l),
(270,200,l),
(246,150,o),
(248,110,o),
(275,110,cs),
(303,110,o),
(325,83,o),
(325,50,cs),
(325,17,o),
(298,-10,o),
(265,-10,cs),
(232,-10,o),
(205,17,o),
(205,50,cs),
(205,96,o),
(214,132,o),
(244,198,cs),
(426,600,l),
(92,600,l),
(92,511,l),
(72,511,l)
);
}
);
width = 560;
}
);
unicode = 55;
},
{
glyphname = eight;
lastChange = "2024-03-24 19:50:09 +0000";
layers = (
{
layerId = m01;
shapes = (
{
closed = 1;
nodes = (
(460,-16,o),
(550,56,o),
(550,186,cs),
(550,313,o),
(460,383,o),
(298,383,cs),
(135,383,o),
(45,313,o),
(45,186,cs),
(45,56,o),
(135,-16,o),
(298,-16,cs)
);
},
{
closed = 1;
nodes = (
(213,-6,o),
(165,63,o),
(165,186,cs),
(165,306,o),
(213,373,o),
(298,373,cs),
(383,373,o),
(430,306,o),
(430,186,cs),
(430,63,o),
(383,-6,o),
(298,-6,cs)
);
},
{
closed = 1;
nodes = (
(434,373,o),
(509,434,o),
(509,543,cs),
(509,652,o),
(434,713,o),
(298,713,cs),
(162,713,o),
(87,652,o),
(87,543,cs),
(87,434,o),
(162,373,o),
(298,373,cs)
);
},
{
closed = 1;
nodes = (
(223,383,o),
(182,440,o),
(182,543,cs),
(182,646,o),
(223,703,o),
(298,703,cs),
(372,703,o),
(413,646,o),
(413,543,cs),
(413,440,o),
(372,383,o),
(298,383,cs)
);
}
);
width = 600;
},
{
layerId = m002;
shapes = (
{
closed = 1;
nodes = (
(460,-16,o),
(550,56,o),
(550,186,cs),
(550,313,o),
(460,393,o),
(298,393,cs),
(135,393,o),
(45,313,o),
(45,186,cs),
(45,56,o),
(135,-16,o),
(298,-16,cs)
);
},
{
closed = 1;
nodes = (
(213,14,o),
(165,63,o),
(165,186,cs),
(165,306,o),
(213,363,o),
(298,363,cs),
(383,363,o),
(430,306,o),
(430,186,cs),
(430,63,o),
(383,14,o),
(298,14,cs)
);
},
{
closed = 1;
nodes = (
(434,363,o),
(509,434,o),
(509,543,cs),
(509,652,o),
(434,713,o),
(298,713,cs),
(162,713,o),
(87,652,o),
(87,543,cs),
(87,434,o),
(162,363,o),
(298,363,cs)
);
},
{
closed = 1;
nodes = (
(223,393,o),
(182,440,o),
(182,543,cs),
(182,646,o),
(223,683,o),
(298,683,cs),
(372,683,o),
(413,646,o),
(413,543,cs),
(413,440,o),
(372,393,o),
(298,393,cs)
);
}
);
width = 600;
}
);
unicode = 56;
},
{
glyphname = nine;
lastChange = "2024-03-24 19:50:26 +0000";
layers = (
{
layerId = m01;
shapes = (
{
closed = 1;
nodes = (
(389,-19,o),
(535,136,o),
(535,355,cs),
(535,564,o),
(459,711,o),
(278,711,cs),
(116,711,o),
(53,613,o),
(53,475,cs),
(53,362,o),
(146,282,o),
(278,282,cs),
(359,282,o),
(418,357,o),
(421,463,c),
(411,463,l),
(412,372,o),
(357,308,o),
(278,308,cs),
(217,308,o),
(173,377,o),
(173,475,cs),
(173,607,o),
(187,701,o),
(278,701,cs),
(388,701,o),
(415,558,o),
(415,355,cs),
(415,142,o),
(319,-8,o),
(130,-8,c),
(130,-19,l)
);
}
);
width = 600;
},
{
layerId = m002;
shapes = (
{
closed = 1;
nodes = (
(389,-19,o),
(535,136,o),
(535,355,cs),
(535,564,o),
(459,711,o),
(278,711,cs),
(116,711,o),
(53,613,o),
(53,475,cs),
(53,362,o),
(146,282,o),
(278,282,cs),
(359,282,o),
(428,357,o),
(431,463,c),
(411,463,l),
(412,372,o),
(357,318,o),
(278,318,cs),
(217,318,o),
(173,377,o),
(173,475,cs),
(173,607,o),
(187,681,o),
(278,681,cs),
(388,681,o),
(415,558,o),
(415,355,cs),
(415,142,o),
(319,12,o),
(130,12,c),
(130,-19,l)
);
}
);
width = 600;
}
);
unicode = 57;
},
{
glyphname = period;
lastChange = "2024-03-24 17:20:14 +0000";
layers = (
{
layerId = m01;
shapes = (
{
closed = 1;
nodes = (
(181,-6,o),
(208,21,o),
(208,52,cs),
(208,84,o),
(181,110,o),
(150,110,cs),
(119,110,o),
(92,84,o),
(92,52,cs),
(92,21,o),
(119,-6,o),
(150,-6,cs)
);
}
);
width = 300;
},
{
layerId = m002;
shapes = (
{
closed = 1;
nodes = (
(181,-6,o),
(208,21,o),
(208,52,cs),
(208,84,o),
(181,110,o),
(150,110,cs),
(119,110,o),
(92,84,o),
(92,52,cs),
(92,21,o),
(119,-6,o),
(150,-6,cs)
);
}
);
width = 300;
}
);
unicode = 46;
},
{
glyphname = comma;
lastChange = "2024-03-26 19:33:46 +0000";
layers = (
{
layerId = m01;
shapes = (
{
closed = 1;
nodes = (
(193,-6,o),
(219,20,o),
(219,52,cs),
(219,84,o),
(193,110,o),
(161,110,cs),
(129,110,o),
(103,84,o),
(103,52,cs),
(103,20,o),
(129,-6,o),
(161,-6,cs)
);
},
{
closed = 1;
nodes = (
(181,-17,o),
(134,-116,o),
(89,-141,c),
(94,-150,l),
(163,-103,o),
(219,-13,o),
(219,52,c),
(181,32,l)
);
}
);
width = 300;
},
{
layerId = m002;
shapes = (
{
closed = 1;
nodes = (
(193,-6,o),
(219,20,o),
(219,52,cs),
(219,84,o),
(193,110,o),
(161,110,cs),
(129,110,o),
(103,84,o),
(103,52,cs),
(103,20,o),
(129,-6,o),
(161,-6,cs)
);
},
{
closed = 1;
nodes = (
(156,-39,o),
(120,-98,o),
(75,-123,c),
(94,-151,l),
(164,-103,o),
(219,-13,o),
(219,52,c),
(156,10,l)
);
}
);
width = 300;
}
);
unicode = 44;
},
{
glyphname = colon;
lastChange = "2024-03-26 20:16:31 +0000";
layers = (
{
layerId = m01;
shapes = (
{
closed = 1;
nodes = (
(181,-6,o),
(208,21,o),
(208,52,cs),
(208,84,o),
(181,110,o),
(150,110,cs),
(119,110,o),
(92,84,o),
(92,52,cs),
(92,21,o),
(119,-6,o),
(150,-6,cs)
);
},
{
closed = 1;
nodes = (
(181,340,o),
(208,367,o),
(208,398,cs),
(208,430,o),
(181,456,o),
(150,456,cs),
(119,456,o),
(92,430,o),
(92,398,cs),
(92,367,o),
(119,340,o),
(150,340,cs)
);
}
);
width = 300;
},
{
layerId = m002;
shapes = (
{
closed = 1;
nodes = (
(181,-6,o),
(208,21,o),
(208,52,cs),
(208,84,o),
(181,110,o),
(150,110,cs),
(119,110,o),
(92,84,o),
(92,52,cs),
(92,21,o),
(119,-6,o),
(150,-6,cs)
);
},
{
closed = 1;
nodes = (
(181,340,o),
(208,367,o),
(208,398,cs),
(208,430,o),
(181,456,o),
(150,456,cs),
(119,456,o),
(92,430,o),
(92,398,cs),
(92,367,o),
(119,340,o),
(150,340,cs)
);
}
);
width = 300;
}
);
unicode = 58;
},
{
glyphname = semicolon;
lastChange = "2024-03-26 20:16:57 +0000";
layers = (
{
layerId = m01;
shapes = (
{
closed = 1;
nodes = (
(180,340,o),
(207,367,o),
(207,398,cs),
(207,430,o),
(180,456,o),
(149,456,cs),
(118,456,o),
(91,430,o),
(91,398,cs),
(91,367,o),
(118,340,o),
(149,340,cs)
);
},
{
closed = 1;
nodes = (
(182,-6,o),
(208,20,o),
(208,52,cs),
(208,84,o),
(182,110,o),
(150,110,cs),
(118,110,o),
(92,84,o),
(92,52,cs),
(92,20,o),
(118,-6,o),
(150,-6,cs)
);
},
{
closed = 1;
nodes = (
(145,-39,o),
(109,-98,o),
(64,-123,c),
(83,-151,l),
(153,-103,o),
(208,-13,o),
(208,52,c),
(145,10,l)
);
}
);
width = 300;
},
{
layerId = m002;
shapes = (
{
closed = 1;
nodes = (
(182,340,o),
(209,367,o),
(209,398,cs),
(209,430,o),
(182,456,o),
(151,456,cs),
(120,456,o),
(93,430,o),
(93,398,cs),
(93,367,o),
(120,340,o),
(151,340,cs)
);
},
{
closed = 1;
nodes = (
(184,-6,o),
(210,20,o),
(210,52,cs),
(210,84,o),
(184,110,o),
(152,110,cs),
(120,110,o),
(94,84,o),
(94,52,cs),
(94,20,o),
(120,-6,o),
(152,-6,cs)
);
},
{
closed = 1;
nodes = (
(147,-39,o),
(111,-98,o),
(66,-123,c),
(85,-151,l),
(155,-103,o),
(210,-13,o),
(210,52,c),
(147,10,l)
);
}
);
width = 300;
}
);
unicode = 59;
},
{
glyphname = ellipsis;
lastChange = "2024-03-24 17:20:14 +0000";
layers = (
{
layerId = m01;
shapes = (
{
closed = 1;
nodes = (
(91,-6,o),
(118,21,o),
(118,52,cs),
(118,84,o),
(91,110,o),
(60,110,cs),
(29,110,o),
(2,84,o),
(2,52,cs),
(2,21,o),
(29,-6,o),
(60,-6,cs)
);
},
{
closed = 1;
nodes = (
(331,-6,o),
(358,21,o),
(358,52,cs),
(358,84,o),
(331,110,o),
(300,110,cs),
(269,110,o),
(242,84,o),
(242,52,cs),
(242,21,o),
(269,-6,o),
(300,-6,cs)
);
},
{
closed = 1;
nodes = (
(571,-6,o),
(598,21,o),
(598,52,cs),
(598,84,o),
(571,110,o),
(540,110,cs),
(509,110,o),
(482,84,o),
(482,52,cs),
(482,21,o),
(509,-6,o),
(540,-6,cs)
);
}
);
width = 600;
},
{
layerId = m002;
shapes = (
{
closed = 1;
nodes = (
(91,-6,o),
(118,21,o),
(118,52,cs),
(118,84,o),
(91,110,o),
(60,110,cs),
(29,110,o),
(2,84,o),
(2,52,cs),
(2,21,o),
(29,-6,o),
(60,-6,cs)
);
},
{
closed = 1;
nodes = (
(331,-6,o),
(358,21,o),
(358,52,cs),
(358,84,o),
(331,110,o),
(300,110,cs),
(269,110,o),
(242,84,o),
(242,52,cs),
(242,21,o),
(269,-6,o),
(300,-6,cs)
);
},
{
closed = 1;
nodes = (
(571,-6,o),
(598,21,o),
(598,52,cs),
(598,84,o),
(571,110,o),
(540,110,cs),
(509,110,o),
(482,84,o),
(482,52,cs),
(482,21,o),
(509,-6,o),
(540,-6,cs)
);
}
);
width = 600;
}
);
unicode = 8230;
},
{
glyphname = exclam;
lastChange = "2024-03-26 20:16:04 +0000";
layers = (
{
layerId = m01;
shapes = (
{
closed = 1;
nodes = (
(223,715,o),
(243,700,o),
(243,664,cs),
(243,585,o),
(224,366,o),
(224,275,cs),
(224,233,l),
(178,233,l),
(178,275,ls),
(178,366,o),
(157,585,o),
(157,664,cs),
(157,707,o),
(180,715,o),
(198,715,cs)
);
},
{
closed = 1;
nodes = (
(231,-6,o),
(258,21,o),
(258,52,cs),
(258,84,o),
(231,110,o),
(200,110,cs),
(169,110,o),
(142,84,o),
(142,52,cs),
(142,21,o),
(169,-6,o),
(200,-6,cs)
);
}
);
width = 400;
},
{
layerId = m002;
shapes = (
{
closed = 1;
nodes = (
(223,715,o),
(243,700,o),
(243,664,cs),
(243,585,o),
(224,366,o),
(224,275,cs),
(224,233,l),
(178,233,l),
(178,275,ls),
(178,366,o),
(157,585,o),
(157,664,cs),
(157,707,o),
(180,715,o),
(198,715,cs)
);
},
{
closed = 1;
nodes = (
(231,-6,o),
(258,21,o),
(258,52,cs),
(258,84,o),
(231,110,o),
(200,110,cs),
(169,110,o),
(142,84,o),
(142,52,cs),
(142,21,o),
(169,-6,o),
(200,-6,cs)
);
}
);
width = 400;
}
);
unicode = 33;
},
{
glyphname = question;
lastChange = "2024-03-26 20:15:29 +0000";
layers = (
{
layerId = m01;
shapes = (
{
closed = 1;
nodes = (
(114,485,o),
(90,514,o),
(90,550,cs),
(90,642,o),
(178,716,o),
(288,716,cs),
(411,716,o),
(509,639,o),
(509,542,cs),
(509,429,o),
(336,453,o),
(336,259,cs),
(336,227,o),
(313,201,o),
(284,201,cs),
(257,201,o),
(236,227,o),
(236,259,cs),
(236,355,o),
(399,314,o),
(399,542,cs),
(399,633,o),
(350,706,o),
(288,706,cs),
(221,706,o),
(167,661,o),
(167,605,cs),
(167,585,o),
(210,567,o),
(210,550,cs),
(210,514,o),
(181,485,o),
(145,485,cs)
);
},
{
closed = 1;
nodes = (
(320,-6,o),
(347,21,o),
(347,52,cs),
(347,84,o),
(320,110,o),
(289,110,cs),
(258,110,o),
(231,84,o),
(231,52,cs),
(231,21,o),
(258,-6,o),
(289,-6,cs)
);
}
);
width = 600;
},
{
layerId = m002;
shapes = (
{
closed = 1;
nodes = (
(94,485,o),
(70,514,o),
(70,550,cs),
(70,642,o),
(158,716,o),
(268,716,cs),
(391,716,o),
(489,639,o),
(489,542,cs),
(489,429,o),
(316,453,o),
(316,259,cs),
(316,227,o),
(293,201,o),
(264,201,cs),
(237,201,o),
(216,227,o),
(216,259,cs),
(216,355,o),
(379,314,o),
(379,542,cs),
(379,633,o),
(330,706,o),
(268,706,cs),
(201,706,o),
(147,661,o),
(147,605,cs),
(147,585,o),
(190,567,o),
(190,550,cs),
(190,514,o),
(161,485,o),
(125,485,cs)
);
},
{
closed = 1;
nodes = (
(300,-6,o),
(327,21,o),
(327,52,cs),
(327,84,o),
(300,110,o),
(269,110,cs),
(238,110,o),
(211,84,o),
(211,52,cs),
(211,21,o),
(238,-6,o),
(269,-6,cs)
);
}
);
width = 560;
}
);
unicode = 63;
},
{
glyphname = periodcentered;
lastChange = "2024-03-24 17:20:14 +0000";
layers = (
{
layerId = m01;
shapes = (
{
closed = 1;
nodes = (
(331,234,o),
(358,261,o),
(358,292,cs),
(358,324,o),
(331,350,o),
(300,350,cs),
(269,350,o),
(242,324,o),
(242,292,cs),
(242,261,o),
(269,234,o),
(300,234,cs)
);
}
);
width = 600;
},
{
layerId = m002;
shapes = (
{
closed = 1;
nodes = (
(331,234,o),
(358,261,o),
(358,292,cs),
(358,324,o),
(331,350,o),
(300,350,cs),
(269,350,o),
(242,324,o),
(242,292,cs),
(242,261,o),
(269,234,o),
(300,234,cs)
);
}
);
width = 600;
}
);
unicode = 183;
},
{
glyphname = asterisk;
lastChange = "2024-03-24 17:20:14 +0000";
layers = (
{
layerId = m01;
shapes = (
{
closed = 1;
nodes = (
(202,458,o),
(280,524,o),
(296,536,c),
(294,516,o),
(276,416,o),
(276,389,cs),
(276,374,o),
(289,371,o),
(300,371,cs),
(314,371,o),
(325,376,o),
(325,389,cs),
(325,415,o),
(307,514,o),
(305,535,c),
(324,522,o),
(399,458,o),
(421,445,cs),
(434,437,o),
(444,447,o),
(449,457,cs),
(456,469,o),
(457,481,o),
(446,487,cs),
(423,500,o),
(326,535,o),
(309,543,c),
(326,551,o),
(423,586,o),
(446,599,cs),
(457,605,o),
(456,617,o),
(449,629,cs),
(444,639,o),
(434,649,o),
(421,641,cs),
(399,628,o),
(324,564,o),
(305,551,c),
(307,572,o),
(325,671,o),
(325,697,cs),
(325,710,o),
(314,715,o),
(300,715,cs),
(289,715,o),
(276,712,o),
(276,697,cs),
(276,670,o),
(294,570,o),
(296,550,c),
(280,562,o),
(202,628,o),
(179,641,cs),
(168,648,o),
(158,641,o),
(151,629,cs),
(146,619,o),
(142,606,o),
(155,599,cs),
(178,586,o),
(275,551,o),
(292,543,c),
(275,535,o),
(178,500,o),
(155,487,cs),
(142,480,o),
(146,467,o),
(151,457,cs),
(158,445,o),
(168,438,o),
(179,445,cs)
);
}
);
width = 600;
},
{
layerId = m002;
shapes = (
{
closed = 1;
nodes = (
(202,458,o),
(280,524,o),
(296,536,c),
(294,516,o),
(276,416,o),
(276,389,cs),
(276,374,o),
(289,371,o),
(300,371,cs),
(314,371,o),
(325,376,o),
(325,389,cs),
(325,415,o),
(307,514,o),
(305,535,c),
(324,522,o),
(399,458,o),
(421,445,cs),
(434,437,o),
(444,447,o),
(449,457,cs),
(456,469,o),
(457,481,o),
(446,487,cs),
(423,500,o),
(326,535,o),
(309,543,c),
(326,551,o),
(423,586,o),
(446,599,cs),
(457,605,o),
(456,617,o),
(449,629,cs),
(444,639,o),
(434,649,o),
(421,641,cs),
(399,628,o),
(324,564,o),
(305,551,c),
(307,572,o),
(325,671,o),
(325,697,cs),
(325,710,o),
(314,715,o),
(300,715,cs),
(289,715,o),
(276,712,o),
(276,697,cs),
(276,670,o),
(294,570,o),
(296,550,c),
(280,562,o),
(202,628,o),
(179,641,cs),
(168,648,o),
(158,641,o),
(151,629,cs),
(146,619,o),
(142,606,o),
(155,599,cs),
(178,586,o),
(275,551,o),
(292,543,c),
(275,535,o),
(178,500,o),
(155,487,cs),
(142,480,o),
(146,467,o),
(151,457,cs),
(158,445,o),
(168,438,o),
(179,445,cs)
);
}
);
width = 600;
}
);
unicode = 42;
},
{
glyphname = numbersign;
lastChange = "2024-03-24 17:20:14 +0000";
layers = (
{
layerId = m01;
shapes = (
{
closed = 1;
nodes = (
(66,350,l),
(566,350,l),
(586,450,l),
(86,450,l)
);
},
{
closed = 1;
nodes = (
(26,150,l),
(526,150,l),
(546,250,l),
(46,250,l)
);
},
{
closed = 1;
nodes = (
(142,0,l),
(157,0,l),
(277,620,l),
(262,620,l)
);
},
{
closed = 1;
nodes = (
(322,0,l),
(337,0,l),
(457,620,l),
(442,620,l)
);
}
);
width = 600;
},
{
layerId = m002;
shapes = (
{
closed = 1;
nodes = (
(66,350,l),
(566,350,l),
(586,450,l),
(86,450,l)
);
},
{
closed = 1;
nodes = (
(26,150,l),
(526,150,l),
(546,250,l),
(46,250,l)
);
},
{
closed = 1;
nodes = (
(142,0,l),
(157,0,l),
(277,620,l),
(262,620,l)
);
},
{
closed = 1;
nodes = (
(322,0,l),
(337,0,l),
(457,620,l),
(442,620,l)
);
}
);
width = 600;
}
);
unicode = 35;
},
{
glyphname = slash;
lastChange = "2024-03-28 13:20:09 +0000";
layers = (
{
layerId = m01;
shapes = (
{
closed = 1;
nodes = (
(127,-158,l),
(143,-158,l),
(477,700,l),
(461,700,l)
);
}
);
width = 600;
},
{
layerId = m002;
shapes = (
{
closed = 1;
nodes = (
(111,-158,l),
(143,-158,l),
(477,700,l),
(445,700,l)
);
}
);
width = 600;
}
);
unicode = 47;
},
{
glyphname = backslash;
lastChange = "2024-03-24 17:20:14 +0000";
layers = (
{
layerId = m01;
shapes = (
{
closed = 1;
nodes = (
(456,-158,l),
(504,-158,l),
(170,700,l),
(122,700,l)
);
}
);
width = 600;
},
{
layerId = m002;
shapes = (
{
closed = 1;
nodes = (
(456,-158,l),
(504,-158,l),
(170,700,l),
(122,700,l)
);
}
);
width = 600;
}
);
unicode = 92;
},
{
color = 1;
glyphname = periodcentered.loclCAT;
lastChange = "2024-03-26 19:17:21 +0000";
layers = (
{
layerId = m01;
shapes = (
{
closed = 1;
nodes = (
(331,234,o),
(358,261,o),
(358,292,cs),
(358,324,o),
(331,350,o),
(300,350,cs),
(269,350,o),
(242,324,o),
(242,292,cs),
(242,261,o),
(269,234,o),
(300,234,cs)
);
}
);
width = 600;
},
{
layerId = m002;
shapes = (
{
closed = 1;
nodes = (
(331,234,o),
(358,261,o),
(358,292,cs),
(358,324,o),
(331,350,o),
(300,350,cs),
(269,350,o),
(242,324,o),
(242,292,cs),
(242,261,o),
(269,234,o),
(300,234,cs)
);
}
);
width = 600;
}
);
},
{
color = 1;
glyphname = periodcentered.loclCAT.case;
lastChange = "2024-03-26 19:17:30 +0000";
layers = (
{
layerId = m01;
shapes = (
{
closed = 1;
nodes = (
(331,234,o),
(358,261,o),
(358,292,cs),
(358,324,o),
(331,350,o),
(300,350,cs),
(269,350,o),
(242,324,o),
(242,292,cs),
(242,261,o),
(269,234,o),
(300,234,cs)
);
}
);
width = 600;
},
{
layerId = m002;
shapes = (
{
closed = 1;
nodes = (
(331,234,o),
(358,261,o),
(358,292,cs),
(358,324,o),
(331,350,o),
(300,350,cs),
(269,350,o),
(242,324,o),
(242,292,cs),
(242,261,o),
(269,234,o),
(300,234,cs)
);
}
);
width = 600;
}
);
},
{
color = 1;
glyphname = hyphen;
lastChange = "2024-03-26 19:17:40 +0000";
layers = (
{
layerId = m01;
shapes = (
{
closed = 1;
nodes = (
(132,253,l),
(468,253,l),
(468,322,l),
(132,322,l)
);
}
);
width = 600;
},
{
layerId = m002;
shapes = (
{
closed = 1;
nodes = (
(132,253,l),
(468,253,l),
(468,322,l),
(132,322,l)
);
}
);
width = 600;
}
);
unicode = 45;
},
{
color = 1;
glyphname = endash;
lastChange = "2024-03-26 19:17:49 +0000";
layers = (
{
layerId = m01;
shapes = (
{
closed = 1;
nodes = (
(56,250,l),
(544,250,l),
(544,325,l),
(56,325,l)
);
}
);
width = 600;
},
{
layerId = m002;
shapes = (
{
closed = 1;
nodes = (
(56,250,l),
(544,250,l),
(544,325,l),
(56,325,l)
);
}
);
width = 600;
}
);
unicode = 8211;
},
{
color = 1;
glyphname = emdash;
lastChange = "2024-03-26 19:17:59 +0000";
layers = (
{
layerId = m01;
shapes = (
{
closed = 1;
nodes = (
(0,244,l),
(600,244,l),
(600,319,l),
(0,319,l)
);
}
);
width = 600;
},
{
layerId = m002;
shapes = (
{
closed = 1;
nodes = (
(0,244,l),
(600,244,l),
(600,319,l),
(0,319,l)
);
}
);
width = 600;
}
);
unicode = 8212;
},
{
color = 1;
glyphname = underscore;
lastChange = "2024-03-26 19:18:06 +0000";
layers = (
{
layerId = m01;
shapes = (
{
closed = 1;
nodes = (
(0,-150,l),
(600,-150,l),
(600,-75,l),
(0,-75,l)
);
}
);
width = 600;
},
{
layerId = m002;
shapes = (
{
closed = 1;
nodes = (
(0,-150,l),
(600,-150,l),
(600,-75,l),
(0,-75,l)
);
}
);
width = 600;
}
);
unicode = 95;
},
{
color = 1;
glyphname = parenleft;
lastChange = "2024-05-20 15:18:50 +0000";
layers = (
{
layerId = m01;
shapes = (
{
closed = 1;
nodes = (
(298,-139,l),
(237,-55,o),
(211,83,o),
(211,323,cs),
(211,495,o),
(236,610,o),
(294,707,c),
(284,713,l),
(163,579,o),
(111,462,o),
(111,323,cs),
(111,110,o),
(164,-31,o),
(288,-147,c)
);
}
);
width = 380;
},
{
layerId = m002;
shapes = (
{
closed = 1;
nodes = (
(398,-129,l),
(330,-37,o),
(301,98,o),
(301,323,cs),
(301,476,o),
(329,589,o),
(394,697,c),
(364,723,l),
(250,597,o),
(201,477,o),
(201,323,cs),
(201,94,o),
(250,-50,o),
(363,-157,c)
);
}
);
width = 600;
}
);
unicode = 40;
},
{
color = 1;
glyphname = parenright;
lastChange = "2024-05-20 15:19:13 +0000";
layers = (
{
layerId = m01;
shapes = (
{
closed = 1;
nodes = (
(215,-31,o),
(268,110,o),
(268,323,cs),
(268,462,o),
(216,579,o),
(95,713,c),
(85,707,l),
(143,610,o),
(168,495,o),
(168,323,cs),
(168,83,o),
(142,-55,o),
(81,-139,c),
(91,-147,l)
);
}
);
width = 380;
},
{
layerId = m002;
shapes = (
{
closed = 1;
nodes = (
(349,-30,o),
(398,90,o),
(398,244,cs),
(398,473,o),
(349,617,o),
(236,724,c),
(201,696,l),
(269,604,o),
(298,469,o),
(298,244,cs),
(298,91,o),
(270,-22,o),
(205,-130,c),
(235,-156,l)
);
}
);
width = 600;
}
);
unicode = 41;
},
{
color = 1;
glyphname = braceleft;
lastChange = "2024-03-26 19:30:31 +0000";
layers = (
{
layerId = m01;
shapes = (
{
closed = 1;
nodes = (
(471,696,l),
(397,696,o),
(344,659,o),
(344,607,cs),
(344,404,ls),
(344,336,o),
(262,288,o),
(184,288,c),
(262,288,o),
(344,240,o),
(344,173,cs),
(344,-22,ls),
(344,-89,o),
(397,-136,o),
(472,-136,c),
(472,-149,l),
(354,-149,o),
(244,-93,o),
(244,-15,cs),
(244,173,ls),
(244,240,o),
(207,288,o),
(154,288,cs),
(202,288,o),
(236,336,o),
(236,404,cs),
(236,598,ls),
(236,663,o),
(349,709,o),
(471,709,c)
);
}
);
width = 600;
},
{
layerId = m002;
shapes = (
{
closed = 1;
nodes = (
(471,679,l),
(397,679,o),
(344,650,o),
(344,598,cs),
(344,404,ls),
(344,336,o),
(322,288,o),
(244,288,c),
(322,288,o),
(344,240,o),
(344,173,cs),
(344,-15,ls),
(344,-82,o),
(397,-119,o),
(472,-119,c),
(472,-149,l),
(354,-149,o),
(244,-93,o),
(244,-15,cs),
(244,173,ls),
(244,240,o),
(207,288,o),
(154,288,cs),
(202,288,o),
(236,336,o),
(236,404,cs),
(236,598,ls),
(236,663,o),
(349,709,o),
(471,709,c)
);
}
);
width = 600;
}
);
unicode = 123;
},
{
color = 1;
glyphname = braceright;
lastChange = "2024-03-26 19:30:40 +0000";
layers = (
{
layerId = m01;
shapes = (
{
closed = 1;
nodes = (
(155,-136,l),
(229,-136,o),
(282,-99,o),
(282,-47,cs),
(282,156,ls),
(282,224,o),
(364,272,o),
(442,272,c),
(364,272,o),
(282,320,o),
(282,387,cs),
(282,582,ls),
(282,649,o),
(229,696,o),
(154,696,c),
(154,709,l),
(272,709,o),
(382,653,o),
(382,575,cs),
(382,387,ls),
(382,320,o),
(419,272,o),
(472,272,cs),
(424,272,o),
(390,224,o),
(390,156,cs),
(390,-38,ls),
(390,-103,o),
(277,-149,o),
(155,-149,c)
);
}
);
width = 600;
},
{
layerId = m002;
shapes = (
{
closed = 1;
nodes = (
(155,-119,l),
(229,-119,o),
(282,-90,o),
(282,-38,cs),
(282,156,ls),
(282,224,o),
(304,272,o),
(382,272,c),
(304,272,o),
(282,320,o),
(282,387,cs),
(282,575,ls),
(282,642,o),
(229,679,o),
(154,679,c),
(154,709,l),
(272,709,o),
(382,653,o),
(382,575,cs),
(382,387,ls),
(382,320,o),
(419,272,o),
(472,272,cs),
(424,272,o),
(390,224,o),
(390,156,cs),
(390,-38,ls),
(390,-103,o),
(277,-149,o),
(155,-149,c)
);
}
);
width = 600;
}
);
unicode = 125;
},
{
color = 1;
glyphname = bracketleft;
lastChange = "2024-03-26 19:30:59 +0000";
layers = (
{
layerId = m01;
shapes = (
{
closed = 1;
nodes = (
(178,699,l),
(178,-141,l),
(402,-141,l),
(402,-128,l),
(278,-128,l),
(278,686,l),
(404,686,l),
(404,699,l)
);
}
);
width = 600;
},
{
layerId = m002;
shapes = (
{
closed = 1;
nodes = (
(178,699,l),
(178,-141,l),
(402,-141,l),
(402,-111,l),
(278,-111,l),
(278,669,l),
(404,669,l),
(404,699,l)
);
}
);
width = 600;
}
);
unicode = 91;
},
{
color = 1;
glyphname = bracketright;
lastChange = "2024-03-26 19:31:20 +0000";
layers = (
{
layerId = m01;
shapes = (
{
closed = 1;
nodes = (
(195,686,l),
(321,686,l),
(321,-128,l),
(197,-128,l),
(197,-141,l),
(421,-141,l),
(421,699,l),
(195,699,l)
);
}
);
width = 600;
},
{
layerId = m002;
shapes = (
{
closed = 1;
nodes = (
(195,669,l),
(321,669,l),
(321,-111,l),
(197,-111,l),
(197,-141,l),
(421,-141,l),
(421,699,l),
(195,699,l)
);
}
);
width = 600;
}
);
unicode = 93;
},
{
color = 1;
glyphname = quotesinglbase;
lastChange = "2024-03-26 19:33:55 +0000";
layers = (
{
layerId = m01;
shapes = (
{
closed = 1;
nodes = (
(192,-6,o),
(218,20,o),
(218,52,cs),
(218,84,o),
(192,110,o),
(160,110,cs),
(128,110,o),
(102,84,o),
(102,52,cs),
(102,20,o),
(128,-6,o),
(160,-6,cs)
);
},
{
closed = 1;
nodes = (
(180,-17,o),
(133,-116,o),
(88,-141,c),
(93,-150,l),
(162,-103,o),
(218,-13,o),
(218,52,c),
(180,32,l)
);
}
);
width = 300;
},
{
layerId = m002;
shapes = (
{
closed = 1;
nodes = (
(193,-6,o),
(219,20,o),
(219,52,cs),
(219,84,o),
(193,110,o),
(161,110,cs),
(129,110,o),
(103,84,o),
(103,52,cs),
(103,20,o),
(129,-6,o),
(161,-6,cs)
);
},
{
closed = 1;
nodes = (
(156,-39,o),
(120,-98,o),
(75,-123,c),
(94,-151,l),
(164,-103,o),
(219,-13,o),
(219,52,c),
(156,10,l)
);
}
);
width = 300;
}
);
unicode = 8218;
},
{
color = 1;
glyphname = guillemetleft;
lastChange = "2024-03-26 19:32:20 +0000";
layers = (
{
layerId = m01;
shapes = (
{
closed = 1;
nodes = (
(53,271,l),
(238,64,l),
(309,135,l),
(128,337,l),
(268,498,l),
(257,506,l)
);
},
{
closed = 1;
nodes = (
(293,271,l),
(478,64,l),
(549,135,l),
(368,337,l),
(508,498,l),
(497,506,l)
);
}
);
width = 600;
},
{
layerId = m002;
shapes = (
{
closed = 1;
nodes = (
(53,271,l),
(239,64,l),
(311,134,l),
(139,325,l),
(280,487,l),
(257,506,l)
);
},
{
closed = 1;
nodes = (
(293,271,l),
(479,64,l),
(551,134,l),
(379,325,l),
(520,487,l),
(497,506,l)
);
}
);
width = 600;
}
);
unicode = 171;
},
{
color = 1;
glyphname = guillemetright;
lastChange = "2024-03-26 19:32:32 +0000";
layers = (
{
layerId = m01;
shapes = (
{
closed = 1;
nodes = (
(549,299,l),
(364,506,l),
(293,435,l),
(474,233,l),
(334,72,l),
(345,64,l)
);
},
{
closed = 1;
nodes = (
(309,299,l),
(124,506,l),
(53,435,l),
(234,233,l),
(94,72,l),
(105,64,l)
);
}
);
width = 600;
},
{
layerId = m002;
shapes = (
{
closed = 1;
nodes = (
(551,299,l),
(365,506,l),
(293,436,l),
(465,245,l),
(324,83,l),
(347,64,l)
);
},
{
closed = 1;
nodes = (
(311,299,l),
(125,506,l),
(53,436,l),
(225,245,l),
(84,83,l),
(107,64,l)
);
}
);
width = 600;
}
);
unicode = 187;
},
{
color = 1;
glyphname = guilsinglleft;
lastChange = "2024-03-26 19:32:45 +0000";
layers = (
{
layerId = m01;
shapes = (
{
closed = 1;
nodes = (
(183,271,l),
(368,64,l),
(439,135,l),
(258,337,l),
(398,498,l),
(387,506,l)
);
}
);
width = 600;
},
{
layerId = m002;
shapes = (
{
closed = 1;
nodes = (
(179,271,l),
(365,64,l),
(437,134,l),
(265,325,l),
(406,487,l),
(383,506,l)
);
}
);
width = 600;
}
);
unicode = 8249;
},
{
color = 1;
glyphname = guilsinglright;
lastChange = "2024-03-26 19:32:57 +0000";
layers = (
{
layerId = m01;
shapes = (
{
closed = 1;
nodes = (
(439,299,l),
(254,506,l),
(183,435,l),
(364,233,l),
(224,72,l),
(235,64,l)
);
}
);
width = 600;
},
{
layerId = m002;
shapes = (
{
closed = 1;
nodes = (
(417,299,l),
(231,506,l),
(159,436,l),
(331,245,l),
(190,83,l),
(213,64,l)
);
}
);
width = 600;
}
);
unicode = 8250;
},
{
glyphname = quotesingle;
lastChange = "2024-03-25 08:11:09 +0000";
layers = (
{
layerId = m01;
shapes = (
{
closed = 1;
nodes = (
(131,594,o),
(157,620,o),
(157,652,cs),
(157,684,o),
(131,710,o),
(99,710,cs),
(67,710,o),
(41,684,o),
(41,652,cs),
(41,620,o),
(67,594,o),
(99,594,cs)
);
},
{
closed = 1;
nodes = (
(119,583,o),
(72,484,o),
(27,459,c),
(32,450,l),
(101,497,o),
(157,587,o),
(157,652,c),
(119,632,l)
);
}
);
width = 189;
},
{
layerId = m002;
shapes = (
{
closed = 1;
nodes = (
(131,594,o),
(157,620,o),
(157,652,cs),
(157,684,o),
(131,710,o),
(99,710,cs),
(67,710,o),
(41,684,o),
(41,652,cs),
(41,620,o),
(67,594,o),
(99,594,cs)
);
},
{
closed = 1;
nodes = (
(94,561,o),
(58,502,o),
(13,477,c),
(32,450,l),
(101,497,o),
(157,587,o),
(157,652,c),
(94,610,l)
);
}
);
width = 189;
},
{
associatedMasterId = m002;
layerId = "03E1149C-D3EB-425B-B859-DAA750A72D14";
name = "25. M채rz 24, 09:07";
shapes = (
{
closed = 1;
nodes = (
(111,471,ls),
(111,491,o),
(136,589,o),
(136,656,cs),
(136,687,o),
(117,700,o),
(92,700,cs),
(76,700,o),
(53,692,o),
(53,656,cs),
(52,590,o),
(76,492,o),
(77,472,cs),
(78,459,l),
(111,459,l)
);
}
);
width = 189;
}
);
unicode = 39;
},
{
glyphname = at;
lastChange = "2024-05-20 15:18:39 +0000";
layers = (
{
layerId = m01;
shapes = (
{
closed = 1;
nodes = (
(542,395,l),
(519,419,o),
(475,436,o),
(435,436,cs),
(327,436,o),
(250,355,o),
(250,240,cs),
(250,119,o),
(327,34,o),
(435,34,cs),
(472,34,o),
(516,53,o),
(542,81,c),
(542,53,o),
(592,33,o),
(663,33,cs),
(773,33,o),
(850,119,o),
(850,290,cs),
(850,490,o),
(684,666,o),
(450,666,cs),
(216,666,o),
(50,490,o),
(50,240,cs),
(50,2,o),
(216,-166,o),
(450,-166,cs),
(536,-166,o),
(652,-122,o),
(730,-59,c),
(725,-51,l),
(651,-112,o),
(537,-156,o),
(450,-156,cs),
(263,-156,o),
(130,8,o),
(130,240,cs),
(130,484,o),
(263,656,o),
(450,656,cs),
(637,656,o),
(770,484,o),
(770,290,cs),
(770,125,o),
(726,43,o),
(664,43,cs),
(639,43,o),
(622,68,o),
(622,104,cs),
(622,420,l),
(542,420,l)
);
},
{
closed = 1;
nodes = (
(516,65,o),
(471,44,o),
(435,44,cs),
(374,44,o),
(330,125,o),
(330,240,cs),
(330,349,o),
(374,426,o),
(435,426,cs),
(474,426,o),
(518,408,o),
(542,382,c),
(542,94,l)
);
}
);
width = 900;
},
{
layerId = m002;
shapes = (
{
closed = 1;
nodes = (
(392,395,l),
(369,419,o),
(325,436,o),
(285,436,cs),
(177,436,o),
(100,355,o),
(100,240,cs),
(100,119,o),
(177,34,o),
(285,34,cs),
(322,34,o),
(366,53,o),
(392,81,c),
(392,53,o),
(442,33,o),
(513,33,cs),
(623,33,o),
(700,139,o),
(700,290,cs),
(700,510,o),
(534,666,o),
(300,666,cs),
(66,666,o),
(-100,490,o),
(-100,240,cs),
(-100,2,o),
(66,-166,o),
(300,-166,cs),
(387,-166,o),
(503,-122,o),
(580,-59,c),
(565,-41,l),
(497,-97,o),
(387,-136,o),
(300,-136,cs),
(113,-136,o),
(-20,20,o),
(-20,240,cs),
(-20,472,o),
(113,636,o),
(300,636,cs),
(487,636,o),
(620,493,o),
(620,290,cs),
(620,157,o),
(576,63,o),
(514,63,cs),
(489,63,o),
(472,80,o),
(472,104,cs),
(472,420,l),
(392,420,l)
);
},
{
closed = 1;
nodes = (
(366,85,o),
(321,64,o),
(285,64,cs),
(224,64,o),
(180,137,o),
(180,240,cs),
(180,337,o),
(224,406,o),
(285,406,cs),
(324,406,o),
(368,388,o),
(392,362,c),
(392,114,l)
);
}
);
width = 600;
}
);
unicode = 64;
},
{
glyphname = ampersand;
lastChange = "2024-03-25 08:27:09 +0000";
layers = (
{
layerId = m01;
shapes = (
{
closed = 1;
nodes = (
(383,-16,o),
(449,18,o),
(495,84,c),
(519,62,o),
(568,25,o),
(606,0,c),
(767,0,l),
(767,10,l),
(734,10,ls),
(722,10,o),
(710,17,o),
(696,27,cs),
(644,67,o),
(574,130,o),
(537,169,c),
(554,220,o),
(587,332,o),
(589,402,c),
(579,402,l),
(577,335,o),
(545,226,o),
(529,177,c),
(467,243,o),
(368,356,o),
(317,432,c),
(399,477,o),
(477,512,o),
(477,594,cs),
(477,672,o),
(422,716,o),
(323,716,cs),
(198,716,o),
(129,672,o),
(129,594,cs),
(129,551,o),
(163,478,o),
(224,391,c),
(126,337,o),
(38,288,o),
(38,172,cs),
(38,51,o),
(131,-16,o),
(298,-16,cs)
);
},
{
closed = 1;
nodes = (
(138,308,o),
(184,336,o),
(242,380,c),
(310,278,o),
(409,150,o),
(477,91,c),
(433,27,o),
(379,-6,o),
(298,-6,cs),
(195,-6,o),
(138,55,o),
(138,172,cs)
);
},
{
closed = 1;
nodes = (
(229,691,o),
(273,706,o),
(323,706,cs),
(383,706,o),
(417,675,o),
(417,594,cs),
(417,500,o),
(371,480,o),
(311,441,c),
(258,522,o),
(229,583,o),
(229,614,cs)
);
},
{
closed = 1;
nodes = (
(589,402,l),
(590,426,o),
(609,440,o),
(644,440,cs),
(697,440,l),
(697,450,l),
(491,450,l),
(491,440,l),
(534,440,ls),
(563,440,o),
(579,426,o),
(579,402,c)
);
}
);
width = 725;
},
{
layerId = m002;
shapes = (
{
closed = 1;
nodes = (
(383,-16,o),
(468,21,o),
(505,74,c),
(522,58,o),
(564,28,o),
(606,0,c),
(767,0,l),
(767,30,l),
(734,30,ls),
(710,30,o),
(677,42,o),
(656,58,cs),
(629,78,o),
(584,120,o),
(547,159,c),
(576,247,o),
(596,339,o),
(599,382,c),
(569,382,l),
(567,329,o),
(551,244,o),
(529,177,c),
(472,237,o),
(383,339,o),
(327,422,c),
(415,470,o),
(477,495,o),
(477,594,cs),
(477,665,o),
(413,716,o),
(323,716,cs),
(209,716,o),
(129,665,o),
(129,594,cs),
(129,533,o),
(168,470,o),
(224,391,c),
(109,328,o),
(38,290,o),
(38,172,cs),
(38,62,o),
(146,-16,o),
(298,-16,cs)
);
},
{
closed = 1;
nodes = (
(204,14,o),
(138,79,o),
(138,172,cs),
(138,296,o),
(175,319,o),
(242,370,c),
(312,266,o),
(419,150,o),
(487,91,c),
(456,46,o),
(378,14,o),
(298,14,cs)
);
},
{
closed = 1;
nodes = (
(263,514,o),
(229,586,o),
(229,614,cs),
(229,656,o),
(268,686,o),
(323,686,cs),
(378,686,o),
(417,648,o),
(417,594,cs),
(417,503,o),
(373,481,o),
(311,441,c)
);
},
{
closed = 1;
nodes = (
(599,382,l),
(602,404,o),
(622,420,o),
(654,420,cs),
(697,420,l),
(697,450,l),
(491,450,l),
(491,420,l),
(524,420,ls),
(550,420,o),
(569,404,o),
(569,382,c)
);
}
);
width = 725;
}
);
unicode = 38;
},
{
color = 1;
glyphname = paragraph;
lastChange = "2024-03-28 13:01:30 +0000";
layers = (
{
layerId = m01;
shapes = (
{
closed = 1;
nodes = (
(346,248,l),
(346,258,l),
(286,258,ls),
(233,258,o),
(196,348,o),
(196,475,cs),
(196,601,o),
(233,690,o),
(286,690,cs),
(346,690,l),
(346,700,l),
(286,700,ls),
(166,700,o),
(81,607,o),
(81,475,cs),
(81,342,o),
(166,248,o),
(286,248,cs)
);
},
{
closed = 1;
nodes = (
(412,-216,o),
(468,-151,o),
(468,-58,c),
(441,-132,l),
(441,-147,o),
(431,-157,o),
(417,-157,cs),
(385,-157,o),
(394,-96,o),
(333,-96,cs),
(297,-96,o),
(271,-120,o),
(271,-155,cs),
(271,-191,o),
(297,-216,o),
(333,-216,cs)
);
},
{
closed = 1;
nodes = (
(346,0,l),
(346,700,l),
(336,700,l),
(336,0,l)
);
},
{
closed = 1;
nodes = (
(468,-58,l),
(463,700,l),
(383,700,l),
(387,-16,ls),
(387,-73,o),
(441,-67,o),
(441,-132,c)
);
}
);
width = 600;
},
{
layerId = m002;
shapes = (
{
closed = 1;
nodes = (
(346,248,l),
(346,278,l),
(286,278,ls),
(236,278,o),
(196,365,o),
(196,475,cs),
(196,584,o),
(236,670,o),
(286,670,cs),
(346,670,l),
(346,700,l),
(286,700,ls),
(172,700,o),
(81,600,o),
(81,475,cs),
(81,349,o),
(172,248,o),
(286,248,cs)
);
},
{
closed = 1;
nodes = (
(412,-216,o),
(468,-151,o),
(468,-58,c),
(421,-132,l),
(421,-147,o),
(411,-157,o),
(397,-157,cs),
(365,-157,o),
(394,-96,o),
(333,-96,cs),
(297,-96,o),
(271,-120,o),
(271,-155,cs),
(271,-191,o),
(297,-216,o),
(333,-216,cs)
);
},
{
closed = 1;
nodes = (
(346,0,l),
(346,700,l),
(316,700,l),
(316,0,l)
);
},
{
closed = 1;
nodes = (
(468,-58,l),
(463,700,l),
(383,700,l),
(387,-16,ls),
(387,-73,o),
(421,-67,o),
(421,-132,c)
);
}
);
width = 600;
}
);
unicode = 182;
},
{
color = 1;
glyphname = section;
lastChange = "2024-03-28 13:08:36 +0000";
layers = (
{
layerId = m01;
shapes = (
{
closed = 1;
nodes = (
(379,616,l),
(403,573,l),
(403,526,l),
(419,526,l),
(419,654,l),
(406,654,l)
);
},
{
closed = 1;
nodes = (
(265,396,l),
(155,396,o),
(77,331,o),
(77,238,cs),
(77,68,o),
(382,81,o),
(382,-22,cs),
(382,-69,o),
(334,-102,o),
(265,-102,cs),
(179,-102,o),
(119,-49,o),
(119,27,c),
(105,27,l),
(105,-56,o),
(171,-115,o),
(265,-115,cs),
(366,-115,o),
(438,-57,o),
(438,25,cs),
(438,189,o),
(153,182,o),
(153,285,cs),
(153,342,o),
(188,383,o),
(265,383,c)
);
},
{
closed = 1;
nodes = (
(140,-59,l),
(119,-16,l),
(119,27,l),
(102,27,l),
(102,-101,l),
(115,-101,l)
);
},
{
closed = 1;
nodes = (
(265,165,l),
(265,165,o),
(266,165,o),
(266,165,cs),
(385,165,o),
(469,231,o),
(469,325,c),
(469,489,o),
(154,482,o),
(154,585,cs),
(154,625,o),
(196,653,o),
(256,653,cs),
(342,653,o),
(403,600,o),
(403,526,c),
(416,526,l),
(416,608,o),
(350,666,o),
(256,666,cs),
(163,666,o),
(98,613,o),
(98,538,cs),
(98,368,o),
(391,381,o),
(391,278,cs),
(391,219,o),
(352,178,o),
(266,178,cs),
(266,178,o),
(265,178,o),
(265,178,c)
);
}
);
width = 546;
},
{
layerId = m002;
shapes = (
{
closed = 1;
nodes = (
(379,616,l),
(403,573,l),
(383,526,l),
(419,526,l),
(419,654,l),
(406,654,l)
);
},
{
closed = 1;
nodes = (
(265,416,l),
(155,416,o),
(77,342,o),
(77,238,cs),
(77,68,o),
(382,81,o),
(382,-22,cs),
(382,-57,o),
(334,-82,o),
(265,-82,cs),
(191,-82,o),
(139,-37,o),
(139,27,c),
(105,27,l),
(105,-56,o),
(171,-115,o),
(265,-115,cs),
(366,-115,o),
(438,-57,o),
(438,25,cs),
(438,189,o),
(153,182,o),
(153,285,cs),
(153,337,o),
(199,373,o),
(265,373,c)
);
},
{
closed = 1;
nodes = (
(140,-59,l),
(119,-16,l),
(139,27,l),
(102,27,l),
(102,-101,l),
(115,-101,l)
);
},
{
closed = 1;
nodes = (
(265,145,l),
(265,145,o),
(266,145,o),
(266,145,cs),
(385,145,o),
(469,220,o),
(469,325,c),
(469,489,o),
(154,482,o),
(154,585,cs),
(154,613,o),
(196,633,o),
(256,633,cs),
(330,633,o),
(383,589,o),
(383,526,c),
(416,526,l),
(416,608,o),
(350,666,o),
(256,666,cs),
(163,666,o),
(98,613,o),
(98,538,cs),
(98,368,o),
(391,381,o),
(391,278,cs),
(391,225,o),
(339,188,o),
(266,188,cs),
(266,188,o),
(265,188,o),
(265,188,c)
);
}
);
width = 546;
}
);
unicode = 167;
},
{
color = 1;
glyphname = copyright;
lastChange = "2024-03-27 14:44:45 +0000";
layers = (
{
layerId = m01;
shapes = (
{
closed = 1;
nodes = (
(630,-84,o),
(806,92,o),
(806,308,cs),
(806,524,o),
(630,700,o),
(415,700,cs),
(198,700,o),
(22,524,o),
(22,308,cs),
(22,92,o),
(198,-84,o),
(415,-84,cs)
);
},
{
closed = 1;
nodes = (
(200,-65,o),
(81,68,o),
(81,308,cs),
(81,548,o),
(200,681,o),
(415,681,cs),
(628,681,o),
(747,548,o),
(747,308,cs),
(747,68,o),
(628,-65,o),
(415,-65,cs)
);
},
{
pos = (155,57);
ref = C;
scale = (0.7122,0.7122);
}
);
width = 828;
},
{
layerId = m002;
shapes = (
{
closed = 1;
nodes = (
(630,-84,o),
(806,92,o),
(806,308,cs),
(806,524,o),
(630,700,o),
(415,700,cs),
(198,700,o),
(22,524,o),
(22,308,cs),
(22,92,o),
(198,-84,o),
(415,-84,cs)
);
},
{
closed = 1;
nodes = (
(219,-55,o),
(81,95,o),
(81,308,cs),
(81,521,o),
(219,671,o),
(415,671,cs),
(609,671,o),
(747,521,o),
(747,308,cs),
(747,95,o),
(609,-55,o),
(415,-55,cs)
);
},
{
pos = (153,53);
ref = C;
scale = (0.7044,0.7257);
}
);
width = 828;
}
);
unicode = 169;
},
{
color = 1;
glyphname = registered;
lastChange = "2024-03-27 14:46:33 +0000";
layers = (
{
layerId = m01;
shapes = (
{
closed = 1;
nodes = (
(326,351,o),
(415,440,o),
(415,547,cs),
(415,655,o),
(326,744,o),
(219,744,cs),
(111,744,o),
(22,655,o),
(22,547,cs),
(22,440,o),
(111,351,o),
(219,351,cs)
);
},
{
closed = 1;
nodes = (
(121,366,o),
(52,441,o),
(52,547,cs),
(52,654,o),
(121,729,o),
(219,729,cs),
(316,729,o),
(386,654,o),
(386,547,cs),
(386,441,o),
(316,366,o),
(219,366,cs)
);
},
{
pos = (106,425);
ref = R;
scale = (0.3538,0.3538);
}
);
width = 437;
},
{
layerId = m002;
shapes = (
{
closed = 1;
nodes = (
(326,351,o),
(415,440,o),
(415,547,cs),
(415,655,o),
(326,744,o),
(219,744,cs),
(111,744,o),
(22,655,o),
(22,547,cs),
(22,440,o),
(111,351,o),
(219,351,cs)
);
},
{
closed = 1;
nodes = (
(121,366,o),
(52,441,o),
(52,547,cs),
(52,654,o),
(121,729,o),
(219,729,cs),
(316,729,o),
(386,654,o),
(386,547,cs),
(386,441,o),
(316,366,o),
(219,366,cs)
);
},
{
pos = (108,431);
ref = R;
scale = (0.3419,0.3419);
}
);
width = 437;
}
);
unicode = 174;
},
{
color = 1;
glyphname = degree;
lastChange = "2024-03-27 14:57:10 +0000";
layers = (
{
layerId = m01;
shapes = (
{
closed = 1;
nodes = (
(387,394,o),
(448,454,o),
(448,538,cs),
(448,624,o),
(387,684,o),
(301,684,cs),
(214,684,o),
(153,624,o),
(153,538,cs),
(153,454,o),
(214,394,o),
(301,394,cs)
);
},
{
closed = 1;
nodes = (
(259,404,o),
(233,456,o),
(233,538,cs),
(233,622,o),
(259,674,o),
(301,674,cs),
(343,674,o),
(369,622,o),
(369,538,cs),
(369,456,o),
(343,404,o),
(301,404,cs)
);
}
);
width = 600;
},
{
layerId = m002;
shapes = (
{
closed = 1;
nodes = (
(387,394,o),
(448,454,o),
(448,538,cs),
(448,624,o),
(387,684,o),
(301,684,cs),
(214,684,o),
(153,624,o),
(153,538,cs),
(153,454,o),
(214,394,o),
(301,394,cs)
);
},
{
closed = 1;
nodes = (
(257,424,o),
(233,465,o),
(233,538,cs),
(233,613,o),
(257,654,o),
(301,654,cs),
(345,654,o),
(369,613,o),
(369,538,cs),
(369,465,o),
(345,424,o),
(301,424,cs)
);
}
);
width = 600;
}
);
unicode = 176;
},
{
color = 1;
glyphname = bar;
lastChange = "2024-03-27 14:54:49 +0000";
layers = (
{
layerId = m01;
shapes = (
{
closed = 1;
nodes = (
(60,-200,l),
(140,-200,l),
(140,699,l),
(60,699,l)
);
}
);
width = 200;
},
{
layerId = m002;
shapes = (
{
closed = 1;
nodes = (
(60,-200,l),
(140,-200,l),
(140,699,l),
(60,699,l)
);
}
);
width = 200;
}
);
unicode = 124;
},
{
color = 1;
glyphname = plus;
lastChange = "2024-03-27 14:55:18 +0000";
layers = (
{
layerId = m01;
shapes = (
{
closed = 1;
nodes = (
(260,27,l),
(335,27,l),
(335,529,l),
(260,529,l)
);
},
{
closed = 1;
nodes = (
(64,244,l),
(535,244,l),
(535,319,l),
(64,319,l)
);
}
);
width = 600;
},
{
layerId = m002;
shapes = (
{
closed = 1;
nodes = (
(264,27,l),
(339,27,l),
(339,529,l),
(264,529,l)
);
},
{
closed = 1;
nodes = (
(64,240,l),
(535,240,l),
(535,315,l),
(64,315,l)
);
}
);
width = 600;
}
);
unicode = 43;
},
{
color = 1;
glyphname = minus;
lastChange = "2024-03-27 14:54:14 +0000";
layers = (
{
layerId = m01;
shapes = (
{
closed = 1;
nodes = (
(56,250,l),
(544,250,l),
(544,325,l),
(56,325,l)
);
}
);
width = 600;
},
{
layerId = m002;
shapes = (
{
closed = 1;
nodes = (
(56,250,l),
(544,250,l),
(544,325,l),
(56,325,l)
);
}
);
width = 600;
}
);
unicode = 8722;
},
{
color = 1;
glyphname = multiply;
lastChange = "2024-03-27 14:55:48 +0000";
layers = (
{
layerId = m01;
shapes = (
{
closed = 1;
nodes = (
(97,126,l),
(150,73,l),
(505,428,l),
(452,481,l)
);
},
{
closed = 1;
nodes = (
(106,418,l),
(439,85,l),
(492,137,l),
(159,471,l)
);
}
);
width = 600;
},
{
layerId = m002;
shapes = (
{
closed = 1;
nodes = (
(94,123,l),
(150,73,l),
(505,428,l),
(449,478,l)
);
},
{
closed = 1;
nodes = (
(106,418,l),
(439,85,l),
(492,137,l),
(159,471,l)
);
}
);
width = 600;
}
);
unicode = 215;
},
{
color = 1;
glyphname = divide;
lastChange = "2024-03-27 14:56:10 +0000";
layers = (
{
layerId = m01;
shapes = (
{
closed = 1;
nodes = (
(65,244,l),
(536,244,l),
(536,319,l),
(65,319,l)
);
},
{
closed = 1;
nodes = (
(326,43,o),
(349,66,o),
(349,92,cs),
(349,119,o),
(326,141,o),
(300,141,cs),
(274,141,o),
(251,119,o),
(251,92,cs),
(251,66,o),
(274,43,o),
(300,43,cs)
);
},
{
closed = 1;
nodes = (
(326,418,o),
(349,441,o),
(349,467,cs),
(349,494,o),
(326,516,o),
(300,516,cs),
(274,516,o),
(251,494,o),
(251,467,cs),
(251,441,o),
(274,418,o),
(300,418,cs)
);
}
);
width = 600;
},
{
layerId = m002;
shapes = (
{
closed = 1;
nodes = (
(65,244,l),
(536,244,l),
(536,319,l),
(65,319,l)
);
},
{
closed = 1;
nodes = (
(326,43,o),
(349,66,o),
(349,92,cs),
(349,119,o),
(326,141,o),
(300,141,cs),
(274,141,o),
(251,119,o),
(251,92,cs),
(251,66,o),
(274,43,o),
(300,43,cs)
);
},
{
closed = 1;
nodes = (
(326,418,o),
(349,441,o),
(349,467,cs),
(349,494,o),
(326,516,o),
(300,516,cs),
(274,516,o),
(251,494,o),
(251,467,cs),
(251,441,o),
(274,418,o),
(300,418,cs)
);
}
);
width = 600;
}
);
unicode = 247;
},
{
color = 1;
glyphname = equal;
lastChange = "2024-03-27 14:56:30 +0000";
layers = (
{
layerId = m01;
shapes = (
{
closed = 1;
nodes = (
(65,344,l),
(536,344,l),
(536,419,l),
(65,419,l)
);
},
{
closed = 1;
nodes = (
(65,140,l),
(536,140,l),
(536,215,l),
(65,215,l)
);
}
);
width = 600;
},
{
layerId = m002;
shapes = (
{
closed = 1;
nodes = (
(65,344,l),
(536,344,l),
(536,419,l),
(65,419,l)
);
},
{
closed = 1;
nodes = (
(65,140,l),
(536,140,l),
(536,215,l),
(65,215,l)
);
}
);
width = 600;
}
);
unicode = 61;
},
{
color = 1;
glyphname = greater;
lastChange = "2024-03-27 14:37:46 +0000";
layers = (
{
layerId = m01;
shapes = (
{
closed = 1;
nodes = (
(65,465,l),
(536,241,l),
(536,320,l),
(65,544,l)
);
},
{
closed = 1;
nodes = (
(536,241,l),
(536,320,l),
(65,96,l),
(65,17,l)
);
}
);
width = 600;
},
{
layerId = m002;
shapes = (
{
closed = 1;
nodes = (
(65,465,l),
(536,241,l),
(536,320,l),
(65,544,l)
);
},
{
closed = 1;
nodes = (
(536,241,l),
(536,320,l),
(65,96,l),
(65,17,l)
);
}
);
width = 600;
}
);
unicode = 62;
},
{
color = 1;
glyphname = less;
lastChange = "2024-03-27 14:38:29 +0000";
layers = (
{
layerId = m01;
shapes = (
{
closed = 1;
nodes = (
(65,320,l),
(65,241,l),
(536,465,l),
(536,544,l)
);
},
{
closed = 1;
nodes = (
(536,96,l),
(65,320,l),
(65,241,l),
(536,17,l)
);
}
);
width = 600;
},
{
layerId = m002;
shapes = (
{
closed = 1;
nodes = (
(65,320,l),
(65,241,l),
(536,465,l),
(536,544,l)
);
},
{
closed = 1;
nodes = (
(536,96,l),
(65,320,l),
(65,241,l),
(536,17,l)
);
}
);
width = 600;
}
);
unicode = 60;
},
{
color = 1;
glyphname = asciitilde;
lastChange = "2024-03-27 14:53:52 +0000";
layers = (
{
layerId = m01;
shapes = (
{
closed = 1;
nodes = (
(79,307,o),
(126,377,o),
(193,377,cs),
(273,377,o),
(339,254,o),
(401,254,cs),
(458,254,o),
(519,297,o),
(519,357,c),
(529,357,l),
(529,257,o),
(476,186,o),
(401,186,cs),
(306,186,o),
(258,306,o),
(193,306,cs),
(144,306,o),
(89,266,o),
(89,209,c),
(79,209,l)
);
}
);
width = 600;
},
{
layerId = m002;
shapes = (
{
closed = 1;
nodes = (
(79,307,o),
(126,377,o),
(193,377,cs),
(273,377,o),
(339,254,o),
(401,254,cs),
(458,254,o),
(499,297,o),
(499,357,c),
(529,357,l),
(529,257,o),
(476,186,o),
(401,186,cs),
(306,186,o),
(258,306,o),
(193,306,cs),
(144,306,o),
(109,266,o),
(109,209,c),
(79,209,l)
);
}
);
width = 600;
}
);
unicode = 126;
},
{
color = 1;
glyphname = asciicircum;
lastChange = "2024-03-27 14:50:15 +0000";
layers = (
{
layerId = m01;
shapes = (
{
closed = 1;
nodes = (
(176,407,l),
(276,670,l),
(362,405,l),
(459,438,l),
(349,732,l),
(264,706,l),
(150,414,l)
);
}
);
width = 600;
},
{
layerId = m002;
shapes = (
{
closed = 1;
nodes = (
(176,407,l),
(276,670,l),
(362,405,l),
(459,438,l),
(349,732,l),
(264,706,l),
(150,414,l)
);
}
);
width = 600;
}
);
unicode = 94;
},
{
color = 1;
glyphname = percent;
lastChange = "2024-03-27 14:56:50 +0000";
layers = (
{
layerId = m01;
shapes = (
{
closed = 1;
nodes = (
(120,-2,l),
(173,-2,l),
(674,721,l),
(621,721,l)
);
},
{
closed = 1;
nodes = (
(267,359,o),
(314,428,o),
(314,552,cs),
(314,674,o),
(267,741,o),
(183,741,cs),
(98,741,o),
(51,674,o),
(51,552,cs),
(51,428,o),
(98,359,o),
(183,359,cs)
);
},
{
closed = 1;
nodes = (
(123,375,o),
(113,432,o),
(113,552,cs),
(113,670,o),
(123,725,o),
(183,725,cs),
(243,725,o),
(252,670,o),
(252,552,cs),
(252,432,o),
(243,375,o),
(183,375,cs)
);
},
{
closed = 1;
nodes = (
(697,-11,o),
(744,58,o),
(744,182,cs),
(744,304,o),
(697,371,o),
(613,371,cs),
(528,371,o),
(481,304,o),
(481,182,cs),
(481,58,o),
(528,-11,o),
(613,-11,cs)
);
},
{
closed = 1;
nodes = (
(553,5,o),
(543,62,o),
(543,182,cs),
(543,300,o),
(553,355,o),
(613,355,cs),
(673,355,o),
(682,300,o),
(682,182,cs),
(682,62,o),
(673,5,o),
(613,5,cs)
);
}
);
width = 795;
},
{
layerId = m002;
shapes = (
{
closed = 1;
nodes = (
(120,-2,l),
(193,-2,l),
(694,721,l),
(621,721,l)
);
},
{
closed = 1;
nodes = (
(267,359,o),
(314,428,o),
(314,552,cs),
(314,674,o),
(267,741,o),
(183,741,cs),
(98,741,o),
(51,674,o),
(51,552,cs),
(51,428,o),
(98,359,o),
(183,359,cs)
);
},
{
closed = 1;
nodes = (
(123,375,o),
(113,432,o),
(113,552,cs),
(113,670,o),
(123,725,o),
(183,725,cs),
(243,725,o),
(252,670,o),
(252,552,cs),
(252,432,o),
(243,375,o),
(183,375,cs)
);
},
{
closed = 1;
nodes = (
(697,-11,o),
(744,58,o),
(744,182,cs),
(744,304,o),
(697,371,o),
(613,371,cs),
(528,371,o),
(481,304,o),
(481,182,cs),
(481,58,o),
(528,-11,o),
(613,-11,cs)
);
},
{
closed = 1;
nodes = (
(553,5,o),
(543,62,o),
(543,182,cs),
(543,300,o),
(553,355,o),
(613,355,cs),
(673,355,o),
(682,300,o),
(682,182,cs),
(682,62,o),
(673,5,o),
(613,5,cs)
);
}
);
width = 795;
}
);
unicode = 37;
},
{
glyphname = upArrow;
lastChange = "2024-03-25 12:39:24 +0000";
layers = (
{
layerId = m01;
shapes = (
{
closed = 1;
nodes = (
(306,0,l),
(306,460,l),
(496,460,l),
(496,466,l),
(380,466,o),
(324,563,o),
(303,700,c),
(297,700,l),
(276,563,o),
(220,466,o),
(104,466,c),
(104,460,l),
(292,460,l),
(292,0,l)
);
}
);
width = 600;
},
{
layerId = m002;
shapes = (
{
closed = 1;
nodes = (
(316,0,l),
(316,460,l),
(496,460,l),
(496,476,l),
(394,498,o),
(324,613,o),
(303,700,c),
(295,700,l),
(274,613,o),
(206,498,o),
(104,476,c),
(104,460,l),
(282,460,l),
(282,0,l)
);
}
);
width = 600;
}
);
unicode = 8593;
},
{
glyphname = hookabovecomb;
lastChange = "2024-03-25 14:11:23 +0000";
layers = (
{
anchors = (
{
name = _top;
pos = (300,450);
}
);
layerId = m01;
shapes = (
{
closed = 1;
nodes = (
(224,740,l),
(234,746,o),
(251,752,o),
(267,752,cs),
(293,752,o),
(319,738,o),
(319,691,cs),
(319,665,o),
(296,633,o),
(272,619,c),
(275,609,l),
(331,619,o),
(379,655,o),
(379,691,cs),
(379,741,o),
(332,770,o),
(283,770,cs),
(261,770,o),
(239,764,o),
(220,752,c)
);
}
);
width = 600;
},
{
anchors = (
{
name = _top;
pos = (300,460);
}
);
layerId = m002;
shapes = (
{
closed = 1;
nodes = (
(224,730,l),
(235,737,o),
(254,742,o),
(267,742,cs),
(296,742,o),
(319,719,o),
(319,691,cs),
(319,672,o),
(308,634,o),
(272,629,c),
(275,599,l),
(333,609,o),
(379,650,o),
(379,691,cs),
(379,741,o),
(336,780,o),
(283,780,cs),
(264,780,o),
(236,772,o),
(220,762,c)
);
}
);
width = 600;
}
);
unicode = 777;
},
{
glyphname = hookabovecomb.case;
lastChange = "2024-03-26 18:18:12 +0000";
layers = (
{
anchors = (
{
name = _top;
pos = (300,450);
}
);
layerId = m01;
shapes = (
{
closed = 1;
nodes = (
(224,740,l),
(234,746,o),
(251,752,o),
(267,752,cs),
(293,752,o),
(319,738,o),
(319,691,cs),
(319,665,o),
(296,633,o),
(272,619,c),
(275,609,l),
(331,619,o),
(379,655,o),
(379,691,cs),
(379,741,o),
(332,770,o),
(283,770,cs),
(261,770,o),
(239,764,o),
(220,752,c)
);
}
);
width = 600;
},
{
anchors = (
{
name = _top;
pos = (300,460);
}
);
layerId = m002;
shapes = (
{
closed = 1;
nodes = (
(224,730,l),
(235,737,o),
(254,742,o),
(267,742,cs),
(296,742,o),
(319,719,o),
(319,691,cs),
(319,672,o),
(308,634,o),
(272,629,c),
(275,599,l),
(333,609,o),
(379,650,o),
(379,691,cs),
(379,741,o),
(336,780,o),
(283,780,cs),
(264,780,o),
(236,772,o),
(220,762,c)
);
}
);
width = 600;
}
);
},
{
glyphname = dieresis;
lastChange = "2024-03-25 13:02:18 +0000";
layers = (
{
layerId = m01;
shapes = (
{
closed = 1;
nodes = (
(240,632,o),
(267,659,o),
(267,690,cs),
(267,722,o),
(240,748,o),
(209,748,cs),
(178,748,o),
(151,722,o),
(151,690,cs),
(151,659,o),
(178,632,o),
(209,632,cs)
);
},
{
closed = 1;
nodes = (
(422,632,o),
(449,659,o),
(449,690,cs),
(449,722,o),
(422,748,o),
(391,748,cs),
(360,748,o),
(333,722,o),
(333,690,cs),
(333,659,o),
(360,632,o),
(391,632,cs)
);
}
);
width = 600;
},
{
layerId = m002;
shapes = (
{
closed = 1;
nodes = (
(240,632,o),
(267,659,o),
(267,690,cs),
(267,722,o),
(240,748,o),
(209,748,cs),
(178,748,o),
(151,722,o),
(151,690,cs),
(151,659,o),
(178,632,o),
(209,632,cs)
);
},
{
closed = 1;
nodes = (
(422,632,o),
(449,659,o),
(449,690,cs),
(449,722,o),
(422,748,o),
(391,748,cs),
(360,748,o),
(333,722,o),
(333,690,cs),
(333,659,o),
(360,632,o),
(391,632,cs)
);
}
);
width = 600;
}
);
unicode = 168;
},
{
glyphname = dotaccent;
lastChange = "2024-03-25 14:19:42 +0000";
layers = (
{
layerId = m01;
shapes = (
{
closed = 1;
nodes = (
(337,579,o),
(368,610,o),
(368,647,cs),
(368,685,o),
(337,715,o),
(300,715,cs),
(263,715,o),
(232,685,o),
(232,647,cs),
(232,610,o),
(263,579,o),
(300,579,cs)
);
}
);
width = 600;
},
{
layerId = m002;
shapes = (
{
closed = 1;
nodes = (
(337,579,o),
(368,610,o),
(368,647,cs),
(368,685,o),
(337,715,o),
(300,715,cs),
(263,715,o),
(232,685,o),
(232,647,cs),
(232,610,o),
(263,579,o),
(300,579,cs)
);
}
);
width = 600;
}
);
unicode = 729;
},
{
glyphname = grave;
lastChange = "2024-03-25 09:59:44 +0000";
layers = (
{
layerId = m01;
shapes = (
{
closed = 1;
nodes = (
(378,641,l),
(371,648,ls),
(359,660,o),
(320,738,o),
(280,779,cs),
(262,797,o),
(242,793,o),
(228,779,cs),
(217,768,o),
(208,750,o),
(230,728,cs),
(269,689,o),
(349,651,o),
(362,640,cs),
(370,633,l)
);
}
);
width = 600;
},
{
layerId = m002;
shapes = (
{
closed = 1;
nodes = (
(383,646,l),
(376,653,ls),
(364,665,o),
(320,738,o),
(280,779,cs),
(262,797,o),
(242,793,o),
(228,779,cs),
(217,768,o),
(208,750,o),
(230,728,cs),
(269,689,o),
(342,643,o),
(355,632,cs),
(363,625,l)
);
}
);
width = 600;
}
);
unicode = 96;
},
{
glyphname = acute;
lastChange = "2024-03-25 12:59:07 +0000";
layers = (
{
layerId = m01;
shapes = (
{
closed = 1;
nodes = (
(238,639,ls),
(250,651,o),
(330,688,o),
(370,728,cs),
(389,747,o),
(385,766,o),
(370,781,cs),
(360,791,o),
(342,800,o),
(320,778,cs),
(280,739,o),
(241,660,o),
(230,647,cs),
(223,639,l),
(231,632,l)
);
}
);
width = 600;
},
{
layerId = m002;
shapes = (
{
closed = 1;
nodes = (
(244,632,ls),
(256,644,o),
(330,688,o),
(370,728,cs),
(389,747,o),
(385,766,o),
(370,781,cs),
(360,791,o),
(342,800,o),
(320,778,cs),
(280,739,o),
(235,666,o),
(224,653,cs),
(217,645,l),
(237,625,l)
);
}
);
width = 600;
}
);
unicode = 180;
},
{
glyphname = hungarumlaut;
lastChange = "2024-03-26 18:27:26 +0000";
layers = (
{
anchors = (
{
name = _top;
pos = (275,470);
}
);
layerId = m01;
shapes = (
{
closed = 1;
nodes = (
(159,639,ls),
(171,651,o),
(252,688,o),
(292,728,cs),
(311,747,o),
(307,766,o),
(292,781,cs),
(282,791,o),
(264,800,o),
(242,778,cs),
(202,739,o),
(162,661,o),
(151,648,cs),
(144,640,l),
(152,632,l)
);
},
{
closed = 1;
nodes = (
(314,639,ls),
(326,651,o),
(407,688,o),
(447,728,cs),
(466,747,o),
(462,766,o),
(447,781,cs),
(437,791,o),
(419,800,o),
(397,778,cs),
(357,739,o),
(317,661,o),
(306,648,cs),
(299,640,l),
(307,632,l)
);
}
);
width = 600;
},
{
anchors = (
{
name = _top;
pos = (256,494);
}
);
layerId = m002;
shapes = (
{
closed = 1;
nodes = (
(166,632,ls),
(178,644,o),
(252,688,o),
(292,728,cs),
(311,747,o),
(307,766,o),
(292,781,cs),
(282,791,o),
(264,800,o),
(242,778,cs),
(202,739,o),
(157,666,o),
(146,653,cs),
(139,645,l),
(159,625,l)
);
},
{
closed = 1;
nodes = (
(321,632,ls),
(333,644,o),
(407,688,o),
(447,728,cs),
(466,747,o),
(462,766,o),
(447,781,cs),
(437,791,o),
(419,800,o),
(397,778,cs),
(357,739,o),
(312,666,o),
(301,653,cs),
(294,645,l),
(314,625,l)
);
}
);
width = 600;
}
);
unicode = 733;
},
{
glyphname = circumflex;
lastChange = "2024-03-25 12:59:58 +0000";
layers = (
{
layerId = m01;
shapes = (
{
closed = 1;
nodes = (
(187,639,ls),
(199,651,o),
(280,688,o),
(320,728,cs),
(339,747,o),
(335,766,o),
(320,781,cs),
(310,791,o),
(292,800,o),
(270,778,cs),
(230,739,o),
(191,660,o),
(180,647,cs),
(173,639,l),
(180,632,l)
);
},
{
closed = 1;
nodes = (
(428,640,l),
(421,648,ls),
(410,661,o),
(370,739,o),
(330,778,cs),
(308,800,o),
(290,791,o),
(280,781,cs),
(265,766,o),
(261,747,o),
(280,728,cs),
(320,688,o),
(401,651,o),
(413,639,cs),
(420,632,l)
);
}
);
width = 600;
},
{
layerId = m002;
shapes = (
{
closed = 1;
nodes = (
(194,632,ls),
(206,644,o),
(280,688,o),
(320,728,cs),
(339,747,o),
(335,766,o),
(320,781,cs),
(310,791,o),
(292,800,o),
(270,778,cs),
(230,739,o),
(185,666,o),
(174,653,cs),
(167,645,l),
(187,625,l)
);
},
{
closed = 1;
nodes = (
(433,645,l),
(426,653,ls),
(415,666,o),
(370,739,o),
(330,778,cs),
(308,800,o),
(290,791,o),
(280,781,cs),
(265,766,o),
(261,747,o),
(280,728,cs),
(320,688,o),
(394,644,o),
(406,632,cs),
(413,625,l)
);
}
);
width = 600;
}
);
unicode = 710;
},
{
glyphname = caron;
lastChange = "2024-03-25 13:46:46 +0000";
layers = (
{
anchors = (
{
name = _top;
pos = (300,450);
}
);
layerId = m01;
shapes = (
{
closed = 1;
nodes = (
(335,642,o),
(339,661,o),
(320,680,cs),
(280,720,o),
(199,758,o),
(187,770,cs),
(180,777,l),
(171,768,l),
(178,760,ls),
(189,747,o),
(230,669,o),
(270,630,cs),
(292,608,o),
(310,617,o),
(320,627,cs)
);
},
{
closed = 1;
nodes = (
(290,617,o),
(308,608,o),
(330,630,cs),
(370,669,o),
(410,747,o),
(421,760,cs),
(428,768,l),
(420,776,l),
(413,769,ls),
(401,757,o),
(320,720,o),
(280,680,cs),
(261,661,o),
(265,642,o),
(280,627,cs)
);
}
);
width = 600;
},
{
anchors = (
{
name = _top;
pos = (300,460);
}
);
layerId = m002;
shapes = (
{
closed = 1;
nodes = (
(335,642,o),
(339,661,o),
(320,680,cs),
(280,720,o),
(206,764,o),
(194,776,cs),
(187,783,l),
(167,763,l),
(174,755,ls),
(185,742,o),
(230,669,o),
(270,630,cs),
(292,608,o),
(310,617,o),
(320,627,cs)
);
},
{
closed = 1;
nodes = (
(290,617,o),
(308,608,o),
(330,630,cs),
(370,669,o),
(415,742,o),
(426,755,cs),
(433,763,l),
(413,783,l),
(406,776,ls),
(394,764,o),
(320,720,o),
(280,680,cs),
(261,661,o),
(265,642,o),
(280,627,cs)
);
}
);
width = 600;
}
);
unicode = 711;
},
{
glyphname = breve;
lastChange = "2024-03-25 14:13:07 +0000";
layers = (
{
anchors = (
{
name = _top;
pos = (300,450);
},
{
name = top;
pos = (300,600);
}
);
layerId = m01;
shapes = (
{
closed = 1;
nodes = (
(381,623,o),
(445,693,o),
(445,784,c),
(426,784,l),
(426,724,o),
(360,683,o),
(298,683,cs),
(239,683,o),
(175,724,o),
(175,784,c),
(155,784,l),
(151,693,o),
(216,623,o),
(298,623,cs)
);
}
);
width = 600;
},
{
anchors = (
{
name = _top;
pos = (300,460);
},
{
name = top;
pos = (300,615);
}
);
layerId = m002;
shapes = (
{
closed = 1;
nodes = (
(381,623,o),
(455,693,o),
(455,784,c),
(416,784,l),
(416,724,o),
(360,683,o),
(298,683,cs),
(239,683,o),
(185,724,o),
(185,784,c),
(145,784,l),
(141,693,o),
(216,623,o),
(298,623,cs)
);
}
);
width = 600;
}
);
unicode = 728;
},
{
glyphname = ring;
lastChange = "2024-03-25 10:03:35 +0000";
layers = (
{
layerId = m01;
shapes = (
{
closed = 1;
nodes = (
(354,606,o),
(393,643,o),
(393,695,cs),
(393,747,o),
(354,783,o),
(300,783,cs),
(245,783,o),
(206,747,o),
(206,695,cs),
(206,643,o),
(245,606,o),
(300,606,cs)
);
},
{
closed = 1;
nodes = (
(270,616,o),
(250,649,o),
(250,696,cs),
(250,741,o),
(270,773,o),
(299,773,cs),
(328,773,o),
(348,741,o),
(348,696,cs),
(348,649,o),
(328,616,o),
(299,616,cs)
);
}
);
width = 600;
},
{
layerId = m002;
shapes = (
{
closed = 1;
nodes = (
(352,601,o),
(393,643,o),
(393,695,cs),
(393,747,o),
(352,788,o),
(300,788,cs),
(248,788,o),
(206,747,o),
(206,695,cs),
(206,643,o),
(248,601,o),
(300,601,cs)
);
},
{
closed = 1;
nodes = (
(265,627,o),
(250,648,o),
(250,696,cs),
(250,744,o),
(265,765,o),
(299,765,cs),
(333,765,o),
(348,744,o),
(348,696,cs),
(348,648,o),
(333,627,o),
(299,627,cs)
);
}
);
width = 600;
}
);
unicode = 730;
},
